<svg width="623" height="271" viewBox="0 0 623 271" fill="none" xmlns="http://www.w3.org/2000/svg">
<rect width="623" height="271" rx="10" fill="#3B3D30"/>
<path d="M147.529 126C147.609 126 147.649 126.08 147.649 126.24C147.649 126.4 147.609 126.48 147.529 126.48C146.622 126.48 145.862 126.68 145.249 127.08C144.662 127.453 144.142 128.173 143.689 129.24L134.889 150.96C134.862 151.067 134.715 151.12 134.449 151.12C134.235 151.12 134.089 151.067 134.009 150.96L128.769 139.48L124.129 150.96C124.102 151.067 123.955 151.12 123.689 151.12C123.475 151.12 123.329 151.067 123.249 150.96L113.369 129.32C112.915 128.28 112.422 127.547 111.889 127.12C111.382 126.693 110.715 126.48 109.889 126.48C109.809 126.48 109.769 126.4 109.769 126.24C109.769 126.08 109.809 126 109.889 126L111.609 126.04C112.355 126.093 112.915 126.12 113.289 126.12C114.062 126.12 114.982 126.093 116.049 126.04L117.769 126C117.849 126 117.889 126.08 117.889 126.24C117.889 126.4 117.849 126.48 117.769 126.48C116.942 126.48 116.315 126.573 115.889 126.76C115.462 126.947 115.249 127.28 115.249 127.76C115.249 128.027 115.355 128.413 115.569 128.92L124.409 148L128.289 138.44L124.129 129.32C123.675 128.28 123.182 127.547 122.649 127.12C122.142 126.693 121.475 126.48 120.649 126.48C120.569 126.48 120.529 126.4 120.529 126.24C120.529 126.08 120.569 126 120.649 126L122.369 126.04C123.115 126.093 123.675 126.12 124.049 126.12C124.609 126.12 125.262 126.093 126.009 126.04L127.129 126C127.209 126 127.249 126.08 127.249 126.24C127.249 126.4 127.209 126.48 127.129 126.48C126.595 126.48 126.222 126.52 126.009 126.6C125.795 126.68 125.689 126.84 125.689 127.08C125.689 127.32 125.902 127.933 126.329 128.92L129.529 135.8L132.289 129C132.529 128.44 132.649 127.973 132.649 127.6C132.649 127.2 132.489 126.92 132.169 126.76C131.875 126.573 131.395 126.48 130.729 126.48C130.675 126.48 130.649 126.4 130.649 126.24C130.649 126.08 130.675 126 130.729 126L131.849 126.04C132.382 126.093 132.889 126.12 133.369 126.12C133.902 126.12 134.515 126.093 135.209 126.04L136.929 126C136.982 126 137.009 126.08 137.009 126.24C137.009 126.4 136.982 126.48 136.929 126.48C136.022 126.48 135.262 126.68 134.649 127.08C134.035 127.453 133.515 128.173 133.089 129.24L130.009 136.84L135.169 148L142.889 129C143.075 128.6 143.169 128.213 143.169 127.84C143.169 127.36 142.915 127.013 142.409 126.8C141.929 126.587 141.115 126.48 139.969 126.48C139.889 126.48 139.849 126.4 139.849 126.24C139.849 126.08 139.889 126 139.969 126L141.569 126.04C142.475 126.093 143.275 126.12 143.969 126.12C144.529 126.12 145.155 126.093 145.849 126.04L147.529 126ZM158.658 148.84C158.738 148.84 158.805 148.893 158.858 149C158.938 149.08 158.951 149.16 158.898 149.24C157.138 150.733 155.231 151.48 153.178 151.48C151.658 151.48 150.365 151.12 149.298 150.4C148.231 149.68 147.418 148.747 146.858 147.6C146.325 146.427 146.058 145.16 146.058 143.8C146.058 142.227 146.431 140.787 147.178 139.48C147.925 138.147 148.925 137.107 150.178 136.36C151.458 135.587 152.845 135.2 154.338 135.2C155.831 135.2 156.951 135.613 157.698 136.44C158.471 137.24 158.858 138.347 158.858 139.76C158.858 140.133 158.818 140.4 158.738 140.56C158.685 140.693 158.565 140.76 158.378 140.76L148.418 140.8C148.365 141.44 148.338 141.96 148.338 142.36C148.338 144.68 148.885 146.573 149.978 148.04C151.071 149.48 152.605 150.2 154.578 150.2C155.405 150.2 156.111 150.093 156.698 149.88C157.285 149.64 157.925 149.293 158.618 148.84H158.658ZM153.058 136C151.858 136 150.858 136.387 150.058 137.16C149.285 137.907 148.765 138.96 148.498 140.32L156.538 140.16C156.565 138.773 156.258 137.733 155.618 137.04C155.005 136.347 154.151 136 153.058 136ZM182.884 135.04C183.977 135.04 184.991 135.333 185.924 135.92C186.857 136.507 187.591 137.36 188.124 138.48C188.684 139.573 188.964 140.88 188.964 142.4C188.964 144.373 188.511 146.053 187.604 147.44C186.697 148.8 185.577 149.827 184.244 150.52C182.911 151.187 181.631 151.52 180.404 151.52C179.524 151.52 178.737 151.427 178.044 151.24C177.351 151.053 176.657 150.72 175.964 150.24V158.76C175.964 159.56 176.071 160.147 176.284 160.52C176.497 160.893 176.884 161.147 177.444 161.28C178.004 161.44 178.884 161.52 180.084 161.52C180.137 161.52 180.164 161.6 180.164 161.76C180.164 161.92 180.137 162 180.084 162C179.177 162 178.471 161.987 177.964 161.96L175.084 161.92L172.924 161.96C172.577 161.987 172.097 162 171.484 162C171.404 162 171.364 161.92 171.364 161.76C171.364 161.6 171.404 161.52 171.484 161.52C172.231 161.52 172.777 161.44 173.124 161.28C173.497 161.147 173.751 160.893 173.884 160.52C174.017 160.147 174.084 159.56 174.084 158.76V139.88C174.084 138.893 173.977 138.187 173.764 137.76C173.551 137.333 173.164 137.12 172.604 137.12C171.964 137.12 171.231 137.32 170.404 137.72H170.324C170.217 137.72 170.151 137.667 170.124 137.56C170.071 137.427 170.097 137.333 170.204 137.28L174.324 135.32L174.644 135.24C175.044 135.24 175.364 135.547 175.604 136.16C175.844 136.747 175.964 137.6 175.964 138.72C177.164 137.44 178.324 136.507 179.444 135.92C180.564 135.333 181.711 135.04 182.884 135.04ZM181.724 150.72C182.657 150.72 183.511 150.44 184.284 149.88C185.057 149.293 185.657 148.467 186.084 147.4C186.537 146.333 186.764 145.08 186.764 143.64C186.764 141.347 186.257 139.56 185.244 138.28C184.257 137 182.991 136.36 181.444 136.36C180.431 136.36 179.484 136.627 178.604 137.16C177.751 137.667 176.871 138.4 175.964 139.36V148.04C176.737 148.92 177.564 149.587 178.444 150.04C179.351 150.493 180.444 150.72 181.724 150.72ZM201.315 135.2C201.901 135.2 202.448 135.36 202.955 135.68C203.488 135.973 203.755 136.32 203.755 136.72C203.755 136.987 203.648 137.227 203.435 137.44C203.248 137.653 202.968 137.76 202.595 137.76C202.328 137.76 202.088 137.693 201.875 137.56C201.661 137.4 201.528 137.307 201.475 137.28C200.968 136.88 200.461 136.68 199.955 136.68C199.581 136.68 199.181 136.84 198.755 137.16C198.355 137.48 197.728 138.16 196.875 139.2V147.76C196.875 148.56 196.968 149.16 197.155 149.56C197.341 149.933 197.701 150.187 198.235 150.32C198.795 150.453 199.675 150.52 200.875 150.52C200.955 150.52 200.995 150.6 200.995 150.76C200.995 150.92 200.955 151 200.875 151C200.021 151 199.341 150.987 198.835 150.96L195.955 150.92L193.835 150.96C193.488 150.987 193.008 151 192.395 151C192.315 151 192.275 150.92 192.275 150.76C192.275 150.6 192.315 150.52 192.395 150.52C193.168 150.52 193.728 150.453 194.075 150.32C194.421 150.187 194.661 149.933 194.795 149.56C194.928 149.16 194.995 148.56 194.995 147.76V139.76C194.995 138.827 194.888 138.16 194.675 137.76C194.461 137.36 194.088 137.16 193.555 137.16C193.128 137.16 192.381 137.36 191.315 137.76H191.235C191.128 137.76 191.048 137.707 190.995 137.6C190.968 137.467 191.008 137.373 191.115 137.32L195.555 135.24C195.608 135.213 195.675 135.2 195.755 135.2C195.968 135.2 196.208 135.507 196.475 136.12C196.741 136.707 196.875 137.467 196.875 138.4V138.64C197.968 137.307 198.835 136.4 199.475 135.92C200.115 135.44 200.728 135.2 201.315 135.2ZM213.7 151.52C212.18 151.52 210.833 151.147 209.66 150.4C208.487 149.627 207.58 148.6 206.94 147.32C206.3 146.013 205.98 144.6 205.98 143.08C205.98 141.347 206.393 139.88 207.22 138.68C208.073 137.453 209.14 136.547 210.42 135.96C211.727 135.347 213.06 135.04 214.42 135.04C215.967 135.04 217.313 135.427 218.46 136.2C219.633 136.973 220.527 138 221.14 139.28C221.78 140.533 222.1 141.867 222.1 143.28C222.1 144.933 221.713 146.387 220.94 147.64C220.193 148.893 219.18 149.853 217.9 150.52C216.62 151.187 215.22 151.52 213.7 151.52ZM214.82 150.8C216.367 150.8 217.58 150.28 218.46 149.24C219.34 148.2 219.78 146.56 219.78 144.32C219.78 142.72 219.5 141.28 218.94 140C218.38 138.693 217.593 137.667 216.58 136.92C215.567 136.173 214.407 135.8 213.1 135.8C211.58 135.8 210.393 136.333 209.54 137.4C208.687 138.44 208.26 139.947 208.26 141.92C208.26 143.52 208.54 145 209.1 146.36C209.66 147.693 210.433 148.773 211.42 149.6C212.407 150.4 213.54 150.8 214.82 150.8ZM235.883 149.12C235.963 149.12 236.029 149.187 236.083 149.32C236.136 149.427 236.123 149.507 236.043 149.56C235.056 150.253 234.189 150.747 233.443 151.04C232.696 151.333 231.923 151.48 231.123 151.48C230.029 151.48 229.136 151.24 228.443 150.76C227.749 150.253 227.403 149.427 227.403 148.28V138.76C227.403 138.04 227.349 137.547 227.243 137.28C227.163 136.987 226.989 136.8 226.723 136.72C226.456 136.613 225.989 136.56 225.323 136.56C225.243 136.56 225.203 136.48 225.203 136.32C225.203 136.16 225.243 136.08 225.323 136.08C226.336 136.08 227.149 135.8 227.763 135.24C228.403 134.68 228.723 133.973 228.723 133.12C228.723 133.04 228.829 133 229.043 133C229.229 133 229.323 133.04 229.323 133.12V136.04C231.136 136.013 233.016 135.88 234.963 135.64C235.043 135.64 235.109 135.733 235.163 135.92C235.216 136.08 235.243 136.293 235.243 136.56C235.243 136.773 235.203 136.987 235.123 137.2C235.043 137.413 234.949 137.507 234.843 137.48C233.243 137.08 231.403 136.88 229.323 136.88V146.92C229.323 149.133 230.403 150.24 232.563 150.24C233.789 150.24 234.869 149.88 235.803 149.16L235.883 149.12ZM251.197 148.84C251.277 148.84 251.344 148.893 251.397 149C251.477 149.08 251.491 149.16 251.437 149.24C249.677 150.733 247.771 151.48 245.717 151.48C244.197 151.48 242.904 151.12 241.837 150.4C240.771 149.68 239.957 148.747 239.397 147.6C238.864 146.427 238.597 145.16 238.597 143.8C238.597 142.227 238.971 140.787 239.717 139.48C240.464 138.147 241.464 137.107 242.717 136.36C243.997 135.587 245.384 135.2 246.877 135.2C248.371 135.2 249.491 135.613 250.237 136.44C251.011 137.24 251.397 138.347 251.397 139.76C251.397 140.133 251.357 140.4 251.277 140.56C251.224 140.693 251.104 140.76 250.917 140.76L240.957 140.8C240.904 141.44 240.877 141.96 240.877 142.36C240.877 144.68 241.424 146.573 242.517 148.04C243.611 149.48 245.144 150.2 247.117 150.2C247.944 150.2 248.651 150.093 249.237 149.88C249.824 149.64 250.464 149.293 251.157 148.84H251.197ZM245.597 136C244.397 136 243.397 136.387 242.597 137.16C241.824 137.907 241.304 138.96 241.037 140.32L249.077 140.16C249.104 138.773 248.797 137.733 248.157 137.04C247.544 136.347 246.691 136 245.597 136ZM262.294 151.48C260.587 151.48 259.147 151.107 257.974 150.36C256.827 149.587 255.974 148.6 255.414 147.4C254.854 146.2 254.574 144.933 254.574 143.6C254.574 141.893 254.987 140.413 255.814 139.16C256.667 137.88 257.747 136.907 259.054 136.24C260.387 135.547 261.747 135.2 263.134 135.2C264.28 135.2 265.32 135.427 266.254 135.88C267.214 136.333 267.694 136.867 267.694 137.48C267.694 137.8 267.587 138.08 267.374 138.32C267.16 138.533 266.88 138.64 266.534 138.64C265.92 138.64 265.387 138.267 264.934 137.52C264.587 137.013 264.174 136.64 263.694 136.4C263.24 136.133 262.627 136 261.854 136C260.254 136 259.014 136.587 258.134 137.76C257.28 138.907 256.854 140.467 256.854 142.44C256.854 144.68 257.427 146.547 258.574 148.04C259.72 149.507 261.427 150.24 263.694 150.24C265.4 150.24 266.774 149.773 267.814 148.84H267.894C267.974 148.84 268.04 148.88 268.094 148.96C268.174 149.04 268.174 149.107 268.094 149.16C267.187 149.96 266.267 150.547 265.334 150.92C264.4 151.293 263.387 151.48 262.294 151.48ZM281.703 149.12C281.783 149.12 281.849 149.187 281.903 149.32C281.956 149.427 281.943 149.507 281.863 149.56C280.876 150.253 280.009 150.747 279.263 151.04C278.516 151.333 277.743 151.48 276.943 151.48C275.849 151.48 274.956 151.24 274.263 150.76C273.569 150.253 273.223 149.427 273.223 148.28V138.76C273.223 138.04 273.169 137.547 273.063 137.28C272.983 136.987 272.809 136.8 272.543 136.72C272.276 136.613 271.809 136.56 271.143 136.56C271.063 136.56 271.023 136.48 271.023 136.32C271.023 136.16 271.063 136.08 271.143 136.08C272.156 136.08 272.969 135.8 273.583 135.24C274.223 134.68 274.543 133.973 274.543 133.12C274.543 133.04 274.649 133 274.863 133C275.049 133 275.143 133.04 275.143 133.12V136.04C276.956 136.013 278.836 135.88 280.783 135.64C280.863 135.64 280.929 135.733 280.983 135.92C281.036 136.08 281.063 136.293 281.063 136.56C281.063 136.773 281.023 136.987 280.943 137.2C280.863 137.413 280.769 137.507 280.663 137.48C279.063 137.08 277.223 136.88 275.143 136.88V146.92C275.143 149.133 276.223 150.24 278.383 150.24C279.609 150.24 280.689 149.88 281.623 149.16L281.703 149.12ZM293.953 151C293.873 151 293.833 150.92 293.833 150.76C293.833 150.6 293.873 150.52 293.953 150.52C294.726 150.52 295.286 150.453 295.633 150.32C295.979 150.187 296.219 149.933 296.353 149.56C296.486 149.16 296.553 148.56 296.553 147.76V127C296.553 126.013 296.459 125.307 296.273 124.88C296.086 124.453 295.753 124.24 295.273 124.24C294.846 124.24 294.206 124.44 293.353 124.84H293.273C293.166 124.84 293.086 124.773 293.033 124.64C293.006 124.507 293.046 124.427 293.153 124.4L298.073 122.04C298.126 122.013 298.193 122 298.273 122C298.326 122 298.379 122.027 298.433 122.08C298.513 122.133 298.553 122.2 298.553 122.28V147.76C298.553 148.56 298.606 149.147 298.713 149.52C298.846 149.893 299.086 150.16 299.433 150.32C299.806 150.453 300.379 150.52 301.153 150.52C301.233 150.52 301.273 150.6 301.273 150.76C301.273 150.92 301.233 151 301.153 151C300.566 151 300.086 150.987 299.713 150.96L297.553 150.92L295.393 150.96C295.046 150.987 294.566 151 293.953 151ZM308.067 130.36C307.56 130.36 307.16 130.227 306.867 129.96C306.6 129.693 306.467 129.32 306.467 128.84C306.467 128.36 306.6 127.987 306.867 127.72C307.16 127.453 307.56 127.32 308.067 127.32C308.547 127.32 308.92 127.453 309.187 127.72C309.454 127.987 309.587 128.36 309.587 128.84C309.587 129.32 309.454 129.693 309.187 129.96C308.92 130.227 308.547 130.36 308.067 130.36ZM304.827 151C304.774 151 304.747 150.92 304.747 150.76C304.747 150.6 304.774 150.52 304.827 150.52C305.6 150.52 306.16 150.453 306.507 150.32C306.88 150.187 307.134 149.933 307.267 149.56C307.4 149.16 307.467 148.56 307.467 147.76V140.2C307.467 139.213 307.36 138.507 307.147 138.08C306.96 137.653 306.627 137.44 306.147 137.44C305.64 137.44 305 137.64 304.227 138.04H304.187C304.08 138.04 304 137.973 303.947 137.84C303.894 137.707 303.92 137.613 304.027 137.56L308.987 135.24L309.147 135.2C309.2 135.2 309.254 135.227 309.307 135.28C309.387 135.333 309.427 135.4 309.427 135.48C309.427 135.64 309.414 136.173 309.387 137.08C309.36 137.96 309.347 138.987 309.347 140.16V147.76C309.347 148.56 309.4 149.16 309.507 149.56C309.64 149.933 309.88 150.187 310.227 150.32C310.6 150.453 311.174 150.52 311.947 150.52C312.027 150.52 312.067 150.6 312.067 150.76C312.067 150.92 312.027 151 311.947 151C311.334 151 310.854 150.987 310.507 150.96L308.387 150.92L306.307 150.96C305.934 150.987 305.44 151 304.827 151ZM330.563 135.56C330.616 135.56 330.643 135.64 330.643 135.8C330.643 135.96 330.616 136.04 330.563 136.04C329.896 136.04 329.349 136.24 328.923 136.64C328.496 137.013 328.069 137.733 327.643 138.8L322.643 150.96C322.616 151.067 322.469 151.12 322.203 151.12C321.936 151.12 321.789 151.067 321.763 150.96L316.283 138.88C315.749 137.707 315.309 136.947 314.963 136.6C314.643 136.227 314.229 136.04 313.723 136.04C313.643 136.04 313.603 135.96 313.603 135.8C313.603 135.64 313.643 135.56 313.723 135.56C314.256 135.56 314.669 135.573 314.963 135.6L316.163 135.64L318.683 135.6C319.056 135.573 319.563 135.56 320.203 135.56C320.283 135.56 320.323 135.64 320.323 135.8C320.323 135.96 320.283 136.04 320.203 136.04C318.576 136.04 317.763 136.36 317.763 137C317.763 137.187 317.816 137.387 317.923 137.6L322.883 148.44L326.963 138.56C327.123 138.107 327.203 137.747 327.203 137.48C327.203 136.973 326.936 136.613 326.403 136.4C325.896 136.16 325.056 136.04 323.883 136.04C323.829 136.04 323.803 135.96 323.803 135.8C323.803 135.64 323.829 135.56 323.883 135.56C324.603 135.56 325.149 135.573 325.523 135.6L327.923 135.64L329.323 135.6C329.589 135.573 330.003 135.56 330.563 135.56ZM344.947 148.84C345.027 148.84 345.094 148.893 345.147 149C345.227 149.08 345.241 149.16 345.187 149.24C343.427 150.733 341.521 151.48 339.467 151.48C337.947 151.48 336.654 151.12 335.587 150.4C334.521 149.68 333.707 148.747 333.147 147.6C332.614 146.427 332.347 145.16 332.347 143.8C332.347 142.227 332.721 140.787 333.467 139.48C334.214 138.147 335.214 137.107 336.467 136.36C337.747 135.587 339.134 135.2 340.627 135.2C342.121 135.2 343.241 135.613 343.987 136.44C344.761 137.24 345.147 138.347 345.147 139.76C345.147 140.133 345.107 140.4 345.027 140.56C344.974 140.693 344.854 140.76 344.667 140.76L334.707 140.8C334.654 141.44 334.627 141.96 334.627 142.36C334.627 144.68 335.174 146.573 336.267 148.04C337.361 149.48 338.894 150.2 340.867 150.2C341.694 150.2 342.401 150.093 342.987 149.88C343.574 149.64 344.214 149.293 344.907 148.84H344.947ZM339.347 136C338.147 136 337.147 136.387 336.347 137.16C335.574 137.907 335.054 138.96 334.787 140.32L342.827 140.16C342.854 138.773 342.547 137.733 341.907 137.04C341.294 136.347 340.441 136 339.347 136ZM350.918 138.12C350.918 139.107 351.225 139.88 351.838 140.44C352.451 140.973 353.385 141.547 354.638 142.16C355.545 142.613 356.265 143.013 356.798 143.36C357.331 143.707 357.785 144.16 358.158 144.72C358.531 145.253 358.718 145.907 358.718 146.68C358.718 148.013 358.211 149.147 357.198 150.08C356.211 150.987 354.851 151.44 353.118 151.44C351.705 151.44 350.451 151.027 349.358 150.2C349.198 150.093 349.118 149.933 349.118 149.72L349.038 146.84C349.038 146.76 349.105 146.72 349.238 146.72C349.398 146.693 349.491 146.72 349.518 146.8C350.025 148.133 350.665 149.12 351.438 149.76C352.238 150.373 353.185 150.68 354.278 150.68C355.185 150.68 355.878 150.48 356.358 150.08C356.838 149.68 357.078 149.093 357.078 148.32C357.078 147.547 356.905 146.907 356.558 146.4C356.238 145.867 355.825 145.44 355.318 145.12C354.838 144.8 354.171 144.44 353.318 144.04C352.438 143.613 351.731 143.24 351.198 142.92C350.691 142.573 350.251 142.12 349.878 141.56C349.531 141 349.358 140.307 349.358 139.48C349.358 138.067 349.891 136.973 350.958 136.2C352.025 135.427 353.278 135.04 354.718 135.04C355.705 135.04 356.651 135.24 357.558 135.64C357.718 135.72 357.811 135.787 357.838 135.84C357.891 135.893 357.918 135.973 357.918 136.08C357.918 136.587 357.905 136.987 357.878 137.28L357.838 138.84C357.838 138.893 357.758 138.92 357.598 138.92C357.438 138.92 357.358 138.893 357.358 138.84C357.358 137.987 356.918 137.28 356.038 136.72C355.158 136.133 354.225 135.84 353.238 135.84C352.518 135.84 351.945 136.04 351.518 136.44C351.118 136.813 350.918 137.373 350.918 138.12ZM386.529 148.84C386.635 148.84 386.702 148.907 386.729 149.04C386.755 149.147 386.715 149.227 386.609 149.28L382.489 151.24C382.382 151.293 382.275 151.32 382.169 151.32C381.875 151.32 381.609 151.093 381.369 150.64C381.129 150.16 380.982 149.52 380.929 148.72L378.729 150.08C378.062 150.507 377.475 150.813 376.969 151C376.462 151.187 375.942 151.28 375.409 151.28C374.475 151.28 373.729 151.013 373.169 150.48C372.635 149.947 372.369 149.307 372.369 148.56C372.369 147.813 372.662 147.147 373.249 146.56C373.835 145.947 374.849 145.373 376.289 144.84L380.889 143.12V140.32C380.889 137.387 379.982 135.92 378.169 135.92C377.262 135.92 376.555 136.213 376.049 136.8C375.542 137.36 375.195 138.027 375.009 138.8C374.902 139.28 374.769 139.653 374.609 139.92C374.475 140.16 374.182 140.28 373.729 140.28C373.355 140.28 373.062 140.173 372.849 139.96C372.635 139.72 372.529 139.453 372.529 139.16C372.529 138.573 372.915 137.973 373.689 137.36C374.489 136.72 375.449 136.2 376.569 135.8C377.689 135.373 378.689 135.16 379.569 135.16C380.635 135.16 381.422 135.507 381.929 136.2C382.462 136.893 382.729 137.867 382.729 139.12V146.68C382.729 147.667 382.835 148.373 383.049 148.8C383.289 149.227 383.689 149.44 384.249 149.44C384.755 149.44 385.489 149.24 386.449 148.84H386.529ZM380.889 148.16V148.04V143.68L376.649 145.28C375.875 145.6 375.342 145.947 375.049 146.32C374.755 146.693 374.609 147.133 374.609 147.64C374.609 148.28 374.809 148.827 375.209 149.28C375.609 149.733 376.169 149.96 376.889 149.96C377.475 149.96 378.169 149.733 378.969 149.28L380.889 148.16ZM406.407 150.52C406.487 150.52 406.527 150.6 406.527 150.76C406.527 150.92 406.487 151 406.407 151C405.793 151 405.313 150.987 404.967 150.96L402.887 150.92L400.767 150.96C400.42 150.987 399.94 151 399.327 151C399.247 151 399.207 150.92 399.207 150.76C399.207 150.6 399.247 150.52 399.327 150.52C400.1 150.52 400.66 150.453 401.007 150.32C401.353 150.187 401.593 149.933 401.727 149.56C401.86 149.16 401.927 148.56 401.927 147.76V141.08C401.927 139.453 401.62 138.267 401.007 137.52C400.393 136.773 399.433 136.4 398.127 136.4C397.273 136.4 396.393 136.653 395.487 137.16C394.607 137.64 393.793 138.307 393.047 139.16V147.76C393.047 148.56 393.1 149.16 393.207 149.56C393.34 149.933 393.58 150.187 393.927 150.32C394.3 150.453 394.873 150.52 395.647 150.52C395.727 150.52 395.767 150.6 395.767 150.76C395.767 150.92 395.727 151 395.647 151C395.033 151 394.553 150.987 394.207 150.96L392.127 150.92L390.007 150.96C389.66 150.987 389.18 151 388.567 151C388.487 151 388.447 150.92 388.447 150.76C388.447 150.6 388.487 150.52 388.567 150.52C389.34 150.52 389.9 150.453 390.247 150.32C390.593 150.187 390.833 149.933 390.967 149.56C391.1 149.16 391.167 148.56 391.167 147.76V139.76C391.167 138.827 391.06 138.16 390.847 137.76C390.633 137.36 390.26 137.16 389.727 137.16C389.3 137.16 388.553 137.36 387.487 137.76H387.407C387.3 137.76 387.22 137.707 387.167 137.6C387.14 137.467 387.18 137.373 387.287 137.32L391.727 135.24C391.78 135.213 391.847 135.2 391.927 135.2C392.14 135.2 392.38 135.507 392.647 136.12C392.913 136.707 393.047 137.467 393.047 138.4V138.56C394.113 137.333 395.14 136.44 396.127 135.88C397.113 135.32 398.14 135.04 399.207 135.04C400.7 135.04 401.833 135.44 402.607 136.24C403.407 137.04 403.807 138.253 403.807 139.88V147.76C403.807 148.56 403.86 149.16 403.967 149.56C404.1 149.933 404.34 150.187 404.687 150.32C405.06 150.453 405.633 150.52 406.407 150.52ZM427.593 148.8C427.699 148.8 427.766 148.867 427.793 149C427.846 149.133 427.819 149.227 427.713 149.28L423.593 151.24C423.486 151.293 423.379 151.32 423.273 151.32C422.899 151.32 422.579 151.027 422.313 150.44C422.073 149.827 421.939 148.973 421.913 147.88C420.899 148.973 419.833 149.853 418.713 150.52C417.619 151.187 416.393 151.52 415.033 151.52C413.913 151.52 412.873 151.2 411.913 150.56C410.979 149.92 410.219 149.027 409.633 147.88C409.073 146.707 408.793 145.387 408.793 143.92C408.793 142.053 409.259 140.453 410.193 139.12C411.126 137.76 412.299 136.747 413.713 136.08C415.126 135.387 416.526 135.04 417.913 135.04C419.326 135.04 420.659 135.453 421.913 136.28V127.04C421.913 126.053 421.806 125.347 421.593 124.92C421.406 124.493 421.059 124.28 420.553 124.28C420.339 124.28 420.059 124.347 419.713 124.48C419.393 124.587 419.033 124.72 418.633 124.88H418.553C418.446 124.88 418.379 124.827 418.353 124.72C418.326 124.587 418.353 124.493 418.433 124.44L423.313 122.04C423.366 122.013 423.433 122 423.513 122C423.566 122 423.619 122.027 423.673 122.08C423.753 122.133 423.793 122.2 423.793 122.28V146.68C423.793 147.667 423.899 148.373 424.113 148.8C424.353 149.227 424.753 149.44 425.313 149.44C426.139 149.44 426.873 149.24 427.512 148.84L427.593 148.8ZM416.433 150.2C417.446 150.2 418.393 149.947 419.273 149.44C420.153 148.907 421.033 148.173 421.913 147.24V138.76C421.219 137.827 420.459 137.107 419.633 136.6C418.833 136.067 417.859 135.8 416.713 135.8C414.979 135.8 413.593 136.413 412.553 137.64C411.513 138.867 410.993 140.573 410.993 142.76C410.993 144.227 411.233 145.52 411.713 146.64C412.193 147.76 412.846 148.64 413.673 149.28C414.499 149.893 415.419 150.2 416.433 150.2ZM453.755 148.84C453.862 148.84 453.929 148.907 453.955 149.04C453.982 149.147 453.942 149.227 453.835 149.28L449.715 151.24C449.609 151.293 449.502 151.32 449.395 151.32C449.102 151.32 448.835 151.093 448.595 150.64C448.355 150.16 448.209 149.52 448.155 148.72L445.955 150.08C445.289 150.507 444.702 150.813 444.195 151C443.689 151.187 443.169 151.28 442.635 151.28C441.702 151.28 440.955 151.013 440.395 150.48C439.862 149.947 439.595 149.307 439.595 148.56C439.595 147.813 439.889 147.147 440.475 146.56C441.062 145.947 442.075 145.373 443.515 144.84L448.115 143.12V140.32C448.115 137.387 447.209 135.92 445.395 135.92C444.489 135.92 443.782 136.213 443.275 136.8C442.769 137.36 442.422 138.027 442.235 138.8C442.129 139.28 441.995 139.653 441.835 139.92C441.702 140.16 441.409 140.28 440.955 140.28C440.582 140.28 440.289 140.173 440.075 139.96C439.862 139.72 439.755 139.453 439.755 139.16C439.755 138.573 440.142 137.973 440.915 137.36C441.715 136.72 442.675 136.2 443.795 135.8C444.915 135.373 445.915 135.16 446.795 135.16C447.862 135.16 448.649 135.507 449.155 136.2C449.689 136.893 449.955 137.867 449.955 139.12V146.68C449.955 147.667 450.062 148.373 450.275 148.8C450.515 149.227 450.915 149.44 451.475 149.44C451.982 149.44 452.715 149.24 453.675 148.84H453.755ZM448.115 148.16V148.04V143.68L443.875 145.28C443.102 145.6 442.569 145.947 442.275 146.32C441.982 146.693 441.835 147.133 441.835 147.64C441.835 148.28 442.035 148.827 442.435 149.28C442.835 149.733 443.395 149.96 444.115 149.96C444.702 149.96 445.395 149.733 446.195 149.28L448.115 148.16ZM457.793 138.12C457.793 139.107 458.1 139.88 458.713 140.44C459.326 140.973 460.26 141.547 461.513 142.16C462.42 142.613 463.14 143.013 463.673 143.36C464.206 143.707 464.66 144.16 465.033 144.72C465.406 145.253 465.593 145.907 465.593 146.68C465.593 148.013 465.086 149.147 464.073 150.08C463.086 150.987 461.726 151.44 459.993 151.44C458.58 151.44 457.326 151.027 456.233 150.2C456.073 150.093 455.993 149.933 455.993 149.72L455.913 146.84C455.913 146.76 455.98 146.72 456.113 146.72C456.273 146.693 456.366 146.72 456.393 146.8C456.9 148.133 457.54 149.12 458.313 149.76C459.113 150.373 460.06 150.68 461.153 150.68C462.06 150.68 462.753 150.48 463.233 150.08C463.713 149.68 463.953 149.093 463.953 148.32C463.953 147.547 463.78 146.907 463.433 146.4C463.113 145.867 462.7 145.44 462.193 145.12C461.713 144.8 461.046 144.44 460.193 144.04C459.313 143.613 458.606 143.24 458.073 142.92C457.566 142.573 457.126 142.12 456.753 141.56C456.406 141 456.233 140.307 456.233 139.48C456.233 138.067 456.766 136.973 457.833 136.2C458.9 135.427 460.153 135.04 461.593 135.04C462.58 135.04 463.526 135.24 464.433 135.64C464.593 135.72 464.686 135.787 464.713 135.84C464.766 135.893 464.793 135.973 464.793 136.08C464.793 136.587 464.78 136.987 464.753 137.28L464.713 138.84C464.713 138.893 464.633 138.92 464.473 138.92C464.313 138.92 464.233 138.893 464.233 138.84C464.233 137.987 463.793 137.28 462.913 136.72C462.033 136.133 461.1 135.84 460.113 135.84C459.393 135.84 458.82 136.04 458.393 136.44C457.993 136.813 457.793 137.373 457.793 138.12ZM471.074 138.12C471.074 139.107 471.381 139.88 471.994 140.44C472.608 140.973 473.541 141.547 474.794 142.16C475.701 142.613 476.421 143.013 476.954 143.36C477.488 143.707 477.941 144.16 478.314 144.72C478.688 145.253 478.874 145.907 478.874 146.68C478.874 148.013 478.368 149.147 477.354 150.08C476.368 150.987 475.008 151.44 473.274 151.44C471.861 151.44 470.608 151.027 469.514 150.2C469.354 150.093 469.274 149.933 469.274 149.72L469.194 146.84C469.194 146.76 469.261 146.72 469.394 146.72C469.554 146.693 469.648 146.72 469.674 146.8C470.181 148.133 470.821 149.12 471.594 149.76C472.394 150.373 473.341 150.68 474.434 150.68C475.341 150.68 476.034 150.48 476.514 150.08C476.994 149.68 477.234 149.093 477.234 148.32C477.234 147.547 477.061 146.907 476.714 146.4C476.394 145.867 475.981 145.44 475.474 145.12C474.994 144.8 474.328 144.44 473.474 144.04C472.594 143.613 471.888 143.24 471.354 142.92C470.848 142.573 470.408 142.12 470.034 141.56C469.688 141 469.514 140.307 469.514 139.48C469.514 138.067 470.048 136.973 471.114 136.2C472.181 135.427 473.434 135.04 474.874 135.04C475.861 135.04 476.808 135.24 477.714 135.64C477.874 135.72 477.968 135.787 477.994 135.84C478.048 135.893 478.074 135.973 478.074 136.08C478.074 136.587 478.061 136.987 478.034 137.28L477.994 138.84C477.994 138.893 477.914 138.92 477.754 138.92C477.594 138.92 477.514 138.893 477.514 138.84C477.514 137.987 477.074 137.28 476.194 136.72C475.314 136.133 474.381 135.84 473.394 135.84C472.674 135.84 472.101 136.04 471.674 136.44C471.274 136.813 471.074 137.373 471.074 138.12ZM494.83 148.84C494.91 148.84 494.977 148.893 495.03 149C495.11 149.08 495.123 149.16 495.07 149.24C493.31 150.733 491.403 151.48 489.35 151.48C487.83 151.48 486.537 151.12 485.47 150.4C484.403 149.68 483.59 148.747 483.03 147.6C482.497 146.427 482.23 145.16 482.23 143.8C482.23 142.227 482.603 140.787 483.35 139.48C484.097 138.147 485.097 137.107 486.35 136.36C487.63 135.587 489.017 135.2 490.51 135.2C492.003 135.2 493.123 135.613 493.87 136.44C494.643 137.24 495.03 138.347 495.03 139.76C495.03 140.133 494.99 140.4 494.91 140.56C494.857 140.693 494.737 140.76 494.55 140.76L484.59 140.8C484.537 141.44 484.51 141.96 484.51 142.36C484.51 144.68 485.057 146.573 486.15 148.04C487.243 149.48 488.777 150.2 490.75 150.2C491.577 150.2 492.283 150.093 492.87 149.88C493.457 149.64 494.097 149.293 494.79 148.84H494.83ZM489.23 136C488.03 136 487.03 136.387 486.23 137.16C485.457 137.907 484.937 138.96 484.67 140.32L492.71 140.16C492.737 138.773 492.43 137.733 491.79 137.04C491.177 136.347 490.323 136 489.23 136ZM509.281 149.12C509.361 149.12 509.428 149.187 509.481 149.32C509.534 149.427 509.521 149.507 509.441 149.56C508.454 150.253 507.588 150.747 506.841 151.04C506.094 151.333 505.321 151.48 504.521 151.48C503.428 151.48 502.534 151.24 501.841 150.76C501.148 150.253 500.801 149.427 500.801 148.28V138.76C500.801 138.04 500.748 137.547 500.641 137.28C500.561 136.987 500.388 136.8 500.121 136.72C499.854 136.613 499.388 136.56 498.721 136.56C498.641 136.56 498.601 136.48 498.601 136.32C498.601 136.16 498.641 136.08 498.721 136.08C499.734 136.08 500.548 135.8 501.161 135.24C501.801 134.68 502.121 133.973 502.121 133.12C502.121 133.04 502.228 133 502.441 133C502.628 133 502.721 133.04 502.721 133.12V136.04C504.534 136.013 506.414 135.88 508.361 135.64C508.441 135.64 508.508 135.733 508.561 135.92C508.614 136.08 508.641 136.293 508.641 136.56C508.641 136.773 508.601 136.987 508.521 137.2C508.441 137.413 508.348 137.507 508.241 137.48C506.641 137.08 504.801 136.88 502.721 136.88V146.92C502.721 149.133 503.801 150.24 505.961 150.24C507.188 150.24 508.268 149.88 509.201 149.16L509.281 149.12ZM514.356 138.12C514.356 139.107 514.662 139.88 515.276 140.44C515.889 140.973 516.822 141.547 518.076 142.16C518.982 142.613 519.702 143.013 520.236 143.36C520.769 143.707 521.222 144.16 521.596 144.72C521.969 145.253 522.156 145.907 522.156 146.68C522.156 148.013 521.649 149.147 520.636 150.08C519.649 150.987 518.289 151.44 516.556 151.44C515.142 151.44 513.889 151.027 512.796 150.2C512.636 150.093 512.556 149.933 512.556 149.72L512.476 146.84C512.476 146.76 512.542 146.72 512.676 146.72C512.836 146.693 512.929 146.72 512.956 146.8C513.462 148.133 514.102 149.12 514.876 149.76C515.676 150.373 516.622 150.68 517.716 150.68C518.622 150.68 519.316 150.48 519.796 150.08C520.276 149.68 520.516 149.093 520.516 148.32C520.516 147.547 520.342 146.907 519.996 146.4C519.676 145.867 519.262 145.44 518.756 145.12C518.276 144.8 517.609 144.44 516.756 144.04C515.876 143.613 515.169 143.24 514.636 142.92C514.129 142.573 513.689 142.12 513.316 141.56C512.969 141 512.796 140.307 512.796 139.48C512.796 138.067 513.329 136.973 514.396 136.2C515.462 135.427 516.716 135.04 518.156 135.04C519.142 135.04 520.089 135.24 520.996 135.64C521.156 135.72 521.249 135.787 521.276 135.84C521.329 135.893 521.356 135.973 521.356 136.08C521.356 136.587 521.342 136.987 521.316 137.28L521.276 138.84C521.276 138.893 521.196 138.92 521.036 138.92C520.876 138.92 520.796 138.893 520.796 138.84C520.796 137.987 520.356 137.28 519.476 136.72C518.596 136.133 517.662 135.84 516.676 135.84C515.956 135.84 515.382 136.04 514.956 136.44C514.556 136.813 514.356 137.373 514.356 138.12Z" fill="#A69B75"/>
<g filter="url(#filter0_f)">
<line x1="326" y1="100.259" x2="546" y2="100.259" stroke="#A69B75"/>
</g>
<g filter="url(#filter1_f)">
<line x1="77" y1="100.5" x2="297" y2="100.5" stroke="#A69B75"/>
</g>
<path d="M303.488 99.6783L301.545 90.7585" stroke="#A69B75" stroke-linecap="round" stroke-linejoin="round"/>
<line x1="0.5" y1="-0.5" x2="9.61473" y2="-0.49999" transform="matrix(0.202119 -0.979361 -0.999977 -0.00675164 319.045 100.165)" stroke="#A69B75" stroke-linecap="round" stroke-linejoin="round"/>
<path d="M315.045 93.7585L311.545 87.2586" stroke="#A69B75" stroke-linecap="round" stroke-linejoin="round"/>
<path d="M315.045 93.7585L321.438 90.6529" stroke="#A69B75" stroke-linecap="round" stroke-linejoin="round"/>
<path d="M307.958 93.7585L311.458 87.2586" stroke="#A69B75" stroke-linecap="round" stroke-linejoin="round"/>
<path d="M307.958 93.7585L301.564 90.6529" stroke="#A69B75" stroke-linecap="round" stroke-linejoin="round"/>
<line x1="319.545" y1="99.7585" x2="303.545" y2="99.7585" stroke="#A69B75" stroke-linecap="round" stroke-linejoin="round"/>
<defs>
<filter id="filter0_f" x="325.75" y="99.5085" width="220.5" height="1.5" filterUnits="userSpaceOnUse" color-interpolation-filters="sRGB">
<feFlood flood-opacity="0" result="BackgroundImageFix"/>
<feBlend mode="normal" in="SourceGraphic" in2="BackgroundImageFix" result="shape"/>
<feGaussianBlur stdDeviation="0.125" result="effect1_foregroundBlur"/>
</filter>
<filter id="filter1_f" x="76.75" y="99.75" width="220.5" height="1.5" filterUnits="userSpaceOnUse" color-interpolation-filters="sRGB">
<feFlood flood-opacity="0" result="BackgroundImageFix"/>
<feBlend mode="normal" in="SourceGraphic" in2="BackgroundImageFix" result="shape"/>
<feGaussianBlur stdDeviation="0.125" result="effect1_foregroundBlur"/>
</filter>
</defs>
</svg>
