<svg width="199" height="60" viewBox="0 0 199 60" fill="none" xmlns="http://www.w3.org/2000/svg">
<rect width="199" height="60" rx="10" fill="#3B3D30"/>
<g filter="url(#filter0_f)">
<path d="M60.397 35.497C61.321 35.497 62.252 35.707 63.19 36.127L63.001 37.135L62.791 37.198C62.399 36.946 61.979 36.757 61.531 36.631C61.097 36.491 60.677 36.421 60.271 36.421C59.683 36.421 59.165 36.547 58.717 36.799C58.283 37.037 57.947 37.352 57.709 37.744C57.485 38.136 57.373 38.535 57.373 38.941C57.373 39.375 57.499 39.753 57.751 40.075C58.003 40.397 58.311 40.677 58.675 40.915C59.053 41.139 59.557 41.398 60.187 41.692C60.929 42.056 61.524 42.385 61.972 42.679C62.434 42.959 62.826 43.33 63.148 43.792C63.47 44.24 63.631 44.786 63.631 45.43C63.631 46.088 63.449 46.704 63.085 47.278C62.735 47.838 62.231 48.286 61.573 48.622C60.929 48.944 60.201 49.105 59.389 49.105C58.815 49.105 58.227 49.028 57.625 48.874C57.023 48.706 56.477 48.468 55.987 48.16L56.113 47.047L56.26 46.984C56.722 47.39 57.24 47.698 57.814 47.908C58.388 48.104 58.941 48.202 59.473 48.202C60.089 48.202 60.628 48.076 61.09 47.824C61.552 47.572 61.909 47.243 62.161 46.837C62.413 46.431 62.539 46.004 62.539 45.556C62.539 45.094 62.406 44.695 62.14 44.359C61.888 44.009 61.573 43.722 61.195 43.498C60.831 43.274 60.32 43.001 59.662 42.679C58.934 42.329 58.346 42.014 57.898 41.734C57.45 41.454 57.072 41.09 56.764 40.642C56.456 40.194 56.302 39.655 56.302 39.025C56.302 38.381 56.47 37.793 56.806 37.261C57.156 36.715 57.639 36.288 58.255 35.98C58.885 35.658 59.599 35.497 60.397 35.497ZM74.3947 49H73.4227L73.1707 48.028L72.3067 45.544L69.5707 45.508L67.1047 45.544L66.1687 47.992L65.8987 49H64.9267L69.3187 37.498H70.3807L74.3947 49ZM72.0187 44.716L69.8767 38.578H69.7687L67.4287 44.716L69.6787 44.734L72.0187 44.716ZM77.6236 38.326L77.5876 42.88L79.6936 42.898L81.5296 42.862L81.6196 42.97L81.5116 43.69L77.5876 43.672L77.5696 45.454L77.6056 49H76.6696L76.7236 45.508L76.6696 37.498H82.4296L82.5196 37.606L82.4116 38.362L79.8376 38.308L77.6236 38.326ZM91.7619 49H90.7899L90.5379 48.028L89.6739 45.544L86.9379 45.508L84.4719 45.544L83.5359 47.992L83.2659 49H82.2939L86.6859 37.498H87.7479L91.7619 49ZM89.3859 44.716L87.2439 38.578H87.1359L84.7959 44.716L87.0459 44.734L89.3859 44.716ZM97.9968 44.284C98.8968 45.736 99.9348 47.236 101.111 48.784V48.91C100.919 49.006 100.649 49.084 100.301 49.144L100.157 49.072C98.9928 47.404 98.0088 45.88 97.2048 44.5H94.9368V45.454L94.9728 49H94.0368L94.0908 45.508L94.0368 37.498L97.0968 37.48C98.1888 37.48 99.0288 37.756 99.6168 38.308C100.205 38.86 100.499 39.658 100.499 40.702C100.499 41.542 100.283 42.274 99.8508 42.898C99.4188 43.51 98.8008 43.972 97.9968 44.284ZM94.9548 43.672L97.2948 43.708C98.0268 43.504 98.5848 43.156 98.9688 42.664C99.3528 42.16 99.5448 41.524 99.5448 40.756C99.5448 39.952 99.3228 39.346 98.8788 38.938C98.4468 38.518 97.8168 38.296 96.9888 38.272L94.9908 38.308L94.9548 43.672ZM104.622 45.454L104.658 49H103.722L103.776 45.508L103.722 37.498H104.676L104.622 45.454ZM114.295 35.497C115.219 35.497 116.15 35.707 117.088 36.127L116.899 37.135L116.689 37.198C116.297 36.946 115.877 36.757 115.429 36.631C114.995 36.491 114.575 36.421 114.169 36.421C113.581 36.421 113.063 36.547 112.615 36.799C112.181 37.037 111.845 37.352 111.607 37.744C111.383 38.136 111.271 38.535 111.271 38.941C111.271 39.375 111.397 39.753 111.649 40.075C111.901 40.397 112.209 40.677 112.573 40.915C112.951 41.139 113.455 41.398 114.085 41.692C114.827 42.056 115.422 42.385 115.87 42.679C116.332 42.959 116.724 43.33 117.046 43.792C117.368 44.24 117.529 44.786 117.529 45.43C117.529 46.088 117.347 46.704 116.983 47.278C116.633 47.838 116.129 48.286 115.471 48.622C114.827 48.944 114.099 49.105 113.287 49.105C112.713 49.105 112.125 49.028 111.523 48.874C110.921 48.706 110.375 48.468 109.885 48.16L110.011 47.047L110.158 46.984C110.62 47.39 111.138 47.698 111.712 47.908C112.286 48.104 112.839 48.202 113.371 48.202C113.987 48.202 114.526 48.076 114.988 47.824C115.45 47.572 115.807 47.243 116.059 46.837C116.311 46.431 116.437 46.004 116.437 45.556C116.437 45.094 116.304 44.695 116.038 44.359C115.786 44.009 115.471 43.722 115.093 43.498C114.729 43.274 114.218 43.001 113.56 42.679C112.832 42.329 112.244 42.014 111.796 41.734C111.348 41.454 110.97 41.09 110.662 40.642C110.354 40.194 110.2 39.655 110.2 39.025C110.2 38.381 110.368 37.793 110.704 37.261C111.054 36.715 111.537 36.288 112.153 35.98C112.783 35.658 113.497 35.497 114.295 35.497ZM126.511 48.262L126.421 49H120.355L120.409 45.508L120.355 37.498H126.403L126.475 37.606L126.367 38.344L123.685 38.308L121.309 38.326L121.273 42.664L123.523 42.682L125.449 42.664L125.521 42.754L125.431 43.492L121.273 43.474L121.255 45.454L121.291 48.19L123.613 48.208L126.439 48.154L126.511 48.262ZM132.382 37.408C132.97 37.408 133.534 37.492 134.074 37.66C134.614 37.816 135.1 38.05 135.532 38.362L135.334 39.208L135.19 39.226C134.35 38.554 133.402 38.218 132.346 38.218C131.062 38.218 130.078 38.65 129.394 39.514C128.722 40.378 128.386 41.626 128.386 43.258C128.386 44.89 128.716 46.138 129.376 47.002C130.036 47.854 130.984 48.28 132.22 48.28C132.772 48.28 133.318 48.184 133.858 47.992C134.398 47.788 134.902 47.506 135.37 47.146L135.514 47.2L135.442 48.082C134.41 48.766 133.318 49.108 132.166 49.108C130.654 49.108 129.484 48.61 128.656 47.614C127.84 46.606 127.432 45.172 127.432 43.312C127.432 41.428 127.858 39.976 128.71 38.956C129.574 37.924 130.798 37.408 132.382 37.408ZM145.765 43.366V44.752C145.789 46.132 145.435 47.2 144.703 47.956C143.971 48.712 142.927 49.09 141.571 49.09C140.251 49.09 139.237 48.724 138.529 47.992C137.833 47.26 137.491 46.204 137.503 44.824V37.498H138.421L138.385 44.734C138.373 45.886 138.643 46.762 139.195 47.362C139.747 47.962 140.557 48.262 141.625 48.262C142.693 48.262 143.503 47.968 144.055 47.38C144.619 46.792 144.895 45.94 144.883 44.824L144.847 37.498H145.783L145.765 43.366ZM152.985 44.284C153.885 45.736 154.923 47.236 156.099 48.784V48.91C155.907 49.006 155.637 49.084 155.289 49.144L155.145 49.072C153.981 47.404 152.997 45.88 152.193 44.5H149.925V45.454L149.961 49H149.025L149.079 45.508L149.025 37.498L152.085 37.48C153.177 37.48 154.017 37.756 154.605 38.308C155.193 38.86 155.487 39.658 155.487 40.702C155.487 41.542 155.271 42.274 154.839 42.898C154.407 43.51 153.789 43.972 152.985 44.284ZM149.943 43.672L152.283 43.708C153.015 43.504 153.573 43.156 153.957 42.664C154.341 42.16 154.533 41.524 154.533 40.756C154.533 39.952 154.311 39.346 153.867 38.938C153.435 38.518 152.805 38.296 151.977 38.272L149.979 38.308L149.943 43.672ZM159.611 45.454L159.647 49H158.711L158.765 45.508L158.711 37.498H159.665L159.611 45.454ZM169.444 37.606L169.354 38.326L167.428 38.272H166.024L165.97 45.454L166.006 49H165.07L165.124 45.508L165.07 38.272H163.666L161.704 38.326L161.632 38.218L161.722 37.498H169.354L169.444 37.606ZM174.761 45.562L174.797 49H173.861L173.897 45.562L173.879 44.752L170.243 37.498H171.287L171.503 38.056L174.311 43.636H174.419L177.479 38.074L177.713 37.498H178.739L174.779 44.716L174.761 45.562Z" fill="#CFC590"/>
</g>
<g filter="url(#filter1_f)">
<path d="M42.136 44.808C42.936 46.0987 43.8587 47.432 44.904 48.808V48.92C44.7333 49.0053 44.4933 49.0747 44.184 49.128L44.056 49.064C43.0213 47.5813 42.1467 46.2267 41.432 45H39.416V45.848L39.448 49H38.616L38.664 45.896L38.616 38.776L41.336 38.76C42.3067 38.76 43.0533 39.0053 43.576 39.496C44.0987 39.9867 44.36 40.696 44.36 41.624C44.36 42.3707 44.168 43.0213 43.784 43.576C43.4 44.12 42.8507 44.5307 42.136 44.808ZM39.432 44.264L41.512 44.296C42.1627 44.1147 42.6587 43.8053 43 43.368C43.3413 42.92 43.512 42.3547 43.512 41.672C43.512 40.9573 43.3147 40.4187 42.92 40.056C42.536 39.6827 41.976 39.4853 41.24 39.464L39.464 39.496L39.432 44.264Z" fill="#CFC590"/>
</g>
<g filter="url(#filter2_f)">
<path d="M35.312 47.13C35.312 47.5993 35.3707 47.944 35.488 48.164C35.6053 48.3693 35.84 48.516 36.192 48.604C36.544 48.692 37.094 48.736 37.842 48.736C37.886 48.736 37.908 48.78 37.908 48.868C37.908 48.956 37.886 49 37.842 49C37.2407 49 36.7713 48.9927 36.434 48.978L34.52 48.956L33.024 48.978C32.76 48.9927 32.386 49 31.902 49C31.858 49 31.836 48.956 31.836 48.868C31.836 48.78 31.858 48.736 31.902 48.736C32.43 48.736 32.8187 48.6993 33.068 48.626C33.3173 48.5527 33.486 48.4133 33.574 48.208C33.662 47.988 33.706 47.658 33.706 47.218V37.032C33.706 36.592 33.662 36.2693 33.574 36.064C33.486 35.8587 33.3173 35.7193 33.068 35.646C32.8187 35.558 32.43 35.514 31.902 35.514C31.858 35.514 31.836 35.47 31.836 35.382C31.836 35.294 31.858 35.25 31.902 35.25L33.024 35.272C33.64 35.3013 34.1313 35.316 34.498 35.316C34.85 35.316 35.268 35.294 35.752 35.25C35.928 35.25 36.1993 35.2427 36.566 35.228C36.9473 35.1987 37.2773 35.184 37.556 35.184C38.92 35.184 40.0127 35.492 40.834 36.108C41.67 36.7093 42.088 37.626 42.088 38.858C42.088 39.8113 41.846 40.618 41.362 41.278C40.8927 41.938 40.284 42.4293 39.536 42.752C38.8027 43.0747 38.04 43.236 37.248 43.236C36.8227 43.236 36.4633 43.1993 36.17 43.126C36.1407 43.126 36.126 43.0893 36.126 43.016C36.126 42.972 36.1333 42.928 36.148 42.884C36.1773 42.84 36.2067 42.8253 36.236 42.84C36.456 42.8987 36.7127 42.928 37.006 42.928C37.9153 42.928 38.6853 42.6127 39.316 41.982C39.9467 41.3513 40.262 40.442 40.262 39.254C40.262 38.0953 39.9613 37.186 39.36 36.526C38.7587 35.866 37.9667 35.536 36.984 35.536C36.5 35.536 36.148 35.5727 35.928 35.646C35.708 35.7047 35.5467 35.844 35.444 36.064C35.356 36.2693 35.312 36.6067 35.312 37.076V47.13Z" fill="#CFC590"/>
</g>
<g filter="url(#filter3_f)">
<line x1="121.27" y1="26.1666" x2="191.27" y2="26.1666" stroke="#CFC590"/>
</g>
<g filter="url(#filter4_f)">
<line x1="18.7697" y1="26.1666" x2="88.7697" y2="26.1666" stroke="#CFC590"/>
</g>
<path d="M96.1017 25.4664L93.9291 15.5556" stroke="#CFC590" stroke-linecap="round" stroke-linejoin="round"/>
<line x1="0.5" y1="-0.5" x2="10.7414" y2="-0.499989" transform="matrix(0.203317 -0.979113 -0.999977 -0.00671018 113.494 26.0067)" stroke="#CFC590" stroke-linecap="round" stroke-linejoin="round"/>
<path d="M109.022 18.889L105.109 11.6669" stroke="#CFC590" stroke-linecap="round" stroke-linejoin="round"/>
<path d="M109.022 18.8889L116.17 15.4382" stroke="#CFC590" stroke-linecap="round" stroke-linejoin="round"/>
<path d="M101.099 18.889L105.012 11.6669" stroke="#CFC590" stroke-linecap="round" stroke-linejoin="round"/>
<path d="M101.099 18.8889L93.9509 15.4382" stroke="#CFC590" stroke-linecap="round" stroke-linejoin="round"/>
<line x1="114.112" y1="25.5" x2="96.1061" y2="25.5" stroke="#CFC590" stroke-linecap="round" stroke-linejoin="round"/>
<defs>
<filter id="filter0_f" x="55.737" y="35.247" width="123.252" height="14.147" filterUnits="userSpaceOnUse" color-interpolation-filters="sRGB">
<feFlood flood-opacity="0" result="BackgroundImageFix"/>
<feBlend mode="normal" in="SourceGraphic" in2="BackgroundImageFix" result="shape"/>
<feGaussianBlur stdDeviation="0.125" result="effect1_foregroundBlur"/>
</filter>
<filter id="filter1_f" x="38.366" y="38.51" width="6.788" height="10.868" filterUnits="userSpaceOnUse" color-interpolation-filters="sRGB">
<feFlood flood-opacity="0" result="BackgroundImageFix"/>
<feBlend mode="normal" in="SourceGraphic" in2="BackgroundImageFix" result="shape"/>
<feGaussianBlur stdDeviation="0.125" result="effect1_foregroundBlur"/>
</filter>
<filter id="filter2_f" x="31.586" y="34.934" width="10.752" height="14.316" filterUnits="userSpaceOnUse" color-interpolation-filters="sRGB">
<feFlood flood-opacity="0" result="BackgroundImageFix"/>
<feBlend mode="normal" in="SourceGraphic" in2="BackgroundImageFix" result="shape"/>
<feGaussianBlur stdDeviation="0.125" result="effect1_foregroundBlur"/>
</filter>
<filter id="filter3_f" x="121.02" y="25.4166" width="70.5" height="1.5" filterUnits="userSpaceOnUse" color-interpolation-filters="sRGB">
<feFlood flood-opacity="0" result="BackgroundImageFix"/>
<feBlend mode="normal" in="SourceGraphic" in2="BackgroundImageFix" result="shape"/>
<feGaussianBlur stdDeviation="0.125" result="effect1_foregroundBlur"/>
</filter>
<filter id="filter4_f" x="18.5197" y="25.4166" width="70.5" height="1.5" filterUnits="userSpaceOnUse" color-interpolation-filters="sRGB">
<feFlood flood-opacity="0" result="BackgroundImageFix"/>
<feBlend mode="normal" in="SourceGraphic" in2="BackgroundImageFix" result="shape"/>
<feGaussianBlur stdDeviation="0.125" result="effect1_foregroundBlur"/>
</filter>
</defs>
</svg>
