<svg width="623" height="271" viewBox="0 0 623 271" fill="none" xmlns="http://www.w3.org/2000/svg">
<rect width="623" height="271" rx="10" fill="#3B3D30"/>
<path d="M175.581 149.6C175.581 150.453 175.701 151.08 175.941 151.48C176.181 151.853 176.634 152.12 177.301 152.28C177.994 152.44 179.087 152.52 180.581 152.52C180.661 152.52 180.701 152.6 180.701 152.76C180.701 152.92 180.661 153 180.581 153C179.487 153 178.634 152.987 178.021 152.96L174.541 152.92L171.901 152.96C171.421 152.987 170.754 153 169.901 153C169.847 153 169.821 152.92 169.821 152.76C169.821 152.6 169.847 152.52 169.901 152.52C170.941 152.52 171.701 152.453 172.181 152.32C172.687 152.187 173.021 151.933 173.181 151.56C173.367 151.16 173.461 150.56 173.461 149.76V131.24C173.461 130.44 173.367 129.853 173.181 129.48C173.021 129.107 172.687 128.853 172.181 128.72C171.701 128.56 170.941 128.48 169.901 128.48C169.847 128.48 169.821 128.4 169.821 128.24C169.821 128.08 169.847 128 169.901 128L171.861 128.04C172.981 128.093 173.861 128.12 174.501 128.12C175.141 128.12 175.874 128.08 176.701 128C178.781 127.92 179.914 127.88 180.101 127.88C182.447 127.88 184.354 128.427 185.821 129.52C187.287 130.587 188.021 132.227 188.021 134.44C188.021 136.227 187.581 137.733 186.701 138.96C185.821 140.16 184.701 141.053 183.341 141.64C182.007 142.227 180.621 142.52 179.181 142.52C178.381 142.52 177.727 142.453 177.221 142.32C177.141 142.32 177.101 142.253 177.101 142.12C177.101 142.04 177.114 141.96 177.141 141.88C177.194 141.8 177.247 141.773 177.301 141.8C177.727 141.907 178.207 141.96 178.741 141.96C180.634 141.96 182.234 141.387 183.541 140.24C184.874 139.093 185.541 137.427 185.541 135.24C185.541 133.827 185.261 132.613 184.701 131.6C184.141 130.56 183.367 129.773 182.381 129.24C181.421 128.68 180.354 128.4 179.181 128.4C178.087 128.4 177.314 128.453 176.861 128.56C176.407 128.667 176.074 128.92 175.861 129.32C175.674 129.693 175.581 130.36 175.581 131.32V149.6ZM216.782 152.52C216.862 152.52 216.902 152.6 216.902 152.76C216.902 152.92 216.862 153 216.782 153H212.142C211.476 153 210.182 151.893 208.262 149.68C206.369 147.44 204.102 144.373 201.462 140.48C200.529 140.667 199.689 140.76 198.942 140.76C198.836 140.76 198.262 140.72 197.222 140.64V149.76C197.222 150.587 197.302 151.187 197.462 151.56C197.649 151.933 197.982 152.187 198.462 152.32C198.942 152.453 199.716 152.52 200.782 152.52C200.862 152.52 200.902 152.6 200.902 152.76C200.902 152.92 200.862 153 200.782 153C199.982 153 199.342 152.987 198.862 152.96L196.142 152.92L193.502 152.96C193.022 152.987 192.356 153 191.502 153C191.449 153 191.422 152.92 191.422 152.76C191.422 152.6 191.449 152.52 191.502 152.52C192.569 152.52 193.342 152.453 193.822 152.32C194.329 152.187 194.676 151.933 194.862 151.56C195.049 151.16 195.142 150.56 195.142 149.76V131.24C195.142 130.44 195.049 129.853 194.862 129.48C194.702 129.107 194.369 128.853 193.862 128.72C193.382 128.56 192.622 128.48 191.582 128.48C191.502 128.48 191.462 128.4 191.462 128.24C191.462 128.08 191.502 128 191.582 128L193.502 128.04C194.569 128.093 195.449 128.12 196.142 128.12C196.729 128.12 197.276 128.107 197.782 128.08C198.316 128.053 198.769 128.027 199.142 128C200.102 127.92 200.956 127.88 201.702 127.88C203.702 127.88 205.249 128.373 206.342 129.36C207.462 130.32 208.022 131.6 208.022 133.2C208.022 134.613 207.596 135.907 206.742 137.08C205.889 138.227 204.756 139.133 203.342 139.8C205.636 143.053 207.556 145.587 209.102 147.4C210.649 149.213 212.022 150.52 213.222 151.32C214.422 152.12 215.609 152.52 216.782 152.52ZM197.222 139.72C197.969 139.8 198.769 139.84 199.622 139.84C201.836 139.84 203.409 139.387 204.342 138.48C205.302 137.547 205.782 136.147 205.782 134.28C205.782 132.227 205.276 130.733 204.262 129.8C203.276 128.867 201.836 128.4 199.942 128.4C198.929 128.4 198.222 128.587 197.822 128.96C197.422 129.333 197.222 130.12 197.222 131.32V139.72ZM231.317 132.84C231.317 133.907 231.57 134.827 232.077 135.6C232.584 136.373 233.197 137.027 233.917 137.56C234.664 138.067 235.69 138.707 236.997 139.48C238.384 140.307 239.45 141 240.197 141.56C240.97 142.093 241.624 142.787 242.157 143.64C242.717 144.493 242.997 145.52 242.997 146.72C242.997 147.973 242.69 149.12 242.077 150.16C241.464 151.173 240.544 151.987 239.317 152.6C238.117 153.187 236.637 153.48 234.877 153.48C233.944 153.48 233.05 153.373 232.197 153.16C231.37 152.973 230.45 152.627 229.437 152.12C229.304 152.04 229.21 151.947 229.157 151.84C229.13 151.733 229.104 151.573 229.077 151.36L228.477 146.16V146.12C228.477 146.013 228.544 145.96 228.677 145.96C228.81 145.933 228.89 145.973 228.917 146.08C229.184 147.92 229.89 149.52 231.037 150.88C232.184 152.24 233.757 152.92 235.757 152.92C237.17 152.92 238.357 152.533 239.317 151.76C240.304 150.987 240.797 149.773 240.797 148.12C240.797 146.92 240.53 145.893 239.997 145.04C239.464 144.16 238.81 143.44 238.037 142.88C237.29 142.293 236.264 141.613 234.957 140.84C233.677 140.093 232.664 139.44 231.917 138.88C231.197 138.32 230.57 137.627 230.037 136.8C229.53 135.947 229.277 134.933 229.277 133.76C229.277 132.427 229.61 131.293 230.277 130.36C230.97 129.427 231.864 128.733 232.957 128.28C234.05 127.8 235.224 127.56 236.477 127.56C237.944 127.56 239.464 127.88 241.037 128.52C241.437 128.68 241.637 128.907 241.637 129.2L241.997 133.44C241.997 133.547 241.917 133.6 241.757 133.6C241.624 133.6 241.544 133.547 241.517 133.44C241.41 132.053 240.89 130.813 239.957 129.72C239.024 128.627 237.69 128.08 235.957 128.08C234.357 128.08 233.184 128.547 232.437 129.48C231.69 130.413 231.317 131.533 231.317 132.84ZM261.771 150.84C261.878 150.84 261.944 150.907 261.971 151.04C261.998 151.147 261.958 151.227 261.851 151.28L257.731 153.24C257.624 153.293 257.518 153.32 257.411 153.32C257.118 153.32 256.851 153.093 256.611 152.64C256.371 152.16 256.224 151.52 256.171 150.72L253.971 152.08C253.304 152.507 252.718 152.813 252.211 153C251.704 153.187 251.184 153.28 250.651 153.28C249.718 153.28 248.971 153.013 248.411 152.48C247.878 151.947 247.611 151.307 247.611 150.56C247.611 149.813 247.904 149.147 248.491 148.56C249.078 147.947 250.091 147.373 251.531 146.84L256.131 145.12V142.32C256.131 139.387 255.224 137.92 253.411 137.92C252.504 137.92 251.798 138.213 251.291 138.8C250.784 139.36 250.438 140.027 250.251 140.8C250.144 141.28 250.011 141.653 249.851 141.92C249.718 142.16 249.424 142.28 248.971 142.28C248.598 142.28 248.304 142.173 248.091 141.96C247.878 141.72 247.771 141.453 247.771 141.16C247.771 140.573 248.158 139.973 248.931 139.36C249.731 138.72 250.691 138.2 251.811 137.8C252.931 137.373 253.931 137.16 254.811 137.16C255.878 137.16 256.664 137.507 257.171 138.2C257.704 138.893 257.971 139.867 257.971 141.12V148.68C257.971 149.667 258.078 150.373 258.291 150.8C258.531 151.227 258.931 151.44 259.491 151.44C259.998 151.44 260.731 151.24 261.691 150.84H261.771ZM256.131 150.16V150.04V145.68L251.891 147.28C251.118 147.6 250.584 147.947 250.291 148.32C249.998 148.693 249.851 149.133 249.851 149.64C249.851 150.28 250.051 150.827 250.451 151.28C250.851 151.733 251.411 151.96 252.131 151.96C252.718 151.96 253.411 151.733 254.211 151.28L256.131 150.16ZM274.729 123.96C276.062 123.96 277.169 124.173 278.049 124.6C278.929 125 279.369 125.467 279.369 126C279.369 126.347 279.249 126.627 279.009 126.84C278.769 127.027 278.475 127.12 278.129 127.12C277.862 127.12 277.622 127.067 277.409 126.96C277.195 126.827 276.955 126.587 276.689 126.24C276.235 125.68 275.742 125.267 275.209 125C274.702 124.733 274.089 124.6 273.369 124.6C271.742 124.6 270.449 125.507 269.489 127.32C268.529 129.107 268.049 131.813 268.049 135.44V138.04C269.302 138.013 271.075 137.88 273.369 137.64C273.449 137.64 273.515 137.733 273.569 137.92C273.622 138.08 273.649 138.293 273.649 138.56C273.649 138.773 273.609 138.987 273.529 139.2C273.449 139.413 273.355 139.507 273.249 139.48C271.782 139.133 270.049 138.933 268.049 138.88V149.76C268.049 150.587 268.142 151.187 268.329 151.56C268.515 151.933 268.875 152.187 269.409 152.32C269.969 152.453 270.862 152.52 272.089 152.52C272.142 152.52 272.169 152.6 272.169 152.76C272.169 152.92 272.142 153 272.089 153L269.529 152.96C268.995 152.933 268.169 152.92 267.049 152.92L264.849 152.96C264.475 152.987 263.955 153 263.289 153C263.209 153 263.169 152.92 263.169 152.76C263.169 152.6 263.209 152.52 263.289 152.52C264.115 152.52 264.715 152.453 265.089 152.32C265.489 152.16 265.755 151.893 265.889 151.52C266.049 151.147 266.129 150.56 266.129 149.76V140.76C266.129 140.04 266.062 139.547 265.929 139.28C265.822 138.987 265.569 138.8 265.169 138.72C264.795 138.613 264.115 138.56 263.129 138.56C263.049 138.56 263.009 138.48 263.009 138.32C263.009 138.16 263.049 138.08 263.129 138.08C264.275 138.08 265.049 137.96 265.449 137.72C265.849 137.453 266.062 136.973 266.089 136.28C266.222 131.96 266.995 128.827 268.409 126.88C269.849 124.933 271.955 123.96 274.729 123.96ZM290.716 150.84C290.823 150.84 290.89 150.907 290.916 151.04C290.943 151.147 290.903 151.227 290.796 151.28L286.676 153.24C286.57 153.293 286.463 153.32 286.356 153.32C286.063 153.32 285.796 153.093 285.556 152.64C285.316 152.16 285.17 151.52 285.116 150.72L282.916 152.08C282.25 152.507 281.663 152.813 281.156 153C280.65 153.187 280.13 153.28 279.596 153.28C278.663 153.28 277.916 153.013 277.356 152.48C276.823 151.947 276.556 151.307 276.556 150.56C276.556 149.813 276.85 149.147 277.436 148.56C278.023 147.947 279.036 147.373 280.476 146.84L285.076 145.12V142.32C285.076 139.387 284.17 137.92 282.356 137.92C281.45 137.92 280.743 138.213 280.236 138.8C279.73 139.36 279.383 140.027 279.196 140.8C279.09 141.28 278.956 141.653 278.796 141.92C278.663 142.16 278.37 142.28 277.916 142.28C277.543 142.28 277.25 142.173 277.036 141.96C276.823 141.72 276.716 141.453 276.716 141.16C276.716 140.573 277.103 139.973 277.876 139.36C278.676 138.72 279.636 138.2 280.756 137.8C281.876 137.373 282.876 137.16 283.756 137.16C284.823 137.16 285.61 137.507 286.116 138.2C286.65 138.893 286.916 139.867 286.916 141.12V148.68C286.916 149.667 287.023 150.373 287.236 150.8C287.476 151.227 287.876 151.44 288.436 151.44C288.943 151.44 289.676 151.24 290.636 150.84H290.716ZM285.076 150.16V150.04V145.68L280.836 147.28C280.063 147.6 279.53 147.947 279.236 148.32C278.943 148.693 278.796 149.133 278.796 149.64C278.796 150.28 278.996 150.827 279.396 151.28C279.796 151.733 280.356 151.96 281.076 151.96C281.663 151.96 282.356 151.733 283.156 151.28L285.076 150.16ZM301.674 137.2C302.261 137.2 302.807 137.36 303.314 137.68C303.847 137.973 304.114 138.32 304.114 138.72C304.114 138.987 304.007 139.227 303.794 139.44C303.607 139.653 303.327 139.76 302.954 139.76C302.687 139.76 302.447 139.693 302.234 139.56C302.021 139.4 301.887 139.307 301.834 139.28C301.327 138.88 300.821 138.68 300.314 138.68C299.941 138.68 299.541 138.84 299.114 139.16C298.714 139.48 298.087 140.16 297.234 141.2V149.76C297.234 150.56 297.327 151.16 297.514 151.56C297.701 151.933 298.061 152.187 298.594 152.32C299.154 152.453 300.034 152.52 301.234 152.52C301.314 152.52 301.354 152.6 301.354 152.76C301.354 152.92 301.314 153 301.234 153C300.381 153 299.701 152.987 299.194 152.96L296.314 152.92L294.194 152.96C293.847 152.987 293.367 153 292.754 153C292.674 153 292.634 152.92 292.634 152.76C292.634 152.6 292.674 152.52 292.754 152.52C293.527 152.52 294.087 152.453 294.434 152.32C294.781 152.187 295.021 151.933 295.154 151.56C295.287 151.16 295.354 150.56 295.354 149.76V141.76C295.354 140.827 295.247 140.16 295.034 139.76C294.821 139.36 294.447 139.16 293.914 139.16C293.487 139.16 292.741 139.36 291.674 139.76H291.594C291.487 139.76 291.407 139.707 291.354 139.6C291.327 139.467 291.367 139.373 291.474 139.32L295.914 137.24C295.967 137.213 296.034 137.2 296.114 137.2C296.327 137.2 296.567 137.507 296.834 138.12C297.101 138.707 297.234 139.467 297.234 140.4V140.64C298.327 139.307 299.194 138.4 299.834 137.92C300.474 137.44 301.087 137.2 301.674 137.2ZM310.848 132.36C310.341 132.36 309.941 132.227 309.648 131.96C309.381 131.693 309.248 131.32 309.248 130.84C309.248 130.36 309.381 129.987 309.648 129.72C309.941 129.453 310.341 129.32 310.848 129.32C311.328 129.32 311.701 129.453 311.968 129.72C312.235 129.987 312.368 130.36 312.368 130.84C312.368 131.32 312.235 131.693 311.968 131.96C311.701 132.227 311.328 132.36 310.848 132.36ZM307.608 153C307.555 153 307.528 152.92 307.528 152.76C307.528 152.6 307.555 152.52 307.608 152.52C308.381 152.52 308.941 152.453 309.288 152.32C309.661 152.187 309.915 151.933 310.048 151.56C310.181 151.16 310.248 150.56 310.248 149.76V142.2C310.248 141.213 310.141 140.507 309.928 140.08C309.741 139.653 309.408 139.44 308.928 139.44C308.421 139.44 307.781 139.64 307.008 140.04H306.968C306.861 140.04 306.781 139.973 306.728 139.84C306.675 139.707 306.701 139.613 306.808 139.56L311.768 137.24L311.928 137.2C311.981 137.2 312.035 137.227 312.088 137.28C312.168 137.333 312.208 137.4 312.208 137.48C312.208 137.64 312.195 138.173 312.168 139.08C312.141 139.96 312.128 140.987 312.128 142.16V149.76C312.128 150.56 312.181 151.16 312.288 151.56C312.421 151.933 312.661 152.187 313.008 152.32C313.381 152.453 313.955 152.52 314.728 152.52C314.808 152.52 314.848 152.6 314.848 152.76C314.848 152.92 314.808 153 314.728 153C314.115 153 313.635 152.987 313.288 152.96L311.168 152.92L309.088 152.96C308.715 152.987 308.221 153 307.608 153ZM331.239 132.84C331.239 133.907 331.492 134.827 331.999 135.6C332.505 136.373 333.119 137.027 333.839 137.56C334.585 138.067 335.612 138.707 336.919 139.48C338.305 140.307 339.372 141 340.119 141.56C340.892 142.093 341.545 142.787 342.079 143.64C342.639 144.493 342.919 145.52 342.919 146.72C342.919 147.973 342.612 149.12 341.999 150.16C341.385 151.173 340.465 151.987 339.239 152.6C338.039 153.187 336.559 153.48 334.799 153.48C333.865 153.48 332.972 153.373 332.119 153.16C331.292 152.973 330.372 152.627 329.359 152.12C329.225 152.04 329.132 151.947 329.079 151.84C329.052 151.733 329.025 151.573 328.999 151.36L328.399 146.16V146.12C328.399 146.013 328.465 145.96 328.599 145.96C328.732 145.933 328.812 145.973 328.839 146.08C329.105 147.92 329.812 149.52 330.959 150.88C332.105 152.24 333.679 152.92 335.679 152.92C337.092 152.92 338.279 152.533 339.239 151.76C340.225 150.987 340.719 149.773 340.719 148.12C340.719 146.92 340.452 145.893 339.919 145.04C339.385 144.16 338.732 143.44 337.959 142.88C337.212 142.293 336.185 141.613 334.879 140.84C333.599 140.093 332.585 139.44 331.839 138.88C331.119 138.32 330.492 137.627 329.959 136.8C329.452 135.947 329.199 134.933 329.199 133.76C329.199 132.427 329.532 131.293 330.199 130.36C330.892 129.427 331.785 128.733 332.879 128.28C333.972 127.8 335.145 127.56 336.399 127.56C337.865 127.56 339.385 127.88 340.959 128.52C341.359 128.68 341.559 128.907 341.559 129.2L341.919 133.44C341.919 133.547 341.839 133.6 341.679 133.6C341.545 133.6 341.465 133.547 341.439 133.44C341.332 132.053 340.812 130.813 339.879 129.72C338.945 128.627 337.612 128.08 335.879 128.08C334.279 128.08 333.105 128.547 332.359 129.48C331.612 130.413 331.239 131.533 331.239 132.84ZM359.213 150.84C359.293 150.84 359.359 150.893 359.413 151C359.493 151.08 359.506 151.16 359.453 151.24C357.693 152.733 355.786 153.48 353.733 153.48C352.213 153.48 350.919 153.12 349.853 152.4C348.786 151.68 347.973 150.747 347.413 149.6C346.879 148.427 346.613 147.16 346.613 145.8C346.613 144.227 346.986 142.787 347.733 141.48C348.479 140.147 349.479 139.107 350.733 138.36C352.013 137.587 353.399 137.2 354.893 137.2C356.386 137.2 357.506 137.613 358.253 138.44C359.026 139.24 359.413 140.347 359.413 141.76C359.413 142.133 359.373 142.4 359.293 142.56C359.239 142.693 359.119 142.76 358.933 142.76L348.973 142.8C348.919 143.44 348.893 143.96 348.893 144.36C348.893 146.68 349.439 148.573 350.533 150.04C351.626 151.48 353.159 152.2 355.133 152.2C355.959 152.2 356.666 152.093 357.253 151.88C357.839 151.64 358.479 151.293 359.173 150.84H359.213ZM353.613 138C352.413 138 351.413 138.387 350.613 139.16C349.839 139.907 349.319 140.96 349.053 142.32L357.093 142.16C357.119 140.773 356.813 139.733 356.173 139.04C355.559 138.347 354.706 138 353.613 138ZM372.104 137.2C372.69 137.2 373.237 137.36 373.744 137.68C374.277 137.973 374.544 138.32 374.544 138.72C374.544 138.987 374.437 139.227 374.224 139.44C374.037 139.653 373.757 139.76 373.384 139.76C373.117 139.76 372.877 139.693 372.664 139.56C372.45 139.4 372.317 139.307 372.264 139.28C371.757 138.88 371.25 138.68 370.744 138.68C370.37 138.68 369.97 138.84 369.544 139.16C369.144 139.48 368.517 140.16 367.664 141.2V149.76C367.664 150.56 367.757 151.16 367.944 151.56C368.13 151.933 368.49 152.187 369.024 152.32C369.584 152.453 370.464 152.52 371.664 152.52C371.744 152.52 371.784 152.6 371.784 152.76C371.784 152.92 371.744 153 371.664 153C370.81 153 370.13 152.987 369.624 152.96L366.744 152.92L364.624 152.96C364.277 152.987 363.797 153 363.184 153C363.104 153 363.064 152.92 363.064 152.76C363.064 152.6 363.104 152.52 363.184 152.52C363.957 152.52 364.517 152.453 364.864 152.32C365.21 152.187 365.45 151.933 365.584 151.56C365.717 151.16 365.784 150.56 365.784 149.76V141.76C365.784 140.827 365.677 140.16 365.464 139.76C365.25 139.36 364.877 139.16 364.344 139.16C363.917 139.16 363.17 139.36 362.104 139.76H362.024C361.917 139.76 361.837 139.707 361.784 139.6C361.757 139.467 361.797 139.373 361.904 139.32L366.344 137.24C366.397 137.213 366.464 137.2 366.544 137.2C366.757 137.2 366.997 137.507 367.264 138.12C367.53 138.707 367.664 139.467 367.664 140.4V140.64C368.757 139.307 369.624 138.4 370.264 137.92C370.904 137.44 371.517 137.2 372.104 137.2ZM392.758 137.56C392.811 137.56 392.838 137.64 392.838 137.8C392.838 137.96 392.811 138.04 392.758 138.04C392.091 138.04 391.544 138.24 391.118 138.64C390.691 139.013 390.264 139.733 389.838 140.8L384.838 152.96C384.811 153.067 384.664 153.12 384.398 153.12C384.131 153.12 383.984 153.067 383.958 152.96L378.478 140.88C377.944 139.707 377.504 138.947 377.158 138.6C376.838 138.227 376.424 138.04 375.918 138.04C375.838 138.04 375.798 137.96 375.798 137.8C375.798 137.64 375.838 137.56 375.918 137.56C376.451 137.56 376.864 137.573 377.158 137.6L378.358 137.64L380.878 137.6C381.251 137.573 381.758 137.56 382.398 137.56C382.478 137.56 382.518 137.64 382.518 137.8C382.518 137.96 382.478 138.04 382.398 138.04C380.771 138.04 379.958 138.36 379.958 139C379.958 139.187 380.011 139.387 380.118 139.6L385.078 150.44L389.158 140.56C389.318 140.107 389.398 139.747 389.398 139.48C389.398 138.973 389.131 138.613 388.598 138.4C388.091 138.16 387.251 138.04 386.078 138.04C386.024 138.04 385.998 137.96 385.998 137.8C385.998 137.64 386.024 137.56 386.078 137.56C386.798 137.56 387.344 137.573 387.718 137.6L390.118 137.64L391.518 137.6C391.784 137.573 392.198 137.56 392.758 137.56ZM398.583 132.36C398.076 132.36 397.676 132.227 397.383 131.96C397.116 131.693 396.983 131.32 396.983 130.84C396.983 130.36 397.116 129.987 397.383 129.72C397.676 129.453 398.076 129.32 398.583 129.32C399.063 129.32 399.436 129.453 399.703 129.72C399.969 129.987 400.103 130.36 400.103 130.84C400.103 131.32 399.969 131.693 399.703 131.96C399.436 132.227 399.063 132.36 398.583 132.36ZM395.343 153C395.289 153 395.263 152.92 395.263 152.76C395.263 152.6 395.289 152.52 395.343 152.52C396.116 152.52 396.676 152.453 397.023 152.32C397.396 152.187 397.649 151.933 397.783 151.56C397.916 151.16 397.983 150.56 397.983 149.76V142.2C397.983 141.213 397.876 140.507 397.663 140.08C397.476 139.653 397.143 139.44 396.663 139.44C396.156 139.44 395.516 139.64 394.743 140.04H394.703C394.596 140.04 394.516 139.973 394.463 139.84C394.409 139.707 394.436 139.613 394.543 139.56L399.503 137.24L399.663 137.2C399.716 137.2 399.769 137.227 399.823 137.28C399.903 137.333 399.943 137.4 399.943 137.48C399.943 137.64 399.929 138.173 399.903 139.08C399.876 139.96 399.863 140.987 399.863 142.16V149.76C399.863 150.56 399.916 151.16 400.023 151.56C400.156 151.933 400.396 152.187 400.743 152.32C401.116 152.453 401.689 152.52 402.463 152.52C402.543 152.52 402.583 152.6 402.583 152.76C402.583 152.92 402.543 153 402.463 153C401.849 153 401.369 152.987 401.023 152.96L398.903 152.92L396.823 152.96C396.449 152.987 395.956 153 395.343 153ZM413.278 153.48C411.571 153.48 410.131 153.107 408.958 152.36C407.811 151.587 406.958 150.6 406.398 149.4C405.838 148.2 405.558 146.933 405.558 145.6C405.558 143.893 405.971 142.413 406.798 141.16C407.651 139.88 408.731 138.907 410.038 138.24C411.371 137.547 412.731 137.2 414.118 137.2C415.265 137.2 416.305 137.427 417.238 137.88C418.198 138.333 418.678 138.867 418.678 139.48C418.678 139.8 418.571 140.08 418.358 140.32C418.145 140.533 417.865 140.64 417.518 140.64C416.905 140.64 416.371 140.267 415.918 139.52C415.571 139.013 415.158 138.64 414.678 138.4C414.225 138.133 413.611 138 412.838 138C411.238 138 409.998 138.587 409.118 139.76C408.265 140.907 407.838 142.467 407.838 144.44C407.838 146.68 408.411 148.547 409.558 150.04C410.705 151.507 412.411 152.24 414.678 152.24C416.385 152.24 417.758 151.773 418.798 150.84H418.878C418.958 150.84 419.025 150.88 419.078 150.96C419.158 151.04 419.158 151.107 419.078 151.16C418.171 151.96 417.251 152.547 416.318 152.92C415.385 153.293 414.371 153.48 413.278 153.48ZM434.213 150.84C434.293 150.84 434.359 150.893 434.413 151C434.493 151.08 434.506 151.16 434.453 151.24C432.693 152.733 430.786 153.48 428.733 153.48C427.213 153.48 425.919 153.12 424.853 152.4C423.786 151.68 422.973 150.747 422.413 149.6C421.879 148.427 421.613 147.16 421.613 145.8C421.613 144.227 421.986 142.787 422.733 141.48C423.479 140.147 424.479 139.107 425.733 138.36C427.013 137.587 428.399 137.2 429.893 137.2C431.386 137.2 432.506 137.613 433.253 138.44C434.026 139.24 434.413 140.347 434.413 141.76C434.413 142.133 434.373 142.4 434.293 142.56C434.239 142.693 434.119 142.76 433.933 142.76L423.973 142.8C423.919 143.44 423.893 143.96 423.893 144.36C423.893 146.68 424.439 148.573 425.533 150.04C426.626 151.48 428.159 152.2 430.133 152.2C430.959 152.2 431.666 152.093 432.253 151.88C432.839 151.64 433.479 151.293 434.173 150.84H434.213ZM428.613 138C427.413 138 426.413 138.387 425.613 139.16C424.839 139.907 424.319 140.96 424.053 142.32L432.093 142.16C432.119 140.773 431.813 139.733 431.173 139.04C430.559 138.347 429.706 138 428.613 138ZM440.184 140.12C440.184 141.107 440.49 141.88 441.104 142.44C441.717 142.973 442.65 143.547 443.904 144.16C444.81 144.613 445.53 145.013 446.064 145.36C446.597 145.707 447.05 146.16 447.424 146.72C447.797 147.253 447.984 147.907 447.984 148.68C447.984 150.013 447.477 151.147 446.464 152.08C445.477 152.987 444.117 153.44 442.384 153.44C440.97 153.44 439.717 153.027 438.624 152.2C438.464 152.093 438.384 151.933 438.384 151.72L438.304 148.84C438.304 148.76 438.37 148.72 438.504 148.72C438.664 148.693 438.757 148.72 438.784 148.8C439.29 150.133 439.93 151.12 440.704 151.76C441.504 152.373 442.45 152.68 443.544 152.68C444.45 152.68 445.144 152.48 445.624 152.08C446.104 151.68 446.344 151.093 446.344 150.32C446.344 149.547 446.17 148.907 445.824 148.4C445.504 147.867 445.09 147.44 444.584 147.12C444.104 146.8 443.437 146.44 442.584 146.04C441.704 145.613 440.997 145.24 440.464 144.92C439.957 144.573 439.517 144.12 439.144 143.56C438.797 143 438.624 142.307 438.624 141.48C438.624 140.067 439.157 138.973 440.224 138.2C441.29 137.427 442.544 137.04 443.984 137.04C444.97 137.04 445.917 137.24 446.824 137.64C446.984 137.72 447.077 137.787 447.104 137.84C447.157 137.893 447.184 137.973 447.184 138.08C447.184 138.587 447.17 138.987 447.144 139.28L447.104 140.84C447.104 140.893 447.024 140.92 446.864 140.92C446.704 140.92 446.624 140.893 446.624 140.84C446.624 139.987 446.184 139.28 445.304 138.72C444.424 138.133 443.49 137.84 442.504 137.84C441.784 137.84 441.21 138.04 440.784 138.44C440.384 138.813 440.184 139.373 440.184 140.12Z" fill="#A69B75"/>
<g filter="url(#filter0_f)">
<line x1="323" y1="101.5" x2="463" y2="101.5" stroke="#A69B75"/>
</g>
<g filter="url(#filter1_f)">
<line x1="154" y1="101.5" x2="294" y2="101.5" stroke="#A69B75"/>
</g>
<path d="M300.488 100.92L298.545 92" stroke="#A69B75" stroke-linecap="round" stroke-linejoin="round"/>
<line x1="0.5" y1="-0.5" x2="9.61473" y2="-0.49999" transform="matrix(0.202119 -0.979361 -0.999977 -0.00675164 316.045 101.406)" stroke="#A69B75" stroke-linecap="round" stroke-linejoin="round"/>
<path d="M312.045 95L308.545 88.5001" stroke="#A69B75" stroke-linecap="round" stroke-linejoin="round"/>
<path d="M312.045 95L318.438 91.8944" stroke="#A69B75" stroke-linecap="round" stroke-linejoin="round"/>
<path d="M304.958 95L308.458 88.5001" stroke="#A69B75" stroke-linecap="round" stroke-linejoin="round"/>
<path d="M304.958 95L298.564 91.8944" stroke="#A69B75" stroke-linecap="round" stroke-linejoin="round"/>
<line x1="316.545" y1="101" x2="300.545" y2="101" stroke="#A69B75" stroke-linecap="round" stroke-linejoin="round"/>
<defs>
<filter id="filter0_f" x="322.75" y="100.75" width="140.5" height="1.5" filterUnits="userSpaceOnUse" color-interpolation-filters="sRGB">
<feFlood flood-opacity="0" result="BackgroundImageFix"/>
<feBlend mode="normal" in="SourceGraphic" in2="BackgroundImageFix" result="shape"/>
<feGaussianBlur stdDeviation="0.125" result="effect1_foregroundBlur"/>
</filter>
<filter id="filter1_f" x="153.75" y="100.75" width="140.5" height="1.5" filterUnits="userSpaceOnUse" color-interpolation-filters="sRGB">
<feFlood flood-opacity="0" result="BackgroundImageFix"/>
<feBlend mode="normal" in="SourceGraphic" in2="BackgroundImageFix" result="shape"/>
<feGaussianBlur stdDeviation="0.125" result="effect1_foregroundBlur"/>
</filter>
</defs>
</svg>
