<svg width="66" height="60" viewBox="0 0 66 60" fill="none" xmlns="http://www.w3.org/2000/svg">
<ellipse cx="32.9268" cy="30" rx="32.9268" ry="30" fill="#3B3D30"/>
<g filter="url(#filter0_b)">
<path d="M22.71 36.088C23.038 36.088 23.364 36.154 23.688 36.286L23.556 36.988L23.436 37.036C23.3 36.94 23.158 36.864 23.01 36.808C22.866 36.752 22.734 36.724 22.614 36.724C22.454 36.724 22.326 36.768 22.23 36.856C22.134 36.94 22.086 37.038 22.086 37.15C22.086 37.266 22.138 37.364 22.242 37.444C22.35 37.524 22.518 37.618 22.746 37.726C22.966 37.826 23.144 37.92 23.28 38.008C23.42 38.092 23.538 38.204 23.634 38.344C23.734 38.484 23.784 38.656 23.784 38.86C23.784 39.08 23.724 39.282 23.604 39.466C23.484 39.646 23.314 39.79 23.094 39.898C22.874 40.002 22.62 40.054 22.332 40.054C21.952 40.054 21.57 39.972 21.186 39.808L21.3 39.052L21.39 39.004C21.55 39.144 21.724 39.252 21.912 39.328C22.104 39.4 22.274 39.436 22.422 39.436C22.598 39.436 22.734 39.394 22.83 39.31C22.93 39.222 22.98 39.118 22.98 38.998C22.98 38.87 22.926 38.766 22.818 38.686C22.714 38.606 22.544 38.51 22.308 38.398C22.092 38.302 21.916 38.212 21.78 38.128C21.644 38.044 21.528 37.932 21.432 37.792C21.336 37.652 21.288 37.482 21.288 37.282C21.288 37.058 21.348 36.856 21.468 36.676C21.588 36.492 21.756 36.348 21.972 36.244C22.188 36.14 22.434 36.088 22.71 36.088ZM26.3243 40H25.7723L25.7083 39.664L25.6403 39.424L25.1363 39.412L24.6923 39.424L24.6243 39.636L24.5563 40H24.0203L24.8923 37.424H25.5363L26.3243 40ZM25.5243 39.004L25.2203 37.932H25.1843L24.8323 39.004L25.1763 39.012L25.5243 39.004ZM27.2427 37.856L27.2307 38.552L27.5907 38.556L28.0267 38.544L28.0627 38.584L28.0227 38.988L27.5467 38.976L27.2227 38.98L27.2187 39.184L27.2427 40H26.6987L26.7267 39.232L26.6987 37.424H28.2307L28.2627 37.468L28.2227 37.876L27.6107 37.852L27.2427 37.856ZM30.4454 40H29.8934L29.8294 39.664L29.7614 39.424L29.2574 39.412L28.8134 39.424L28.7454 39.636L28.6774 40H28.1414L29.0134 37.424H29.6574L30.4454 40ZM29.6454 39.004L29.3414 37.932H29.3054L28.9534 39.004L29.2974 39.012L29.6454 39.004ZM32.1718 38.976C32.3798 39.3067 32.5865 39.6053 32.7918 39.872L32.7838 39.932C32.6105 39.9933 32.4331 40.0293 32.2518 40.04L32.1958 39.996C32.0038 39.6653 31.8478 39.3773 31.7278 39.132H31.3398V39.184L31.3638 40H30.8198L30.8478 39.232L30.8198 37.424L31.8078 37.42C32.0771 37.42 32.2851 37.4867 32.4318 37.62C32.5785 37.7507 32.6518 37.9387 32.6518 38.184C32.6518 38.3493 32.6091 38.5013 32.5238 38.64C32.4411 38.776 32.3238 38.888 32.1718 38.976ZM31.3478 38.712L31.7438 38.728C31.9705 38.6507 32.0838 38.4867 32.0838 38.236C32.0838 38.1 32.0465 37.9987 31.9718 37.932C31.8998 37.8627 31.7878 37.8253 31.6358 37.82L31.3638 37.836L31.3478 38.712ZM33.6992 39.184L33.7232 40H33.1792L33.2072 39.232L33.1792 37.424H33.7312L33.6992 39.184ZM36.8164 36.088C37.1444 36.088 37.4704 36.154 37.7944 36.286L37.6624 36.988L37.5424 37.036C37.4064 36.94 37.2644 36.864 37.1164 36.808C36.9724 36.752 36.8404 36.724 36.7204 36.724C36.5604 36.724 36.4324 36.768 36.3364 36.856C36.2404 36.94 36.1924 37.038 36.1924 37.15C36.1924 37.266 36.2444 37.364 36.3484 37.444C36.4564 37.524 36.6244 37.618 36.8524 37.726C37.0724 37.826 37.2504 37.92 37.3864 38.008C37.5264 38.092 37.6444 38.204 37.7404 38.344C37.8404 38.484 37.8904 38.656 37.8904 38.86C37.8904 39.08 37.8304 39.282 37.7104 39.466C37.5904 39.646 37.4204 39.79 37.2004 39.898C36.9804 40.002 36.7264 40.054 36.4384 40.054C36.0584 40.054 35.6764 39.972 35.2924 39.808L35.4064 39.052L35.4964 39.004C35.6564 39.144 35.8304 39.252 36.0184 39.328C36.2104 39.4 36.3804 39.436 36.5284 39.436C36.7044 39.436 36.8404 39.394 36.9364 39.31C37.0364 39.222 37.0864 39.118 37.0864 38.998C37.0864 38.87 37.0324 38.766 36.9244 38.686C36.8204 38.606 36.6504 38.51 36.4144 38.398C36.1984 38.302 36.0224 38.212 35.8864 38.128C35.7504 38.044 35.6344 37.932 35.5384 37.792C35.4424 37.652 35.3944 37.482 35.3944 37.282C35.3944 37.058 35.4544 36.856 35.5744 36.676C35.6944 36.492 35.8624 36.348 36.0784 36.244C36.2944 36.14 36.5404 36.088 36.8164 36.088ZM40.0267 39.552L40.0587 39.596L40.0227 40H38.4067L38.4347 39.232L38.4067 37.424H40.0387L40.0707 37.468L40.0307 37.872L39.4147 37.852L38.9507 37.856L38.9387 38.476L39.3827 38.484L39.8027 38.472L39.8347 38.512L39.7987 38.916L39.3427 38.904L38.9307 38.908L38.9267 39.184L38.9387 39.572L39.3907 39.576L40.0267 39.552ZM41.4231 37.392C41.6738 37.392 41.8991 37.444 42.0991 37.548L42.0031 38L41.9591 38.02C41.8791 37.964 41.7911 37.92 41.6951 37.888C41.5991 37.856 41.5004 37.84 41.3991 37.84C40.9751 37.84 40.7631 38.1187 40.7631 38.676C40.7631 38.9773 40.8178 39.204 40.9271 39.356C41.0391 39.5053 41.2018 39.58 41.4151 39.58C41.5138 39.58 41.6151 39.5653 41.7191 39.536C41.8258 39.504 41.9218 39.4613 42.0071 39.408L42.0551 39.436L42.0111 39.896C41.8084 39.9893 41.5951 40.036 41.3711 40.036C40.9871 40.036 40.6938 39.924 40.4911 39.7C40.2911 39.476 40.1911 39.1547 40.1911 38.736C40.1911 38.3093 40.2978 37.9787 40.5111 37.744C40.7271 37.5093 41.0311 37.392 41.4231 37.392ZM44.4375 38.732L44.4335 39.072C44.4362 39.3787 44.3468 39.616 44.1655 39.784C43.9842 39.952 43.7242 40.036 43.3855 40.036C43.0602 40.036 42.8122 39.9547 42.6415 39.792C42.4708 39.6293 42.3895 39.396 42.3975 39.092L42.4015 38.72L42.3895 37.424H42.9335L42.9055 39.02C42.9028 39.2147 42.9442 39.3587 43.0295 39.452C43.1148 39.5453 43.2442 39.592 43.4175 39.592C43.7642 39.592 43.9362 39.4107 43.9335 39.048L43.9055 37.424H44.4575L44.4375 38.732ZM46.3603 38.976C46.5683 39.3067 46.775 39.6053 46.9803 39.872L46.9723 39.932C46.799 39.9933 46.6216 40.0293 46.4403 40.04L46.3843 39.996C46.1923 39.6653 46.0363 39.3773 45.9163 39.132H45.5283V39.184L45.5523 40H45.0083L45.0363 39.232L45.0083 37.424L45.9963 37.42C46.2656 37.42 46.4736 37.4867 46.6203 37.62C46.767 37.7507 46.8403 37.9387 46.8403 38.184C46.8403 38.3493 46.7976 38.5013 46.7123 38.64C46.6296 38.776 46.5123 38.888 46.3603 38.976ZM45.5363 38.712L45.9323 38.728C46.159 38.6507 46.2723 38.4867 46.2723 38.236C46.2723 38.1 46.235 37.9987 46.1603 37.932C46.0883 37.8627 45.9763 37.8253 45.8243 37.82L45.5523 37.836L45.5363 38.712ZM47.8877 39.184L47.9117 40H47.3677L47.3957 39.232L47.3677 37.424H47.9197L47.8877 39.184ZM50.164 37.468L50.132 37.872L49.648 37.848H49.488L49.468 39.184L49.492 40H48.948L48.976 39.232L48.956 37.848H48.796L48.304 37.872L48.268 37.828L48.304 37.424H50.132L50.164 37.468ZM51.5517 39.284L51.5757 40H51.0357L51.0597 39.284L51.0557 39.132L50.2357 37.424H50.8117L50.8677 37.604L51.3037 38.584H51.3397L51.8277 37.62L51.9037 37.424H52.4597L51.5597 39.112L51.5517 39.284Z" fill="#CFC590"/>
</g>
<g filter="url(#filter1_b)">
<path d="M17.605 38.69C17.855 39.0933 18.1433 39.51 18.47 39.94V39.975C18.4167 40.0017 18.3417 40.0233 18.245 40.04L18.205 40.02C17.8817 39.5567 17.6083 39.1333 17.385 38.75H16.755V39.015L16.765 40H16.505L16.52 39.03L16.505 36.805L17.355 36.8C17.6583 36.8 17.8917 36.8767 18.055 37.03C18.2183 37.1833 18.3 37.405 18.3 37.695C18.3 37.9283 18.24 38.1317 18.12 38.305C18 38.475 17.8283 38.6033 17.605 38.69ZM16.76 38.52L17.41 38.53C17.6133 38.4733 17.7683 38.3767 17.875 38.24C17.9817 38.1 18.035 37.9233 18.035 37.71C18.035 37.4867 17.9733 37.3183 17.85 37.205C17.73 37.0883 17.555 37.0267 17.325 37.02L16.77 37.03L16.76 38.52Z" fill="#CFC590"/>
</g>
<g filter="url(#filter2_b)">
<path d="M15.568 39.32C15.568 39.4907 15.5893 39.616 15.632 39.696C15.6747 39.7707 15.76 39.824 15.888 39.856C16.016 39.888 16.216 39.904 16.488 39.904C16.504 39.904 16.512 39.92 16.512 39.952C16.512 39.984 16.504 40 16.488 40C16.2693 40 16.0987 39.9973 15.976 39.992L15.28 39.984L14.736 39.992C14.64 39.9973 14.504 40 14.328 40C14.312 40 14.304 39.984 14.304 39.952C14.304 39.92 14.312 39.904 14.328 39.904C14.52 39.904 14.6613 39.8907 14.752 39.864C14.8427 39.8373 14.904 39.7867 14.936 39.712C14.968 39.632 14.984 39.512 14.984 39.352V35.648C14.984 35.488 14.968 35.3707 14.936 35.296C14.904 35.2213 14.8427 35.1707 14.752 35.144C14.6613 35.112 14.52 35.096 14.328 35.096C14.312 35.096 14.304 35.08 14.304 35.048C14.304 35.016 14.312 35 14.328 35L14.736 35.008C14.96 35.0187 15.1387 35.024 15.272 35.024C15.4 35.024 15.552 35.016 15.728 35C15.792 35 15.8907 34.9973 16.024 34.992C16.1627 34.9813 16.2827 34.976 16.384 34.976C16.88 34.976 17.2773 35.088 17.576 35.312C17.88 35.5307 18.032 35.864 18.032 36.312C18.032 36.6587 17.944 36.952 17.768 37.192C17.5973 37.432 17.376 37.6107 17.104 37.728C16.8373 37.8453 16.56 37.904 16.272 37.904C16.1173 37.904 15.9867 37.8907 15.88 37.864C15.8693 37.864 15.864 37.8507 15.864 37.824C15.864 37.808 15.8667 37.792 15.872 37.776C15.8827 37.76 15.8933 37.7547 15.904 37.76C15.984 37.7813 16.0773 37.792 16.184 37.792C16.5147 37.792 16.7947 37.6773 17.024 37.448C17.2533 37.2187 17.368 36.888 17.368 36.456C17.368 36.0347 17.2587 35.704 17.04 35.464C16.8213 35.224 16.5333 35.104 16.176 35.104C16 35.104 15.872 35.1173 15.792 35.144C15.712 35.1653 15.6533 35.216 15.616 35.296C15.584 35.3707 15.568 35.4933 15.568 35.664V39.32Z" fill="#CFC590"/>
</g>
<path d="M43.5 32L45.5776 21.3889" stroke="#CFC590" stroke-linecap="round" stroke-linejoin="round"/>
<path d="M37.9241 24.5437L33.8514 17.2887" stroke="#CFC590" stroke-linecap="round" stroke-linejoin="round"/>
<path d="M37.924 24.5437L45.3639 21.0772" stroke="#CFC590" stroke-linecap="round" stroke-linejoin="round"/>
<path d="M23.2827 31.9228L21.2051 21.3117" stroke="#CFC590" stroke-linecap="round" stroke-linejoin="round"/>
<path d="M29.5 24.5L21.4188 21" stroke="#CFC590" stroke-linecap="round" stroke-linejoin="round"/>
<path d="M29.6775 24.5437L33.7502 17.2887" stroke="#CFC590" stroke-linecap="round" stroke-linejoin="round"/>
<path d="M43.5 32H23.5" stroke="#CFC590" stroke-linecap="round" stroke-linejoin="round"/>
<line x1="46" y1="31.5" x2="63" y2="31.5" stroke="#CFC590"/>
<line x1="4" y1="31.5" x2="21" y2="31.5" stroke="#CFC590"/>
<defs>
<filter id="filter0_b" x="20.936" y="35.838" width="31.7737" height="4.466" filterUnits="userSpaceOnUse" color-interpolation-filters="sRGB">
<feFlood flood-opacity="0" result="BackgroundImageFix"/>
<feGaussianBlur in="BackgroundImage" stdDeviation="0.125"/>
<feComposite in2="SourceAlpha" operator="in" result="effect1_backgroundBlur"/>
<feBlend mode="normal" in="SourceGraphic" in2="effect1_backgroundBlur" result="shape"/>
</filter>
<filter id="filter1_b" x="16.255" y="36.55" width="2.465" height="3.74" filterUnits="userSpaceOnUse" color-interpolation-filters="sRGB">
<feFlood flood-opacity="0" result="BackgroundImageFix"/>
<feGaussianBlur in="BackgroundImage" stdDeviation="0.125"/>
<feComposite in2="SourceAlpha" operator="in" result="effect1_backgroundBlur"/>
<feBlend mode="normal" in="SourceGraphic" in2="effect1_backgroundBlur" result="shape"/>
</filter>
<filter id="filter2_b" x="14.054" y="34.726" width="4.228" height="5.524" filterUnits="userSpaceOnUse" color-interpolation-filters="sRGB">
<feFlood flood-opacity="0" result="BackgroundImageFix"/>
<feGaussianBlur in="BackgroundImage" stdDeviation="0.125"/>
<feComposite in2="SourceAlpha" operator="in" result="effect1_backgroundBlur"/>
<feBlend mode="normal" in="SourceGraphic" in2="effect1_backgroundBlur" result="shape"/>
</filter>
</defs>
</svg>
