<svg width="299" height="223" viewBox="0 0 299 223" fill="none" xmlns="http://www.w3.org/2000/svg">
<ellipse cx="121.033" cy="111.5" rx="121.033" ry="111.5" fill="#3B3D30"/>
<g filter="url(#filter0_f)">
<path d="M68.654 111.854C69.622 111.854 70.5973 112.074 71.58 112.514L71.382 113.57L71.162 113.636C70.7513 113.372 70.3113 113.174 69.842 113.042C69.3873 112.895 68.9473 112.822 68.522 112.822C67.906 112.822 67.3633 112.954 66.894 113.218C66.4393 113.467 66.0873 113.797 65.838 114.208C65.6033 114.619 65.486 115.037 65.486 115.462C65.486 115.917 65.618 116.313 65.882 116.65C66.146 116.987 66.4687 117.281 66.85 117.53C67.246 117.765 67.774 118.036 68.434 118.344C69.2113 118.725 69.8347 119.07 70.304 119.378C70.788 119.671 71.1987 120.06 71.536 120.544C71.8733 121.013 72.042 121.585 72.042 122.26C72.042 122.949 71.8513 123.595 71.47 124.196C71.1033 124.783 70.5753 125.252 69.886 125.604C69.2113 125.941 68.4487 126.11 67.598 126.11C66.9967 126.11 66.3807 126.029 65.75 125.868C65.1193 125.692 64.5473 125.443 64.034 125.12L64.166 123.954L64.32 123.888C64.804 124.313 65.3467 124.636 65.948 124.856C66.5493 125.061 67.1287 125.164 67.686 125.164C68.3313 125.164 68.896 125.032 69.38 124.768C69.864 124.504 70.238 124.159 70.502 123.734C70.766 123.309 70.898 122.861 70.898 122.392C70.898 121.908 70.7587 121.49 70.48 121.138C70.216 120.771 69.886 120.471 69.49 120.236C69.1087 120.001 68.5733 119.715 67.884 119.378C67.1213 119.011 66.5053 118.681 66.036 118.388C65.5667 118.095 65.1707 117.713 64.848 117.244C64.5253 116.775 64.364 116.21 64.364 115.55C64.364 114.875 64.54 114.259 64.892 113.702C65.2587 113.13 65.7647 112.683 66.41 112.36C67.07 112.023 67.818 111.854 68.654 111.854ZM83.9377 126H82.8577L82.5777 124.92L81.6177 122.16L78.5777 122.12L75.8377 122.16L74.7977 124.88L74.4977 126H73.4177L78.2977 113.22H79.4777L83.9377 126ZM81.2977 121.24L78.9177 114.42H78.7977L76.1977 121.24L78.6977 121.26L81.2977 121.24ZM87.5253 114.14L87.4853 119.2L89.8253 119.22L91.8653 119.18L91.9653 119.3L91.8453 120.1L87.4853 120.08L87.4653 122.06L87.5053 126H86.4653L86.5253 122.12L86.4653 113.22H92.8653L92.9653 113.34L92.8453 114.18L89.9853 114.12L87.5253 114.14ZM103.235 126H102.155L101.875 124.92L100.915 122.16L97.8745 122.12L95.1345 122.16L94.0945 124.88L93.7945 126H92.7145L97.5945 113.22H98.7745L103.235 126ZM100.595 121.24L98.2145 114.42H98.0945L95.4945 121.24L97.9945 121.26L100.595 121.24ZM110.162 120.76C111.162 122.373 112.316 124.04 113.622 125.76V125.9C113.409 126.007 113.109 126.093 112.722 126.16L112.562 126.08C111.269 124.227 110.176 122.533 109.282 121H106.762V122.06L106.802 126H105.762L105.822 122.12L105.762 113.22L109.162 113.2C110.376 113.2 111.309 113.507 111.962 114.12C112.616 114.733 112.942 115.62 112.942 116.78C112.942 117.713 112.702 118.527 112.222 119.22C111.742 119.9 111.056 120.413 110.162 120.76ZM106.782 120.08L109.382 120.12C110.196 119.893 110.816 119.507 111.242 118.96C111.669 118.4 111.882 117.693 111.882 116.84C111.882 115.947 111.636 115.273 111.142 114.82C110.662 114.353 109.962 114.107 109.042 114.08L106.822 114.12L106.782 120.08ZM117.524 122.06L117.564 126H116.524L116.584 122.12L116.524 113.22H117.584L117.524 122.06ZM127.662 111.854C128.63 111.854 129.605 112.074 130.588 112.514L130.39 113.57L130.17 113.636C129.759 113.372 129.319 113.174 128.85 113.042C128.395 112.895 127.955 112.822 127.53 112.822C126.914 112.822 126.371 112.954 125.902 113.218C125.447 113.467 125.095 113.797 124.846 114.208C124.611 114.619 124.494 115.037 124.494 115.462C124.494 115.917 124.626 116.313 124.89 116.65C125.154 116.987 125.476 117.281 125.858 117.53C126.254 117.765 126.782 118.036 127.442 118.344C128.219 118.725 128.842 119.07 129.312 119.378C129.796 119.671 130.206 120.06 130.544 120.544C130.881 121.013 131.05 121.585 131.05 122.26C131.05 122.949 130.859 123.595 130.478 124.196C130.111 124.783 129.583 125.252 128.894 125.604C128.219 125.941 127.456 126.11 126.606 126.11C126.004 126.11 125.388 126.029 124.758 125.868C124.127 125.692 123.555 125.443 123.042 125.12L123.174 123.954L123.328 123.888C123.812 124.313 124.354 124.636 124.956 124.856C125.557 125.061 126.136 125.164 126.694 125.164C127.339 125.164 127.904 125.032 128.388 124.768C128.872 124.504 129.246 124.159 129.51 123.734C129.774 123.309 129.906 122.861 129.906 122.392C129.906 121.908 129.766 121.49 129.488 121.138C129.224 120.771 128.894 120.471 128.498 120.236C128.116 120.001 127.581 119.715 126.892 119.378C126.129 119.011 125.513 118.681 125.044 118.388C124.574 118.095 124.178 117.713 123.856 117.244C123.533 116.775 123.372 116.21 123.372 115.55C123.372 114.875 123.548 114.259 123.9 113.702C124.266 113.13 124.772 112.683 125.418 112.36C126.078 112.023 126.826 111.854 127.662 111.854ZM140.965 125.18L140.865 126H134.125L134.185 122.12L134.125 113.22H140.845L140.925 113.34L140.805 114.16L137.825 114.12L135.185 114.14L135.145 118.96L137.645 118.98L139.785 118.96L139.865 119.06L139.765 119.88L135.145 119.86L135.125 122.06L135.165 125.1L137.745 125.12L140.885 125.06L140.965 125.18ZM147.489 113.12C148.142 113.12 148.769 113.213 149.369 113.4C149.969 113.573 150.509 113.833 150.989 114.18L150.769 115.12L150.609 115.14C149.676 114.393 148.622 114.02 147.449 114.02C146.022 114.02 144.929 114.5 144.169 115.46C143.422 116.42 143.049 117.807 143.049 119.62C143.049 121.433 143.416 122.82 144.149 123.78C144.882 124.727 145.936 125.2 147.309 125.2C147.922 125.2 148.529 125.093 149.129 124.88C149.729 124.653 150.289 124.34 150.809 123.94L150.969 124L150.889 124.98C149.742 125.74 148.529 126.12 147.249 126.12C145.569 126.12 144.269 125.567 143.349 124.46C142.442 123.34 141.989 121.747 141.989 119.68C141.989 117.587 142.462 115.973 143.409 114.84C144.369 113.693 145.729 113.12 147.489 113.12ZM162.358 119.74V121.28C162.385 122.813 161.991 124 161.178 124.84C160.365 125.68 159.205 126.1 157.698 126.1C156.231 126.1 155.105 125.693 154.318 124.88C153.545 124.067 153.165 122.893 153.178 121.36V113.22H154.198L154.158 121.26C154.145 122.54 154.445 123.513 155.058 124.18C155.671 124.847 156.571 125.18 157.758 125.18C158.945 125.18 159.845 124.853 160.458 124.2C161.085 123.547 161.391 122.6 161.378 121.36L161.338 113.22H162.378L162.358 119.74ZM170.381 120.76C171.381 122.373 172.534 124.04 173.841 125.76V125.9C173.628 126.007 173.328 126.093 172.941 126.16L172.781 126.08C171.488 124.227 170.394 122.533 169.501 121H166.981V122.06L167.021 126H165.981L166.041 122.12L165.981 113.22L169.381 113.2C170.594 113.2 171.528 113.507 172.181 114.12C172.834 114.733 173.161 115.62 173.161 116.78C173.161 117.713 172.921 118.527 172.441 119.22C171.961 119.9 171.274 120.413 170.381 120.76ZM167.001 120.08L169.601 120.12C170.414 119.893 171.034 119.507 171.461 118.96C171.888 118.4 172.101 117.693 172.101 116.84C172.101 115.947 171.854 115.273 171.361 114.82C170.881 114.353 170.181 114.107 169.261 114.08L167.041 114.12L167.001 120.08ZM177.743 122.06L177.783 126H176.743L176.803 122.12L176.743 113.22H177.803L177.743 122.06ZM188.668 113.34L188.568 114.14L186.428 114.08H184.868L184.808 122.06L184.848 126H183.808L183.868 122.12L183.808 114.08H182.248L180.068 114.14L179.988 114.02L180.088 113.22H188.568L188.668 113.34ZM194.576 122.18L194.616 126H193.576L193.616 122.18L193.596 121.28L189.556 113.22H190.716L190.956 113.84L194.076 120.04H194.196L197.596 113.86L197.856 113.22H198.996L194.596 121.24L194.576 122.18Z" fill="#CFC590"/>
</g>
<g filter="url(#filter1_f)">
<path d="M53.778 121.284C54.678 122.736 55.716 124.236 56.892 125.784V125.91C56.7 126.006 56.43 126.084 56.082 126.144L55.938 126.072C54.774 124.404 53.79 122.88 52.986 121.5H50.718V122.454L50.754 126H49.818L49.872 122.508L49.818 114.498L52.878 114.48C53.97 114.48 54.81 114.756 55.398 115.308C55.986 115.86 56.28 116.658 56.28 117.702C56.28 118.542 56.064 119.274 55.632 119.898C55.2 120.51 54.582 120.972 53.778 121.284ZM50.736 120.672L53.076 120.708C53.808 120.504 54.366 120.156 54.75 119.664C55.134 119.16 55.326 118.524 55.326 117.756C55.326 116.952 55.104 116.346 54.66 115.938C54.228 115.518 53.598 115.296 52.77 115.272L50.772 115.308L50.736 120.672Z" fill="#CFC590"/>
</g>
<g filter="url(#filter2_f)">
<path d="M47.096 123.79C47.096 124.345 47.1653 124.752 47.304 125.012C47.4427 125.255 47.72 125.428 48.136 125.532C48.552 125.636 49.202 125.688 50.086 125.688C50.138 125.688 50.164 125.74 50.164 125.844C50.164 125.948 50.138 126 50.086 126C49.3753 126 48.8207 125.991 48.422 125.974L46.16 125.948L44.392 125.974C44.08 125.991 43.638 126 43.066 126C43.014 126 42.988 125.948 42.988 125.844C42.988 125.74 43.014 125.688 43.066 125.688C43.69 125.688 44.1493 125.645 44.444 125.558C44.7387 125.471 44.938 125.307 45.042 125.064C45.146 124.804 45.198 124.414 45.198 123.894V111.856C45.198 111.336 45.146 110.955 45.042 110.712C44.938 110.469 44.7387 110.305 44.444 110.218C44.1493 110.114 43.69 110.062 43.066 110.062C43.014 110.062 42.988 110.01 42.988 109.906C42.988 109.802 43.014 109.75 43.066 109.75L44.392 109.776C45.12 109.811 45.7007 109.828 46.134 109.828C46.55 109.828 47.044 109.802 47.616 109.75C47.824 109.75 48.1447 109.741 48.578 109.724C49.0287 109.689 49.4187 109.672 49.748 109.672C51.36 109.672 52.6513 110.036 53.622 110.764C54.61 111.475 55.104 112.558 55.104 114.014C55.104 115.141 54.818 116.094 54.246 116.874C53.6913 117.654 52.972 118.235 52.088 118.616C51.2213 118.997 50.32 119.188 49.384 119.188C48.8813 119.188 48.4567 119.145 48.11 119.058C48.0753 119.058 48.058 119.015 48.058 118.928C48.058 118.876 48.0667 118.824 48.084 118.772C48.1187 118.72 48.1533 118.703 48.188 118.72C48.448 118.789 48.7513 118.824 49.098 118.824C50.1727 118.824 51.0827 118.451 51.828 117.706C52.5733 116.961 52.946 115.886 52.946 114.482C52.946 113.113 52.5907 112.038 51.88 111.258C51.1693 110.478 50.2333 110.088 49.072 110.088C48.5 110.088 48.084 110.131 47.824 110.218C47.564 110.287 47.3733 110.452 47.252 110.712C47.148 110.955 47.096 111.353 47.096 111.908V123.79Z" fill="#CFC590"/>
</g>
<g filter="url(#filter3_f)">
<line x1="147.049" y1="103.706" x2="226.229" y2="103.706" stroke="#CFC590"/>
</g>
<g filter="url(#filter4_f)">
<line x1="6.7869" y1="103.706" x2="85.9672" y2="103.706" stroke="#CFC590"/>
</g>
<path d="M139.131 102.122L143.831 80.0069" stroke="#CFC590" stroke-linecap="round" stroke-linejoin="round"/>
<path d="M126.517 86.5818L117.303 71.4614" stroke="#CFC590" stroke-linecap="round" stroke-linejoin="round"/>
<path d="M126.517 86.5818L143.348 79.3573" stroke="#CFC590" stroke-linecap="round" stroke-linejoin="round"/>
<path d="M93.3938 101.961L88.6937 79.8459" stroke="#CFC590" stroke-linecap="round" stroke-linejoin="round"/>
<path d="M107.459 86.4907L89.177 79.1963" stroke="#CFC590" stroke-linecap="round" stroke-linejoin="round"/>
<path d="M107.861 86.5818L117.074 71.4614" stroke="#CFC590" stroke-linecap="round" stroke-linejoin="round"/>
<path d="M139.131 102.122H93.8852" stroke="#CFC590" stroke-linecap="round" stroke-linejoin="round"/>
<defs>
<filter id="filter0_f" x="63.784" y="111.604" width="135.462" height="14.806" filterUnits="userSpaceOnUse" color-interpolation-filters="sRGB">
<feFlood flood-opacity="0" result="BackgroundImageFix"/>
<feBlend mode="normal" in="SourceGraphic" in2="BackgroundImageFix" result="shape"/>
<feGaussianBlur stdDeviation="0.125" result="effect1_foregroundBlur"/>
</filter>
<filter id="filter1_f" x="49.568" y="114.23" width="7.574" height="12.164" filterUnits="userSpaceOnUse" color-interpolation-filters="sRGB">
<feFlood flood-opacity="0" result="BackgroundImageFix"/>
<feBlend mode="normal" in="SourceGraphic" in2="BackgroundImageFix" result="shape"/>
<feGaussianBlur stdDeviation="0.125" result="effect1_foregroundBlur"/>
</filter>
<filter id="filter2_f" x="42.738" y="109.422" width="12.616" height="16.828" filterUnits="userSpaceOnUse" color-interpolation-filters="sRGB">
<feFlood flood-opacity="0" result="BackgroundImageFix"/>
<feBlend mode="normal" in="SourceGraphic" in2="BackgroundImageFix" result="shape"/>
<feGaussianBlur stdDeviation="0.125" result="effect1_foregroundBlur"/>
</filter>
<filter id="filter3_f" x="146.799" y="102.956" width="79.6803" height="1.5" filterUnits="userSpaceOnUse" color-interpolation-filters="sRGB">
<feFlood flood-opacity="0" result="BackgroundImageFix"/>
<feBlend mode="normal" in="SourceGraphic" in2="BackgroundImageFix" result="shape"/>
<feGaussianBlur stdDeviation="0.125" result="effect1_foregroundBlur"/>
</filter>
<filter id="filter4_f" x="6.5369" y="102.956" width="79.6803" height="1.5" filterUnits="userSpaceOnUse" color-interpolation-filters="sRGB">
<feFlood flood-opacity="0" result="BackgroundImageFix"/>
<feBlend mode="normal" in="SourceGraphic" in2="BackgroundImageFix" result="shape"/>
<feGaussianBlur stdDeviation="0.125" result="effect1_foregroundBlur"/>
</filter>
</defs>
</svg>
