<svg width="623" height="271" viewBox="0 0 623 271" fill="none" xmlns="http://www.w3.org/2000/svg">
<rect width="623" height="271" fill="#3B3D30"/>
<g filter="url(#filter0_f)">
<line x1="326" y1="101.5" x2="386" y2="101.5" stroke="#A69B75"/>
</g>
<g filter="url(#filter1_f)">
<line x1="237" y1="101.5" x2="297" y2="101.5" stroke="#A69B75"/>
</g>
<path fill-rule="evenodd" clip-rule="evenodd" d="M314.488 95.0202L311.501 89.474L308.515 95.0202C308.501 95.0868 308.466 95.1537 308.41 95.2152L308.398 95.2371C308.267 95.4802 307.964 95.5712 307.721 95.4402C307.683 95.4198 307.648 95.3951 307.618 95.3671L307.617 95.3664L302.206 92.7383L303.897 100.5H319.232L320.838 92.7181L315.386 95.3664L315.384 95.3671C315.354 95.3951 315.32 95.4198 315.282 95.4402C315.039 95.5712 314.735 95.4802 314.604 95.2371L314.593 95.2152C314.536 95.1537 314.502 95.0868 314.488 95.0202ZM303.053 101.091C303.096 101.324 303.3 101.5 303.545 101.5H319.545C319.752 101.5 319.93 101.374 320.005 101.194C320.075 101.117 320.125 101.024 320.146 100.923L321.971 92.079C321.999 92.0199 322.009 91.9549 321.998 91.8892C321.993 91.675 321.835 91.5127 321.605 91.5038C321.437 91.4505 321.248 91.4548 321.097 91.528L315.268 94.3596L311.985 88.263C311.887 88.0818 311.694 87.9851 311.501 88.0019C311.308 87.9851 311.115 88.0818 311.017 88.263L307.735 94.3596L301.905 91.528C301.741 91.4483 301.531 91.4503 301.353 91.5193C301.227 91.5442 301.13 91.6186 301.077 91.7216C300.973 91.8643 300.976 92.0276 301.076 92.1486L302.989 100.929C303.002 100.986 303.023 101.04 303.053 101.091Z" fill="#A69B75"/>
<path d="M147.529 132C147.609 132 147.649 132.08 147.649 132.24C147.649 132.4 147.609 132.48 147.529 132.48C146.622 132.48 145.862 132.68 145.249 133.08C144.662 133.453 144.142 134.173 143.689 135.24L134.889 156.96C134.862 157.067 134.715 157.12 134.449 157.12C134.235 157.12 134.089 157.067 134.009 156.96L128.769 145.48L124.129 156.96C124.102 157.067 123.955 157.12 123.689 157.12C123.475 157.12 123.329 157.067 123.249 156.96L113.369 135.32C112.915 134.28 112.422 133.547 111.889 133.12C111.382 132.693 110.715 132.48 109.889 132.48C109.809 132.48 109.769 132.4 109.769 132.24C109.769 132.08 109.809 132 109.889 132L111.609 132.04C112.355 132.093 112.915 132.12 113.289 132.12C114.062 132.12 114.982 132.093 116.049 132.04L117.769 132C117.849 132 117.889 132.08 117.889 132.24C117.889 132.4 117.849 132.48 117.769 132.48C116.942 132.48 116.315 132.573 115.889 132.76C115.462 132.947 115.249 133.28 115.249 133.76C115.249 134.027 115.355 134.413 115.569 134.92L124.409 154L128.289 144.44L124.129 135.32C123.675 134.28 123.182 133.547 122.649 133.12C122.142 132.693 121.475 132.48 120.649 132.48C120.569 132.48 120.529 132.4 120.529 132.24C120.529 132.08 120.569 132 120.649 132L122.369 132.04C123.115 132.093 123.675 132.12 124.049 132.12C124.609 132.12 125.262 132.093 126.009 132.04L127.129 132C127.209 132 127.249 132.08 127.249 132.24C127.249 132.4 127.209 132.48 127.129 132.48C126.595 132.48 126.222 132.52 126.009 132.6C125.795 132.68 125.689 132.84 125.689 133.08C125.689 133.32 125.902 133.933 126.329 134.92L129.529 141.8L132.289 135C132.529 134.44 132.649 133.973 132.649 133.6C132.649 133.2 132.489 132.92 132.169 132.76C131.875 132.573 131.395 132.48 130.729 132.48C130.675 132.48 130.649 132.4 130.649 132.24C130.649 132.08 130.675 132 130.729 132L131.849 132.04C132.382 132.093 132.889 132.12 133.369 132.12C133.902 132.12 134.515 132.093 135.209 132.04L136.929 132C136.982 132 137.009 132.08 137.009 132.24C137.009 132.4 136.982 132.48 136.929 132.48C136.022 132.48 135.262 132.68 134.649 133.08C134.035 133.453 133.515 134.173 133.089 135.24L130.009 142.84L135.169 154L142.889 135C143.075 134.6 143.169 134.213 143.169 133.84C143.169 133.36 142.915 133.013 142.409 132.8C141.929 132.587 141.115 132.48 139.969 132.48C139.889 132.48 139.849 132.4 139.849 132.24C139.849 132.08 139.889 132 139.969 132L141.569 132.04C142.475 132.093 143.275 132.12 143.969 132.12C144.529 132.12 145.155 132.093 145.849 132.04L147.529 132ZM158.658 154.84C158.738 154.84 158.805 154.893 158.858 155C158.938 155.08 158.951 155.16 158.898 155.24C157.138 156.733 155.231 157.48 153.178 157.48C151.658 157.48 150.365 157.12 149.298 156.4C148.231 155.68 147.418 154.747 146.858 153.6C146.325 152.427 146.058 151.16 146.058 149.8C146.058 148.227 146.431 146.787 147.178 145.48C147.925 144.147 148.925 143.107 150.178 142.36C151.458 141.587 152.845 141.2 154.338 141.2C155.831 141.2 156.951 141.613 157.698 142.44C158.471 143.24 158.858 144.347 158.858 145.76C158.858 146.133 158.818 146.4 158.738 146.56C158.685 146.693 158.565 146.76 158.378 146.76L148.418 146.8C148.365 147.44 148.338 147.96 148.338 148.36C148.338 150.68 148.885 152.573 149.978 154.04C151.071 155.48 152.605 156.2 154.578 156.2C155.405 156.2 156.111 156.093 156.698 155.88C157.285 155.64 157.925 155.293 158.618 154.84H158.658ZM153.058 142C151.858 142 150.858 142.387 150.058 143.16C149.285 143.907 148.765 144.96 148.498 146.32L156.538 146.16C156.565 144.773 156.258 143.733 155.618 143.04C155.005 142.347 154.151 142 153.058 142ZM182.884 141.04C183.977 141.04 184.991 141.333 185.924 141.92C186.857 142.507 187.591 143.36 188.124 144.48C188.684 145.573 188.964 146.88 188.964 148.4C188.964 150.373 188.511 152.053 187.604 153.44C186.697 154.8 185.577 155.827 184.244 156.52C182.911 157.187 181.631 157.52 180.404 157.52C179.524 157.52 178.737 157.427 178.044 157.24C177.351 157.053 176.657 156.72 175.964 156.24V164.76C175.964 165.56 176.071 166.147 176.284 166.52C176.497 166.893 176.884 167.147 177.444 167.28C178.004 167.44 178.884 167.52 180.084 167.52C180.137 167.52 180.164 167.6 180.164 167.76C180.164 167.92 180.137 168 180.084 168C179.177 168 178.471 167.987 177.964 167.96L175.084 167.92L172.924 167.96C172.577 167.987 172.097 168 171.484 168C171.404 168 171.364 167.92 171.364 167.76C171.364 167.6 171.404 167.52 171.484 167.52C172.231 167.52 172.777 167.44 173.124 167.28C173.497 167.147 173.751 166.893 173.884 166.52C174.017 166.147 174.084 165.56 174.084 164.76V145.88C174.084 144.893 173.977 144.187 173.764 143.76C173.551 143.333 173.164 143.12 172.604 143.12C171.964 143.12 171.231 143.32 170.404 143.72H170.324C170.217 143.72 170.151 143.667 170.124 143.56C170.071 143.427 170.097 143.333 170.204 143.28L174.324 141.32L174.644 141.24C175.044 141.24 175.364 141.547 175.604 142.16C175.844 142.747 175.964 143.6 175.964 144.72C177.164 143.44 178.324 142.507 179.444 141.92C180.564 141.333 181.711 141.04 182.884 141.04ZM181.724 156.72C182.657 156.72 183.511 156.44 184.284 155.88C185.057 155.293 185.657 154.467 186.084 153.4C186.537 152.333 186.764 151.08 186.764 149.64C186.764 147.347 186.257 145.56 185.244 144.28C184.257 143 182.991 142.36 181.444 142.36C180.431 142.36 179.484 142.627 178.604 143.16C177.751 143.667 176.871 144.4 175.964 145.36V154.04C176.737 154.92 177.564 155.587 178.444 156.04C179.351 156.493 180.444 156.72 181.724 156.72ZM201.315 141.2C201.901 141.2 202.448 141.36 202.955 141.68C203.488 141.973 203.755 142.32 203.755 142.72C203.755 142.987 203.648 143.227 203.435 143.44C203.248 143.653 202.968 143.76 202.595 143.76C202.328 143.76 202.088 143.693 201.875 143.56C201.661 143.4 201.528 143.307 201.475 143.28C200.968 142.88 200.461 142.68 199.955 142.68C199.581 142.68 199.181 142.84 198.755 143.16C198.355 143.48 197.728 144.16 196.875 145.2V153.76C196.875 154.56 196.968 155.16 197.155 155.56C197.341 155.933 197.701 156.187 198.235 156.32C198.795 156.453 199.675 156.52 200.875 156.52C200.955 156.52 200.995 156.6 200.995 156.76C200.995 156.92 200.955 157 200.875 157C200.021 157 199.341 156.987 198.835 156.96L195.955 156.92L193.835 156.96C193.488 156.987 193.008 157 192.395 157C192.315 157 192.275 156.92 192.275 156.76C192.275 156.6 192.315 156.52 192.395 156.52C193.168 156.52 193.728 156.453 194.075 156.32C194.421 156.187 194.661 155.933 194.795 155.56C194.928 155.16 194.995 154.56 194.995 153.76V145.76C194.995 144.827 194.888 144.16 194.675 143.76C194.461 143.36 194.088 143.16 193.555 143.16C193.128 143.16 192.381 143.36 191.315 143.76H191.235C191.128 143.76 191.048 143.707 190.995 143.6C190.968 143.467 191.008 143.373 191.115 143.32L195.555 141.24C195.608 141.213 195.675 141.2 195.755 141.2C195.968 141.2 196.208 141.507 196.475 142.12C196.741 142.707 196.875 143.467 196.875 144.4V144.64C197.968 143.307 198.835 142.4 199.475 141.92C200.115 141.44 200.728 141.2 201.315 141.2ZM213.7 157.52C212.18 157.52 210.833 157.147 209.66 156.4C208.487 155.627 207.58 154.6 206.94 153.32C206.3 152.013 205.98 150.6 205.98 149.08C205.98 147.347 206.393 145.88 207.22 144.68C208.073 143.453 209.14 142.547 210.42 141.96C211.727 141.347 213.06 141.04 214.42 141.04C215.967 141.04 217.313 141.427 218.46 142.2C219.633 142.973 220.527 144 221.14 145.28C221.78 146.533 222.1 147.867 222.1 149.28C222.1 150.933 221.713 152.387 220.94 153.64C220.193 154.893 219.18 155.853 217.9 156.52C216.62 157.187 215.22 157.52 213.7 157.52ZM214.82 156.8C216.367 156.8 217.58 156.28 218.46 155.24C219.34 154.2 219.78 152.56 219.78 150.32C219.78 148.72 219.5 147.28 218.94 146C218.38 144.693 217.593 143.667 216.58 142.92C215.567 142.173 214.407 141.8 213.1 141.8C211.58 141.8 210.393 142.333 209.54 143.4C208.687 144.44 208.26 145.947 208.26 147.92C208.26 149.52 208.54 151 209.1 152.36C209.66 153.693 210.433 154.773 211.42 155.6C212.407 156.4 213.54 156.8 214.82 156.8ZM235.883 155.12C235.963 155.12 236.029 155.187 236.083 155.32C236.136 155.427 236.123 155.507 236.043 155.56C235.056 156.253 234.189 156.747 233.443 157.04C232.696 157.333 231.923 157.48 231.123 157.48C230.029 157.48 229.136 157.24 228.443 156.76C227.749 156.253 227.403 155.427 227.403 154.28V144.76C227.403 144.04 227.349 143.547 227.243 143.28C227.163 142.987 226.989 142.8 226.723 142.72C226.456 142.613 225.989 142.56 225.323 142.56C225.243 142.56 225.203 142.48 225.203 142.32C225.203 142.16 225.243 142.08 225.323 142.08C226.336 142.08 227.149 141.8 227.763 141.24C228.403 140.68 228.723 139.973 228.723 139.12C228.723 139.04 228.829 139 229.043 139C229.229 139 229.323 139.04 229.323 139.12V142.04C231.136 142.013 233.016 141.88 234.963 141.64C235.043 141.64 235.109 141.733 235.163 141.92C235.216 142.08 235.243 142.293 235.243 142.56C235.243 142.773 235.203 142.987 235.123 143.2C235.043 143.413 234.949 143.507 234.843 143.48C233.243 143.08 231.403 142.88 229.323 142.88V152.92C229.323 155.133 230.403 156.24 232.563 156.24C233.789 156.24 234.869 155.88 235.803 155.16L235.883 155.12ZM251.197 154.84C251.277 154.84 251.344 154.893 251.397 155C251.477 155.08 251.491 155.16 251.437 155.24C249.677 156.733 247.771 157.48 245.717 157.48C244.197 157.48 242.904 157.12 241.837 156.4C240.771 155.68 239.957 154.747 239.397 153.6C238.864 152.427 238.597 151.16 238.597 149.8C238.597 148.227 238.971 146.787 239.717 145.48C240.464 144.147 241.464 143.107 242.717 142.36C243.997 141.587 245.384 141.2 246.877 141.2C248.371 141.2 249.491 141.613 250.237 142.44C251.011 143.24 251.397 144.347 251.397 145.76C251.397 146.133 251.357 146.4 251.277 146.56C251.224 146.693 251.104 146.76 250.917 146.76L240.957 146.8C240.904 147.44 240.877 147.96 240.877 148.36C240.877 150.68 241.424 152.573 242.517 154.04C243.611 155.48 245.144 156.2 247.117 156.2C247.944 156.2 248.651 156.093 249.237 155.88C249.824 155.64 250.464 155.293 251.157 154.84H251.197ZM245.597 142C244.397 142 243.397 142.387 242.597 143.16C241.824 143.907 241.304 144.96 241.037 146.32L249.077 146.16C249.104 144.773 248.797 143.733 248.157 143.04C247.544 142.347 246.691 142 245.597 142ZM262.294 157.48C260.587 157.48 259.147 157.107 257.974 156.36C256.827 155.587 255.974 154.6 255.414 153.4C254.854 152.2 254.574 150.933 254.574 149.6C254.574 147.893 254.987 146.413 255.814 145.16C256.667 143.88 257.747 142.907 259.054 142.24C260.387 141.547 261.747 141.2 263.134 141.2C264.28 141.2 265.32 141.427 266.254 141.88C267.214 142.333 267.694 142.867 267.694 143.48C267.694 143.8 267.587 144.08 267.374 144.32C267.16 144.533 266.88 144.64 266.534 144.64C265.92 144.64 265.387 144.267 264.934 143.52C264.587 143.013 264.174 142.64 263.694 142.4C263.24 142.133 262.627 142 261.854 142C260.254 142 259.014 142.587 258.134 143.76C257.28 144.907 256.854 146.467 256.854 148.44C256.854 150.68 257.427 152.547 258.574 154.04C259.72 155.507 261.427 156.24 263.694 156.24C265.4 156.24 266.774 155.773 267.814 154.84H267.894C267.974 154.84 268.04 154.88 268.094 154.96C268.174 155.04 268.174 155.107 268.094 155.16C267.187 155.96 266.267 156.547 265.334 156.92C264.4 157.293 263.387 157.48 262.294 157.48ZM281.703 155.12C281.783 155.12 281.849 155.187 281.903 155.32C281.956 155.427 281.943 155.507 281.863 155.56C280.876 156.253 280.009 156.747 279.263 157.04C278.516 157.333 277.743 157.48 276.943 157.48C275.849 157.48 274.956 157.24 274.263 156.76C273.569 156.253 273.223 155.427 273.223 154.28V144.76C273.223 144.04 273.169 143.547 273.063 143.28C272.983 142.987 272.809 142.8 272.543 142.72C272.276 142.613 271.809 142.56 271.143 142.56C271.063 142.56 271.023 142.48 271.023 142.32C271.023 142.16 271.063 142.08 271.143 142.08C272.156 142.08 272.969 141.8 273.583 141.24C274.223 140.68 274.543 139.973 274.543 139.12C274.543 139.04 274.649 139 274.863 139C275.049 139 275.143 139.04 275.143 139.12V142.04C276.956 142.013 278.836 141.88 280.783 141.64C280.863 141.64 280.929 141.733 280.983 141.92C281.036 142.08 281.063 142.293 281.063 142.56C281.063 142.773 281.023 142.987 280.943 143.2C280.863 143.413 280.769 143.507 280.663 143.48C279.063 143.08 277.223 142.88 275.143 142.88V152.92C275.143 155.133 276.223 156.24 278.383 156.24C279.609 156.24 280.689 155.88 281.623 155.16L281.703 155.12ZM293.953 157C293.873 157 293.833 156.92 293.833 156.76C293.833 156.6 293.873 156.52 293.953 156.52C294.726 156.52 295.286 156.453 295.633 156.32C295.979 156.187 296.219 155.933 296.353 155.56C296.486 155.16 296.553 154.56 296.553 153.76V133C296.553 132.013 296.459 131.307 296.273 130.88C296.086 130.453 295.753 130.24 295.273 130.24C294.846 130.24 294.206 130.44 293.353 130.84H293.273C293.166 130.84 293.086 130.773 293.033 130.64C293.006 130.507 293.046 130.427 293.153 130.4L298.073 128.04C298.126 128.013 298.193 128 298.273 128C298.326 128 298.379 128.027 298.433 128.08C298.513 128.133 298.553 128.2 298.553 128.28V153.76C298.553 154.56 298.606 155.147 298.713 155.52C298.846 155.893 299.086 156.16 299.433 156.32C299.806 156.453 300.379 156.52 301.153 156.52C301.233 156.52 301.273 156.6 301.273 156.76C301.273 156.92 301.233 157 301.153 157C300.566 157 300.086 156.987 299.713 156.96L297.553 156.92L295.393 156.96C295.046 156.987 294.566 157 293.953 157ZM308.067 136.36C307.56 136.36 307.16 136.227 306.867 135.96C306.6 135.693 306.467 135.32 306.467 134.84C306.467 134.36 306.6 133.987 306.867 133.72C307.16 133.453 307.56 133.32 308.067 133.32C308.547 133.32 308.92 133.453 309.187 133.72C309.454 133.987 309.587 134.36 309.587 134.84C309.587 135.32 309.454 135.693 309.187 135.96C308.92 136.227 308.547 136.36 308.067 136.36ZM304.827 157C304.774 157 304.747 156.92 304.747 156.76C304.747 156.6 304.774 156.52 304.827 156.52C305.6 156.52 306.16 156.453 306.507 156.32C306.88 156.187 307.134 155.933 307.267 155.56C307.4 155.16 307.467 154.56 307.467 153.76V146.2C307.467 145.213 307.36 144.507 307.147 144.08C306.96 143.653 306.627 143.44 306.147 143.44C305.64 143.44 305 143.64 304.227 144.04H304.187C304.08 144.04 304 143.973 303.947 143.84C303.894 143.707 303.92 143.613 304.027 143.56L308.987 141.24L309.147 141.2C309.2 141.2 309.254 141.227 309.307 141.28C309.387 141.333 309.427 141.4 309.427 141.48C309.427 141.64 309.414 142.173 309.387 143.08C309.36 143.96 309.347 144.987 309.347 146.16V153.76C309.347 154.56 309.4 155.16 309.507 155.56C309.64 155.933 309.88 156.187 310.227 156.32C310.6 156.453 311.174 156.52 311.947 156.52C312.027 156.52 312.067 156.6 312.067 156.76C312.067 156.92 312.027 157 311.947 157C311.334 157 310.854 156.987 310.507 156.96L308.387 156.92L306.307 156.96C305.934 156.987 305.44 157 304.827 157ZM330.563 141.56C330.616 141.56 330.643 141.64 330.643 141.8C330.643 141.96 330.616 142.04 330.563 142.04C329.896 142.04 329.349 142.24 328.923 142.64C328.496 143.013 328.069 143.733 327.643 144.8L322.643 156.96C322.616 157.067 322.469 157.12 322.203 157.12C321.936 157.12 321.789 157.067 321.763 156.96L316.283 144.88C315.749 143.707 315.309 142.947 314.963 142.6C314.643 142.227 314.229 142.04 313.723 142.04C313.643 142.04 313.603 141.96 313.603 141.8C313.603 141.64 313.643 141.56 313.723 141.56C314.256 141.56 314.669 141.573 314.963 141.6L316.163 141.64L318.683 141.6C319.056 141.573 319.563 141.56 320.203 141.56C320.283 141.56 320.323 141.64 320.323 141.8C320.323 141.96 320.283 142.04 320.203 142.04C318.576 142.04 317.763 142.36 317.763 143C317.763 143.187 317.816 143.387 317.923 143.6L322.883 154.44L326.963 144.56C327.123 144.107 327.203 143.747 327.203 143.48C327.203 142.973 326.936 142.613 326.403 142.4C325.896 142.16 325.056 142.04 323.883 142.04C323.829 142.04 323.803 141.96 323.803 141.8C323.803 141.64 323.829 141.56 323.883 141.56C324.603 141.56 325.149 141.573 325.523 141.6L327.923 141.64L329.323 141.6C329.589 141.573 330.003 141.56 330.563 141.56ZM344.947 154.84C345.027 154.84 345.094 154.893 345.147 155C345.227 155.08 345.241 155.16 345.187 155.24C343.427 156.733 341.521 157.48 339.467 157.48C337.947 157.48 336.654 157.12 335.587 156.4C334.521 155.68 333.707 154.747 333.147 153.6C332.614 152.427 332.347 151.16 332.347 149.8C332.347 148.227 332.721 146.787 333.467 145.48C334.214 144.147 335.214 143.107 336.467 142.36C337.747 141.587 339.134 141.2 340.627 141.2C342.121 141.2 343.241 141.613 343.987 142.44C344.761 143.24 345.147 144.347 345.147 145.76C345.147 146.133 345.107 146.4 345.027 146.56C344.974 146.693 344.854 146.76 344.667 146.76L334.707 146.8C334.654 147.44 334.627 147.96 334.627 148.36C334.627 150.68 335.174 152.573 336.267 154.04C337.361 155.48 338.894 156.2 340.867 156.2C341.694 156.2 342.401 156.093 342.987 155.88C343.574 155.64 344.214 155.293 344.907 154.84H344.947ZM339.347 142C338.147 142 337.147 142.387 336.347 143.16C335.574 143.907 335.054 144.96 334.787 146.32L342.827 146.16C342.854 144.773 342.547 143.733 341.907 143.04C341.294 142.347 340.441 142 339.347 142ZM350.918 144.12C350.918 145.107 351.225 145.88 351.838 146.44C352.451 146.973 353.385 147.547 354.638 148.16C355.545 148.613 356.265 149.013 356.798 149.36C357.331 149.707 357.785 150.16 358.158 150.72C358.531 151.253 358.718 151.907 358.718 152.68C358.718 154.013 358.211 155.147 357.198 156.08C356.211 156.987 354.851 157.44 353.118 157.44C351.705 157.44 350.451 157.027 349.358 156.2C349.198 156.093 349.118 155.933 349.118 155.72L349.038 152.84C349.038 152.76 349.105 152.72 349.238 152.72C349.398 152.693 349.491 152.72 349.518 152.8C350.025 154.133 350.665 155.12 351.438 155.76C352.238 156.373 353.185 156.68 354.278 156.68C355.185 156.68 355.878 156.48 356.358 156.08C356.838 155.68 357.078 155.093 357.078 154.32C357.078 153.547 356.905 152.907 356.558 152.4C356.238 151.867 355.825 151.44 355.318 151.12C354.838 150.8 354.171 150.44 353.318 150.04C352.438 149.613 351.731 149.24 351.198 148.92C350.691 148.573 350.251 148.12 349.878 147.56C349.531 147 349.358 146.307 349.358 145.48C349.358 144.067 349.891 142.973 350.958 142.2C352.025 141.427 353.278 141.04 354.718 141.04C355.705 141.04 356.651 141.24 357.558 141.64C357.718 141.72 357.811 141.787 357.838 141.84C357.891 141.893 357.918 141.973 357.918 142.08C357.918 142.587 357.905 142.987 357.878 143.28L357.838 144.84C357.838 144.893 357.758 144.92 357.598 144.92C357.438 144.92 357.358 144.893 357.358 144.84C357.358 143.987 356.918 143.28 356.038 142.72C355.158 142.133 354.225 141.84 353.238 141.84C352.518 141.84 351.945 142.04 351.518 142.44C351.118 142.813 350.918 143.373 350.918 144.12ZM386.529 154.84C386.635 154.84 386.702 154.907 386.729 155.04C386.755 155.147 386.715 155.227 386.609 155.28L382.489 157.24C382.382 157.293 382.275 157.32 382.169 157.32C381.875 157.32 381.609 157.093 381.369 156.64C381.129 156.16 380.982 155.52 380.929 154.72L378.729 156.08C378.062 156.507 377.475 156.813 376.969 157C376.462 157.187 375.942 157.28 375.409 157.28C374.475 157.28 373.729 157.013 373.169 156.48C372.635 155.947 372.369 155.307 372.369 154.56C372.369 153.813 372.662 153.147 373.249 152.56C373.835 151.947 374.849 151.373 376.289 150.84L380.889 149.12V146.32C380.889 143.387 379.982 141.92 378.169 141.92C377.262 141.92 376.555 142.213 376.049 142.8C375.542 143.36 375.195 144.027 375.009 144.8C374.902 145.28 374.769 145.653 374.609 145.92C374.475 146.16 374.182 146.28 373.729 146.28C373.355 146.28 373.062 146.173 372.849 145.96C372.635 145.72 372.529 145.453 372.529 145.16C372.529 144.573 372.915 143.973 373.689 143.36C374.489 142.72 375.449 142.2 376.569 141.8C377.689 141.373 378.689 141.16 379.569 141.16C380.635 141.16 381.422 141.507 381.929 142.2C382.462 142.893 382.729 143.867 382.729 145.12V152.68C382.729 153.667 382.835 154.373 383.049 154.8C383.289 155.227 383.689 155.44 384.249 155.44C384.755 155.44 385.489 155.24 386.449 154.84H386.529ZM380.889 154.16V154.04V149.68L376.649 151.28C375.875 151.6 375.342 151.947 375.049 152.32C374.755 152.693 374.609 153.133 374.609 153.64C374.609 154.28 374.809 154.827 375.209 155.28C375.609 155.733 376.169 155.96 376.889 155.96C377.475 155.96 378.169 155.733 378.969 155.28L380.889 154.16ZM406.407 156.52C406.487 156.52 406.527 156.6 406.527 156.76C406.527 156.92 406.487 157 406.407 157C405.793 157 405.313 156.987 404.967 156.96L402.887 156.92L400.767 156.96C400.42 156.987 399.94 157 399.327 157C399.247 157 399.207 156.92 399.207 156.76C399.207 156.6 399.247 156.52 399.327 156.52C400.1 156.52 400.66 156.453 401.007 156.32C401.353 156.187 401.593 155.933 401.727 155.56C401.86 155.16 401.927 154.56 401.927 153.76V147.08C401.927 145.453 401.62 144.267 401.007 143.52C400.393 142.773 399.433 142.4 398.127 142.4C397.273 142.4 396.393 142.653 395.487 143.16C394.607 143.64 393.793 144.307 393.047 145.16V153.76C393.047 154.56 393.1 155.16 393.207 155.56C393.34 155.933 393.58 156.187 393.927 156.32C394.3 156.453 394.873 156.52 395.647 156.52C395.727 156.52 395.767 156.6 395.767 156.76C395.767 156.92 395.727 157 395.647 157C395.033 157 394.553 156.987 394.207 156.96L392.127 156.92L390.007 156.96C389.66 156.987 389.18 157 388.567 157C388.487 157 388.447 156.92 388.447 156.76C388.447 156.6 388.487 156.52 388.567 156.52C389.34 156.52 389.9 156.453 390.247 156.32C390.593 156.187 390.833 155.933 390.967 155.56C391.1 155.16 391.167 154.56 391.167 153.76V145.76C391.167 144.827 391.06 144.16 390.847 143.76C390.633 143.36 390.26 143.16 389.727 143.16C389.3 143.16 388.553 143.36 387.487 143.76H387.407C387.3 143.76 387.22 143.707 387.167 143.6C387.14 143.467 387.18 143.373 387.287 143.32L391.727 141.24C391.78 141.213 391.847 141.2 391.927 141.2C392.14 141.2 392.38 141.507 392.647 142.12C392.913 142.707 393.047 143.467 393.047 144.4V144.56C394.113 143.333 395.14 142.44 396.127 141.88C397.113 141.32 398.14 141.04 399.207 141.04C400.7 141.04 401.833 141.44 402.607 142.24C403.407 143.04 403.807 144.253 403.807 145.88V153.76C403.807 154.56 403.86 155.16 403.967 155.56C404.1 155.933 404.34 156.187 404.687 156.32C405.06 156.453 405.633 156.52 406.407 156.52ZM427.593 154.8C427.699 154.8 427.766 154.867 427.793 155C427.846 155.133 427.819 155.227 427.713 155.28L423.593 157.24C423.486 157.293 423.379 157.32 423.273 157.32C422.899 157.32 422.579 157.027 422.313 156.44C422.073 155.827 421.939 154.973 421.913 153.88C420.899 154.973 419.833 155.853 418.713 156.52C417.619 157.187 416.393 157.52 415.033 157.52C413.913 157.52 412.873 157.2 411.913 156.56C410.979 155.92 410.219 155.027 409.633 153.88C409.073 152.707 408.793 151.387 408.793 149.92C408.793 148.053 409.259 146.453 410.193 145.12C411.126 143.76 412.299 142.747 413.713 142.08C415.126 141.387 416.526 141.04 417.913 141.04C419.326 141.04 420.659 141.453 421.913 142.28V133.04C421.913 132.053 421.806 131.347 421.593 130.92C421.406 130.493 421.059 130.28 420.553 130.28C420.339 130.28 420.059 130.347 419.713 130.48C419.393 130.587 419.033 130.72 418.633 130.88H418.553C418.446 130.88 418.379 130.827 418.353 130.72C418.326 130.587 418.353 130.493 418.433 130.44L423.313 128.04C423.366 128.013 423.433 128 423.513 128C423.566 128 423.619 128.027 423.673 128.08C423.753 128.133 423.793 128.2 423.793 128.28V152.68C423.793 153.667 423.899 154.373 424.113 154.8C424.353 155.227 424.753 155.44 425.313 155.44C426.139 155.44 426.873 155.24 427.512 154.84L427.593 154.8ZM416.433 156.2C417.446 156.2 418.393 155.947 419.273 155.44C420.153 154.907 421.033 154.173 421.913 153.24V144.76C421.219 143.827 420.459 143.107 419.633 142.6C418.833 142.067 417.859 141.8 416.713 141.8C414.979 141.8 413.593 142.413 412.553 143.64C411.513 144.867 410.993 146.573 410.993 148.76C410.993 150.227 411.233 151.52 411.713 152.64C412.193 153.76 412.846 154.64 413.673 155.28C414.499 155.893 415.419 156.2 416.433 156.2ZM453.755 154.84C453.862 154.84 453.929 154.907 453.955 155.04C453.982 155.147 453.942 155.227 453.835 155.28L449.715 157.24C449.609 157.293 449.502 157.32 449.395 157.32C449.102 157.32 448.835 157.093 448.595 156.64C448.355 156.16 448.209 155.52 448.155 154.72L445.955 156.08C445.289 156.507 444.702 156.813 444.195 157C443.689 157.187 443.169 157.28 442.635 157.28C441.702 157.28 440.955 157.013 440.395 156.48C439.862 155.947 439.595 155.307 439.595 154.56C439.595 153.813 439.889 153.147 440.475 152.56C441.062 151.947 442.075 151.373 443.515 150.84L448.115 149.12V146.32C448.115 143.387 447.209 141.92 445.395 141.92C444.489 141.92 443.782 142.213 443.275 142.8C442.769 143.36 442.422 144.027 442.235 144.8C442.129 145.28 441.995 145.653 441.835 145.92C441.702 146.16 441.409 146.28 440.955 146.28C440.582 146.28 440.289 146.173 440.075 145.96C439.862 145.72 439.755 145.453 439.755 145.16C439.755 144.573 440.142 143.973 440.915 143.36C441.715 142.72 442.675 142.2 443.795 141.8C444.915 141.373 445.915 141.16 446.795 141.16C447.862 141.16 448.649 141.507 449.155 142.2C449.689 142.893 449.955 143.867 449.955 145.12V152.68C449.955 153.667 450.062 154.373 450.275 154.8C450.515 155.227 450.915 155.44 451.475 155.44C451.982 155.44 452.715 155.24 453.675 154.84H453.755ZM448.115 154.16V154.04V149.68L443.875 151.28C443.102 151.6 442.569 151.947 442.275 152.32C441.982 152.693 441.835 153.133 441.835 153.64C441.835 154.28 442.035 154.827 442.435 155.28C442.835 155.733 443.395 155.96 444.115 155.96C444.702 155.96 445.395 155.733 446.195 155.28L448.115 154.16ZM457.793 144.12C457.793 145.107 458.1 145.88 458.713 146.44C459.326 146.973 460.26 147.547 461.513 148.16C462.42 148.613 463.14 149.013 463.673 149.36C464.206 149.707 464.66 150.16 465.033 150.72C465.406 151.253 465.593 151.907 465.593 152.68C465.593 154.013 465.086 155.147 464.073 156.08C463.086 156.987 461.726 157.44 459.993 157.44C458.58 157.44 457.326 157.027 456.233 156.2C456.073 156.093 455.993 155.933 455.993 155.72L455.913 152.84C455.913 152.76 455.98 152.72 456.113 152.72C456.273 152.693 456.366 152.72 456.393 152.8C456.9 154.133 457.54 155.12 458.313 155.76C459.113 156.373 460.06 156.68 461.153 156.68C462.06 156.68 462.753 156.48 463.233 156.08C463.713 155.68 463.953 155.093 463.953 154.32C463.953 153.547 463.78 152.907 463.433 152.4C463.113 151.867 462.7 151.44 462.193 151.12C461.713 150.8 461.046 150.44 460.193 150.04C459.313 149.613 458.606 149.24 458.073 148.92C457.566 148.573 457.126 148.12 456.753 147.56C456.406 147 456.233 146.307 456.233 145.48C456.233 144.067 456.766 142.973 457.833 142.2C458.9 141.427 460.153 141.04 461.593 141.04C462.58 141.04 463.526 141.24 464.433 141.64C464.593 141.72 464.686 141.787 464.713 141.84C464.766 141.893 464.793 141.973 464.793 142.08C464.793 142.587 464.78 142.987 464.753 143.28L464.713 144.84C464.713 144.893 464.633 144.92 464.473 144.92C464.313 144.92 464.233 144.893 464.233 144.84C464.233 143.987 463.793 143.28 462.913 142.72C462.033 142.133 461.1 141.84 460.113 141.84C459.393 141.84 458.82 142.04 458.393 142.44C457.993 142.813 457.793 143.373 457.793 144.12ZM471.074 144.12C471.074 145.107 471.381 145.88 471.994 146.44C472.608 146.973 473.541 147.547 474.794 148.16C475.701 148.613 476.421 149.013 476.954 149.36C477.488 149.707 477.941 150.16 478.314 150.72C478.688 151.253 478.874 151.907 478.874 152.68C478.874 154.013 478.368 155.147 477.354 156.08C476.368 156.987 475.008 157.44 473.274 157.44C471.861 157.44 470.608 157.027 469.514 156.2C469.354 156.093 469.274 155.933 469.274 155.72L469.194 152.84C469.194 152.76 469.261 152.72 469.394 152.72C469.554 152.693 469.648 152.72 469.674 152.8C470.181 154.133 470.821 155.12 471.594 155.76C472.394 156.373 473.341 156.68 474.434 156.68C475.341 156.68 476.034 156.48 476.514 156.08C476.994 155.68 477.234 155.093 477.234 154.32C477.234 153.547 477.061 152.907 476.714 152.4C476.394 151.867 475.981 151.44 475.474 151.12C474.994 150.8 474.328 150.44 473.474 150.04C472.594 149.613 471.888 149.24 471.354 148.92C470.848 148.573 470.408 148.12 470.034 147.56C469.688 147 469.514 146.307 469.514 145.48C469.514 144.067 470.048 142.973 471.114 142.2C472.181 141.427 473.434 141.04 474.874 141.04C475.861 141.04 476.808 141.24 477.714 141.64C477.874 141.72 477.968 141.787 477.994 141.84C478.048 141.893 478.074 141.973 478.074 142.08C478.074 142.587 478.061 142.987 478.034 143.28L477.994 144.84C477.994 144.893 477.914 144.92 477.754 144.92C477.594 144.92 477.514 144.893 477.514 144.84C477.514 143.987 477.074 143.28 476.194 142.72C475.314 142.133 474.381 141.84 473.394 141.84C472.674 141.84 472.101 142.04 471.674 142.44C471.274 142.813 471.074 143.373 471.074 144.12ZM494.83 154.84C494.91 154.84 494.977 154.893 495.03 155C495.11 155.08 495.123 155.16 495.07 155.24C493.31 156.733 491.403 157.48 489.35 157.48C487.83 157.48 486.537 157.12 485.47 156.4C484.403 155.68 483.59 154.747 483.03 153.6C482.497 152.427 482.23 151.16 482.23 149.8C482.23 148.227 482.603 146.787 483.35 145.48C484.097 144.147 485.097 143.107 486.35 142.36C487.63 141.587 489.017 141.2 490.51 141.2C492.003 141.2 493.123 141.613 493.87 142.44C494.643 143.24 495.03 144.347 495.03 145.76C495.03 146.133 494.99 146.4 494.91 146.56C494.857 146.693 494.737 146.76 494.55 146.76L484.59 146.8C484.537 147.44 484.51 147.96 484.51 148.36C484.51 150.68 485.057 152.573 486.15 154.04C487.243 155.48 488.777 156.2 490.75 156.2C491.577 156.2 492.283 156.093 492.87 155.88C493.457 155.64 494.097 155.293 494.79 154.84H494.83ZM489.23 142C488.03 142 487.03 142.387 486.23 143.16C485.457 143.907 484.937 144.96 484.67 146.32L492.71 146.16C492.737 144.773 492.43 143.733 491.79 143.04C491.177 142.347 490.323 142 489.23 142ZM509.281 155.12C509.361 155.12 509.428 155.187 509.481 155.32C509.534 155.427 509.521 155.507 509.441 155.56C508.454 156.253 507.588 156.747 506.841 157.04C506.094 157.333 505.321 157.48 504.521 157.48C503.428 157.48 502.534 157.24 501.841 156.76C501.148 156.253 500.801 155.427 500.801 154.28V144.76C500.801 144.04 500.748 143.547 500.641 143.28C500.561 142.987 500.388 142.8 500.121 142.72C499.854 142.613 499.388 142.56 498.721 142.56C498.641 142.56 498.601 142.48 498.601 142.32C498.601 142.16 498.641 142.08 498.721 142.08C499.734 142.08 500.548 141.8 501.161 141.24C501.801 140.68 502.121 139.973 502.121 139.12C502.121 139.04 502.228 139 502.441 139C502.628 139 502.721 139.04 502.721 139.12V142.04C504.534 142.013 506.414 141.88 508.361 141.64C508.441 141.64 508.508 141.733 508.561 141.92C508.614 142.08 508.641 142.293 508.641 142.56C508.641 142.773 508.601 142.987 508.521 143.2C508.441 143.413 508.348 143.507 508.241 143.48C506.641 143.08 504.801 142.88 502.721 142.88V152.92C502.721 155.133 503.801 156.24 505.961 156.24C507.188 156.24 508.268 155.88 509.201 155.16L509.281 155.12ZM514.356 144.12C514.356 145.107 514.662 145.88 515.276 146.44C515.889 146.973 516.822 147.547 518.076 148.16C518.982 148.613 519.702 149.013 520.236 149.36C520.769 149.707 521.222 150.16 521.596 150.72C521.969 151.253 522.156 151.907 522.156 152.68C522.156 154.013 521.649 155.147 520.636 156.08C519.649 156.987 518.289 157.44 516.556 157.44C515.142 157.44 513.889 157.027 512.796 156.2C512.636 156.093 512.556 155.933 512.556 155.72L512.476 152.84C512.476 152.76 512.542 152.72 512.676 152.72C512.836 152.693 512.929 152.72 512.956 152.8C513.462 154.133 514.102 155.12 514.876 155.76C515.676 156.373 516.622 156.68 517.716 156.68C518.622 156.68 519.316 156.48 519.796 156.08C520.276 155.68 520.516 155.093 520.516 154.32C520.516 153.547 520.342 152.907 519.996 152.4C519.676 151.867 519.262 151.44 518.756 151.12C518.276 150.8 517.609 150.44 516.756 150.04C515.876 149.613 515.169 149.24 514.636 148.92C514.129 148.573 513.689 148.12 513.316 147.56C512.969 147 512.796 146.307 512.796 145.48C512.796 144.067 513.329 142.973 514.396 142.2C515.462 141.427 516.716 141.04 518.156 141.04C519.142 141.04 520.089 141.24 520.996 141.64C521.156 141.72 521.249 141.787 521.276 141.84C521.329 141.893 521.356 141.973 521.356 142.08C521.356 142.587 521.342 142.987 521.316 143.28L521.276 144.84C521.276 144.893 521.196 144.92 521.036 144.92C520.876 144.92 520.796 144.893 520.796 144.84C520.796 143.987 520.356 143.28 519.476 142.72C518.596 142.133 517.662 141.84 516.676 141.84C515.956 141.84 515.382 142.04 514.956 142.44C514.556 142.813 514.356 143.373 514.356 144.12Z" fill="#A69B75"/>
<defs>
<filter id="filter0_f" x="325.75" y="100.75" width="60.5" height="1.5" filterUnits="userSpaceOnUse" color-interpolation-filters="sRGB">
<feFlood flood-opacity="0" result="BackgroundImageFix"/>
<feBlend mode="normal" in="SourceGraphic" in2="BackgroundImageFix" result="shape"/>
<feGaussianBlur stdDeviation="0.125" result="effect1_foregroundBlur"/>
</filter>
<filter id="filter1_f" x="236.75" y="100.75" width="60.5" height="1.5" filterUnits="userSpaceOnUse" color-interpolation-filters="sRGB">
<feFlood flood-opacity="0" result="BackgroundImageFix"/>
<feBlend mode="normal" in="SourceGraphic" in2="BackgroundImageFix" result="shape"/>
<feGaussianBlur stdDeviation="0.125" result="effect1_foregroundBlur"/>
</filter>
</defs>
</svg>
