<svg width="178" height="54" viewBox="0 0 178 54" fill="none" xmlns="http://www.w3.org/2000/svg">
<rect width="178" height="54" rx="10" fill="#3B3D30"/>
<g filter="url(#filter0_f)">
<path d="M47.883 31.783C48.719 31.783 49.5613 31.973 50.41 32.353L50.239 33.265L50.049 33.322C49.6943 33.094 49.3143 32.923 48.909 32.809C48.5163 32.6823 48.1363 32.619 47.769 32.619C47.237 32.619 46.7683 32.733 46.363 32.961C45.9703 33.1763 45.6663 33.4613 45.451 33.816C45.2483 34.1707 45.147 34.5317 45.147 34.899C45.147 35.2917 45.261 35.6337 45.489 35.925C45.717 36.2163 45.9957 36.4697 46.325 36.685C46.667 36.8877 47.123 37.122 47.693 37.388C48.3643 37.7173 48.9027 38.015 49.308 38.281C49.726 38.5343 50.0807 38.87 50.372 39.288C50.6633 39.6933 50.809 40.1873 50.809 40.77C50.809 41.3653 50.6443 41.9227 50.315 42.442C49.9983 42.9487 49.5423 43.354 48.947 43.658C48.3643 43.9493 47.7057 44.095 46.971 44.095C46.4517 44.095 45.9197 44.0253 45.375 43.886C44.8303 43.734 44.3363 43.5187 43.893 43.24L44.007 42.233L44.14 42.176C44.558 42.5433 45.0267 42.822 45.546 43.012C46.0653 43.1893 46.5657 43.278 47.047 43.278C47.6043 43.278 48.092 43.164 48.51 42.936C48.928 42.708 49.251 42.4103 49.479 42.043C49.707 41.6757 49.821 41.2893 49.821 40.884C49.821 40.466 49.7007 40.105 49.46 39.801C49.232 39.4843 48.947 39.2247 48.605 39.022C48.2757 38.8193 47.8133 38.5723 47.218 38.281C46.5593 37.9643 46.0273 37.6793 45.622 37.426C45.2167 37.1727 44.8747 36.8433 44.596 36.438C44.3173 36.0327 44.178 35.545 44.178 34.975C44.178 34.3923 44.33 33.8603 44.634 33.379C44.9507 32.885 45.3877 32.4987 45.945 32.22C46.515 31.9287 47.161 31.783 47.883 31.783ZM60.3927 44H59.5287L59.3047 43.136L58.5367 40.928L56.1047 40.896L53.9127 40.928L53.0807 43.104L52.8407 44H51.9767L55.8807 33.776H56.8247L60.3927 44ZM58.2807 40.192L56.3767 34.736H56.2807L54.2007 40.192L56.2007 40.208L58.2807 40.192ZM63.2628 34.512L63.2308 38.56L65.1028 38.576L66.7348 38.544L66.8148 38.64L66.7188 39.28L63.2308 39.264L63.2148 40.848L63.2468 44H62.4148L62.4628 40.896L62.4148 33.776H67.5348L67.6148 33.872L67.5188 34.544L65.2308 34.496L63.2628 34.512ZM75.8302 44H74.9662L74.7422 43.136L73.9742 40.928L71.5422 40.896L69.3502 40.928L68.5182 43.104L68.2782 44H67.4142L71.3182 33.776H72.2622L75.8302 44ZM73.7182 40.192L71.8142 34.736H71.7182L69.6382 40.192L71.6382 40.208L73.7182 40.192ZM81.3723 39.808C82.1723 41.0987 83.095 42.432 84.1403 43.808V43.92C83.9697 44.0053 83.7297 44.0747 83.4203 44.128L83.2923 44.064C82.2577 42.5813 81.383 41.2267 80.6683 40H78.6523V40.848L78.6843 44H77.8523L77.9003 40.896L77.8523 33.776L80.5723 33.76C81.543 33.76 82.2897 34.0053 82.8123 34.496C83.335 34.9867 83.5963 35.696 83.5963 36.624C83.5963 37.3707 83.4043 38.0213 83.0203 38.576C82.6363 39.12 82.087 39.5307 81.3723 39.808ZM78.6683 39.264L80.7483 39.296C81.399 39.1147 81.895 38.8053 82.2363 38.368C82.5777 37.92 82.7483 37.3547 82.7483 36.672C82.7483 35.9573 82.551 35.4187 82.1563 35.056C81.7723 34.6827 81.2123 34.4853 80.4763 34.464L78.7003 34.496L78.6683 39.264ZM87.2617 40.848L87.2937 44H86.4617L86.5097 40.896L86.4617 33.776H87.3097L87.2617 40.848ZM96.2131 31.783C97.0491 31.783 97.8914 31.973 98.7401 32.353L98.5691 33.265L98.3791 33.322C98.0244 33.094 97.6444 32.923 97.2391 32.809C96.8464 32.6823 96.4664 32.619 96.0991 32.619C95.5671 32.619 95.0984 32.733 94.6931 32.961C94.3004 33.1763 93.9964 33.4613 93.7811 33.816C93.5784 34.1707 93.4771 34.5317 93.4771 34.899C93.4771 35.2917 93.5911 35.6337 93.8191 35.925C94.0471 36.2163 94.3257 36.4697 94.6551 36.685C94.9971 36.8877 95.4531 37.122 96.0231 37.388C96.6944 37.7173 97.2327 38.015 97.6381 38.281C98.0561 38.5343 98.4107 38.87 98.7021 39.288C98.9934 39.6933 99.1391 40.1873 99.1391 40.77C99.1391 41.3653 98.9744 41.9227 98.6451 42.442C98.3284 42.9487 97.8724 43.354 97.2771 43.658C96.6944 43.9493 96.0357 44.095 95.3011 44.095C94.7817 44.095 94.2497 44.0253 93.7051 43.886C93.1604 43.734 92.6664 43.5187 92.2231 43.24L92.3371 42.233L92.4701 42.176C92.8881 42.5433 93.3567 42.822 93.8761 43.012C94.3954 43.1893 94.8957 43.278 95.3771 43.278C95.9344 43.278 96.4221 43.164 96.8401 42.936C97.2581 42.708 97.5811 42.4103 97.8091 42.043C98.0371 41.6757 98.1511 41.2893 98.1511 40.884C98.1511 40.466 98.0307 40.105 97.7901 39.801C97.5621 39.4843 97.2771 39.2247 96.9351 39.022C96.6057 38.8193 96.1434 38.5723 95.5481 38.281C94.8894 37.9643 94.3574 37.6793 93.9521 37.426C93.5467 37.1727 93.2047 36.8433 92.9261 36.438C92.6474 36.0327 92.5081 35.545 92.5081 34.975C92.5081 34.3923 92.6601 33.8603 92.9641 33.379C93.2807 32.885 93.7177 32.4987 94.2751 32.22C94.8451 31.9287 95.4911 31.783 96.2131 31.783ZM107.139 43.344L107.059 44H101.667L101.715 40.896L101.667 33.776H107.043L107.107 33.872L107.011 34.528L104.627 34.496L102.515 34.512L102.483 38.368L104.483 38.384L106.195 38.368L106.259 38.448L106.179 39.104L102.483 39.088L102.467 40.848L102.499 43.28L104.563 43.296L107.075 43.248L107.139 43.344ZM112.358 33.696C112.88 33.696 113.382 33.7707 113.862 33.92C114.342 34.0587 114.774 34.2667 115.158 34.544L114.982 35.296L114.854 35.312C114.107 34.7147 113.264 34.416 112.326 34.416C111.184 34.416 110.31 34.8 109.702 35.568C109.104 36.336 108.806 37.4453 108.806 38.896C108.806 40.3467 109.099 41.456 109.686 42.224C110.272 42.9813 111.115 43.36 112.214 43.36C112.704 43.36 113.19 43.2747 113.67 43.104C114.15 42.9227 114.598 42.672 115.014 42.352L115.142 42.4L115.078 43.184C114.16 43.792 113.19 44.096 112.166 44.096C110.822 44.096 109.782 43.6533 109.046 42.768C108.32 41.872 107.958 40.5973 107.958 38.944C107.958 37.2693 108.336 35.9787 109.094 35.072C109.862 34.1547 110.95 33.696 112.358 33.696ZM124.253 38.992V40.224C124.274 41.4507 123.96 42.4 123.309 43.072C122.658 43.744 121.73 44.08 120.525 44.08C119.352 44.08 118.45 43.7547 117.821 43.104C117.202 42.4533 116.898 41.5147 116.909 40.288V33.776H117.725L117.693 40.208C117.682 41.232 117.922 42.0107 118.413 42.544C118.904 43.0773 119.624 43.344 120.573 43.344C121.522 43.344 122.242 43.0827 122.733 42.56C123.234 42.0373 123.48 41.28 123.469 40.288L123.437 33.776H124.269L124.253 38.992ZM130.671 39.808C131.471 41.0987 132.394 42.432 133.439 43.808V43.92C133.268 44.0053 133.028 44.0747 132.719 44.128L132.591 44.064C131.556 42.5813 130.682 41.2267 129.967 40H127.951V40.848L127.983 44H127.151L127.199 40.896L127.151 33.776L129.871 33.76C130.842 33.76 131.588 34.0053 132.111 34.496C132.634 34.9867 132.895 35.696 132.895 36.624C132.895 37.3707 132.703 38.0213 132.319 38.576C131.935 39.12 131.386 39.5307 130.671 39.808ZM127.967 39.264L130.047 39.296C130.698 39.1147 131.194 38.8053 131.535 38.368C131.876 37.92 132.047 37.3547 132.047 36.672C132.047 35.9573 131.85 35.4187 131.455 35.056C131.071 34.6827 130.511 34.4853 129.775 34.464L127.999 34.496L127.967 39.264ZM136.561 40.848L136.593 44H135.761L135.809 40.896L135.761 33.776H136.609L136.561 40.848ZM145.301 33.872L145.221 34.512L143.509 34.464H142.261L142.213 40.848L142.245 44H141.413L141.461 40.896L141.413 34.464H140.165L138.421 34.512L138.357 34.416L138.437 33.776H145.221L145.301 33.872ZM150.027 40.944L150.059 44H149.227L149.259 40.944L149.243 40.224L146.011 33.776H146.939L147.131 34.272L149.627 39.232H149.723L152.443 34.288L152.651 33.776H153.563L150.043 40.192L150.027 40.944Z" fill="#A69B75"/>
</g>
<g filter="url(#filter1_f)">
<path d="M35.494 40.332C36.194 41.4613 37.0013 42.628 37.916 43.832V43.93C37.7667 44.0047 37.5567 44.0653 37.286 44.112L37.174 44.056C36.2687 42.7587 35.5033 41.5733 34.878 40.5H33.114V41.242L33.142 44H32.414L32.456 41.284L32.414 35.054L34.794 35.04C35.6433 35.04 36.2967 35.2547 36.754 35.684C37.2113 36.1133 37.44 36.734 37.44 37.546C37.44 38.1993 37.272 38.7687 36.936 39.254C36.6 39.73 36.1193 40.0893 35.494 40.332ZM33.128 39.856L34.948 39.884C35.5173 39.7253 35.9513 39.4547 36.25 39.072C36.5487 38.68 36.698 38.1853 36.698 37.588C36.698 36.9627 36.5253 36.4913 36.18 36.174C35.844 35.8473 35.354 35.6747 34.71 35.656L33.156 35.684L33.128 39.856Z" fill="#A69B75"/>
</g>
<g filter="url(#filter2_f)">
<path d="M29.312 42.13C29.312 42.5993 29.3707 42.944 29.488 43.164C29.6053 43.3693 29.84 43.516 30.192 43.604C30.544 43.692 31.094 43.736 31.842 43.736C31.886 43.736 31.908 43.78 31.908 43.868C31.908 43.956 31.886 44 31.842 44C31.2407 44 30.7713 43.9927 30.434 43.978L28.52 43.956L27.024 43.978C26.76 43.9927 26.386 44 25.902 44C25.858 44 25.836 43.956 25.836 43.868C25.836 43.78 25.858 43.736 25.902 43.736C26.43 43.736 26.8187 43.6993 27.068 43.626C27.3173 43.5527 27.486 43.4133 27.574 43.208C27.662 42.988 27.706 42.658 27.706 42.218V32.032C27.706 31.592 27.662 31.2693 27.574 31.064C27.486 30.8587 27.3173 30.7193 27.068 30.646C26.8187 30.558 26.43 30.514 25.902 30.514C25.858 30.514 25.836 30.47 25.836 30.382C25.836 30.294 25.858 30.25 25.902 30.25L27.024 30.272C27.64 30.3013 28.1313 30.316 28.498 30.316C28.85 30.316 29.268 30.294 29.752 30.25C29.928 30.25 30.1993 30.2427 30.566 30.228C30.9473 30.1987 31.2773 30.184 31.556 30.184C32.92 30.184 34.0127 30.492 34.834 31.108C35.67 31.7093 36.088 32.626 36.088 33.858C36.088 34.8113 35.846 35.618 35.362 36.278C34.8927 36.938 34.284 37.4293 33.536 37.752C32.8027 38.0747 32.04 38.236 31.248 38.236C30.8227 38.236 30.4633 38.1993 30.17 38.126C30.1407 38.126 30.126 38.0893 30.126 38.016C30.126 37.972 30.1333 37.928 30.148 37.884C30.1773 37.84 30.2067 37.8253 30.236 37.84C30.456 37.8987 30.7127 37.928 31.006 37.928C31.9153 37.928 32.6853 37.6127 33.316 36.982C33.9467 36.3513 34.262 35.442 34.262 34.254C34.262 33.0953 33.9613 32.186 33.36 31.526C32.7587 30.866 31.9667 30.536 30.984 30.536C30.5 30.536 30.148 30.5727 29.928 30.646C29.708 30.7047 29.5467 30.844 29.444 31.064C29.356 31.2693 29.312 31.6067 29.312 32.076V42.13Z" fill="#A69B75"/>
</g>
<g filter="url(#filter3_f)">
<line x1="104" y1="23.5" x2="164" y2="23.5" stroke="#A69B75"/>
</g>
<g filter="url(#filter4_f)">
<line x1="15" y1="23.5" x2="75" y2="23.5" stroke="#A69B75"/>
</g>
<path fill-rule="evenodd" clip-rule="evenodd" d="M92.4876 17.0202L89.5012 11.474L86.5147 17.0202C86.5008 17.0868 86.4661 17.1537 86.4097 17.2152L86.3979 17.2371C86.267 17.4802 85.9638 17.5712 85.7207 17.4402C85.6826 17.4198 85.6483 17.3951 85.618 17.3671L85.6166 17.3664L80.2062 14.7383L81.8973 22.5H97.2316L98.8376 14.7181L93.3858 17.3664L93.3843 17.3671C93.354 17.3951 93.3197 17.4198 93.2817 17.4402C93.0385 17.5712 92.7353 17.4802 92.6044 17.2371L92.5926 17.2152C92.5362 17.1537 92.5016 17.0868 92.4876 17.0202ZM81.0529 23.091C81.0956 23.3237 81.2995 23.5 81.5446 23.5H97.5446C97.7518 23.5 97.9295 23.374 98.0054 23.1945C98.0746 23.117 98.1249 23.0237 98.1457 22.9231L99.9709 14.079C99.9993 14.0199 100.009 13.9549 99.998 13.8892C99.9934 13.675 99.8351 13.5127 99.6054 13.5038C99.4375 13.4505 99.2478 13.4548 99.0971 13.528L93.2677 16.3596L89.9849 10.263C89.8873 10.0818 89.694 9.98514 89.5012 10.0019C89.3084 9.98514 89.115 10.0818 89.0175 10.263L85.7347 16.3596L79.9052 13.528C79.7412 13.4483 79.5309 13.4503 79.3527 13.5193C79.2269 13.5442 79.1295 13.6186 79.0772 13.7216C78.9727 13.8643 78.9762 14.0276 79.0762 14.1486L80.9891 22.9286C81.0016 22.9857 81.0235 23.0403 81.0529 23.091Z" fill="#A69B75"/>
<defs>
<filter id="filter0_f" x="43.643" y="31.533" width="110.17" height="12.845" filterUnits="userSpaceOnUse" color-interpolation-filters="sRGB">
<feFlood flood-opacity="0" result="BackgroundImageFix"/>
<feBlend mode="normal" in="SourceGraphic" in2="BackgroundImageFix" result="shape"/>
<feGaussianBlur stdDeviation="0.125" result="effect1_foregroundBlur"/>
</filter>
<filter id="filter1_f" x="32.164" y="34.79" width="6.002" height="9.572" filterUnits="userSpaceOnUse" color-interpolation-filters="sRGB">
<feFlood flood-opacity="0" result="BackgroundImageFix"/>
<feBlend mode="normal" in="SourceGraphic" in2="BackgroundImageFix" result="shape"/>
<feGaussianBlur stdDeviation="0.125" result="effect1_foregroundBlur"/>
</filter>
<filter id="filter2_f" x="25.586" y="29.934" width="10.752" height="14.316" filterUnits="userSpaceOnUse" color-interpolation-filters="sRGB">
<feFlood flood-opacity="0" result="BackgroundImageFix"/>
<feBlend mode="normal" in="SourceGraphic" in2="BackgroundImageFix" result="shape"/>
<feGaussianBlur stdDeviation="0.125" result="effect1_foregroundBlur"/>
</filter>
<filter id="filter3_f" x="103.75" y="22.75" width="60.5" height="1.5" filterUnits="userSpaceOnUse" color-interpolation-filters="sRGB">
<feFlood flood-opacity="0" result="BackgroundImageFix"/>
<feBlend mode="normal" in="SourceGraphic" in2="BackgroundImageFix" result="shape"/>
<feGaussianBlur stdDeviation="0.125" result="effect1_foregroundBlur"/>
</filter>
<filter id="filter4_f" x="14.75" y="22.75" width="60.5" height="1.5" filterUnits="userSpaceOnUse" color-interpolation-filters="sRGB">
<feFlood flood-opacity="0" result="BackgroundImageFix"/>
<feBlend mode="normal" in="SourceGraphic" in2="BackgroundImageFix" result="shape"/>
<feGaussianBlur stdDeviation="0.125" result="effect1_foregroundBlur"/>
</filter>
</defs>
</svg>
