<svg width="623" height="271" viewBox="0 0 623 271" fill="none" xmlns="http://www.w3.org/2000/svg">
<rect width="623" height="271" fill="#3B3D30"/>
<path d="M184.713 149.6C184.713 150.453 184.833 151.08 185.073 151.48C185.313 151.853 185.767 152.12 186.433 152.28C187.127 152.44 188.22 152.52 189.713 152.52C189.793 152.52 189.833 152.6 189.833 152.76C189.833 152.92 189.793 153 189.713 153C188.62 153 187.767 152.987 187.153 152.96L183.673 152.92L181.033 152.96C180.553 152.987 179.887 153 179.033 153C178.98 153 178.953 152.92 178.953 152.76C178.953 152.6 178.98 152.52 179.033 152.52C180.073 152.52 180.833 152.453 181.313 152.32C181.82 152.187 182.153 151.933 182.313 151.56C182.5 151.16 182.593 150.56 182.593 149.76V131.24C182.593 130.44 182.5 129.853 182.313 129.48C182.153 129.107 181.82 128.853 181.313 128.72C180.833 128.56 180.073 128.48 179.033 128.48C178.98 128.48 178.953 128.4 178.953 128.24C178.953 128.08 178.98 128 179.033 128L180.993 128.04C182.113 128.093 182.993 128.12 183.633 128.12C184.273 128.12 185.007 128.08 185.833 128C187.913 127.92 189.047 127.88 189.233 127.88C191.58 127.88 193.487 128.427 194.953 129.52C196.42 130.587 197.153 132.227 197.153 134.44C197.153 136.227 196.713 137.733 195.833 138.96C194.953 140.16 193.833 141.053 192.473 141.64C191.14 142.227 189.753 142.52 188.313 142.52C187.513 142.52 186.86 142.453 186.353 142.32C186.273 142.32 186.233 142.253 186.233 142.12C186.233 142.04 186.247 141.96 186.273 141.88C186.327 141.8 186.38 141.773 186.433 141.8C186.86 141.907 187.34 141.96 187.873 141.96C189.767 141.96 191.367 141.387 192.673 140.24C194.007 139.093 194.673 137.427 194.673 135.24C194.673 133.827 194.393 132.613 193.833 131.6C193.273 130.56 192.5 129.773 191.513 129.24C190.553 128.68 189.487 128.4 188.313 128.4C187.22 128.4 186.447 128.453 185.993 128.56C185.54 128.667 185.207 128.92 184.993 129.32C184.807 129.693 184.713 130.36 184.713 131.32V149.6ZM209.635 137.2C210.222 137.2 210.768 137.36 211.275 137.68C211.808 137.973 212.075 138.32 212.075 138.72C212.075 138.987 211.968 139.227 211.755 139.44C211.568 139.653 211.288 139.76 210.915 139.76C210.648 139.76 210.408 139.693 210.195 139.56C209.982 139.4 209.848 139.307 209.795 139.28C209.288 138.88 208.782 138.68 208.275 138.68C207.902 138.68 207.502 138.84 207.075 139.16C206.675 139.48 206.048 140.16 205.195 141.2V149.76C205.195 150.56 205.288 151.16 205.475 151.56C205.662 151.933 206.022 152.187 206.555 152.32C207.115 152.453 207.995 152.52 209.195 152.52C209.275 152.52 209.315 152.6 209.315 152.76C209.315 152.92 209.275 153 209.195 153C208.342 153 207.662 152.987 207.155 152.96L204.275 152.92L202.155 152.96C201.808 152.987 201.328 153 200.715 153C200.635 153 200.595 152.92 200.595 152.76C200.595 152.6 200.635 152.52 200.715 152.52C201.488 152.52 202.048 152.453 202.395 152.32C202.742 152.187 202.982 151.933 203.115 151.56C203.248 151.16 203.315 150.56 203.315 149.76V141.76C203.315 140.827 203.208 140.16 202.995 139.76C202.782 139.36 202.408 139.16 201.875 139.16C201.448 139.16 200.702 139.36 199.635 139.76H199.555C199.448 139.76 199.368 139.707 199.315 139.6C199.288 139.467 199.328 139.373 199.435 139.32L203.875 137.24C203.928 137.213 203.995 137.2 204.075 137.2C204.288 137.2 204.528 137.507 204.795 138.12C205.062 138.707 205.195 139.467 205.195 140.4V140.64C206.288 139.307 207.155 138.4 207.795 137.92C208.435 137.44 209.048 137.2 209.635 137.2ZM228.184 132.84C228.184 133.907 228.437 134.827 228.944 135.6C229.451 136.373 230.064 137.027 230.784 137.56C231.531 138.067 232.557 138.707 233.864 139.48C235.251 140.307 236.317 141 237.064 141.56C237.837 142.093 238.491 142.787 239.024 143.64C239.584 144.493 239.864 145.52 239.864 146.72C239.864 147.973 239.557 149.12 238.944 150.16C238.331 151.173 237.411 151.987 236.184 152.6C234.984 153.187 233.504 153.48 231.744 153.48C230.811 153.48 229.917 153.373 229.064 153.16C228.237 152.973 227.317 152.627 226.304 152.12C226.171 152.04 226.077 151.947 226.024 151.84C225.997 151.733 225.971 151.573 225.944 151.36L225.344 146.16V146.12C225.344 146.013 225.411 145.96 225.544 145.96C225.677 145.933 225.757 145.973 225.784 146.08C226.051 147.92 226.757 149.52 227.904 150.88C229.051 152.24 230.624 152.92 232.624 152.92C234.037 152.92 235.224 152.533 236.184 151.76C237.171 150.987 237.664 149.773 237.664 148.12C237.664 146.92 237.397 145.893 236.864 145.04C236.331 144.16 235.677 143.44 234.904 142.88C234.157 142.293 233.131 141.613 231.824 140.84C230.544 140.093 229.531 139.44 228.784 138.88C228.064 138.32 227.437 137.627 226.904 136.8C226.397 135.947 226.144 134.933 226.144 133.76C226.144 132.427 226.477 131.293 227.144 130.36C227.837 129.427 228.731 128.733 229.824 128.28C230.917 127.8 232.091 127.56 233.344 127.56C234.811 127.56 236.331 127.88 237.904 128.52C238.304 128.68 238.504 128.907 238.504 129.2L238.864 133.44C238.864 133.547 238.784 133.6 238.624 133.6C238.491 133.6 238.411 133.547 238.384 133.44C238.277 132.053 237.757 130.813 236.824 129.72C235.891 128.627 234.557 128.08 232.824 128.08C231.224 128.08 230.051 128.547 229.304 129.48C228.557 130.413 228.184 131.533 228.184 132.84ZM258.638 150.84C258.745 150.84 258.811 150.907 258.838 151.04C258.865 151.147 258.825 151.227 258.718 151.28L254.598 153.24C254.491 153.293 254.385 153.32 254.278 153.32C253.985 153.32 253.718 153.093 253.478 152.64C253.238 152.16 253.091 151.52 253.038 150.72L250.838 152.08C250.171 152.507 249.585 152.813 249.078 153C248.571 153.187 248.051 153.28 247.518 153.28C246.585 153.28 245.838 153.013 245.278 152.48C244.745 151.947 244.478 151.307 244.478 150.56C244.478 149.813 244.771 149.147 245.358 148.56C245.945 147.947 246.958 147.373 248.398 146.84L252.998 145.12V142.32C252.998 139.387 252.091 137.92 250.278 137.92C249.371 137.92 248.665 138.213 248.158 138.8C247.651 139.36 247.305 140.027 247.118 140.8C247.011 141.28 246.878 141.653 246.718 141.92C246.585 142.16 246.291 142.28 245.838 142.28C245.465 142.28 245.171 142.173 244.958 141.96C244.745 141.72 244.638 141.453 244.638 141.16C244.638 140.573 245.025 139.973 245.798 139.36C246.598 138.72 247.558 138.2 248.678 137.8C249.798 137.373 250.798 137.16 251.678 137.16C252.745 137.16 253.531 137.507 254.038 138.2C254.571 138.893 254.838 139.867 254.838 141.12V148.68C254.838 149.667 254.945 150.373 255.158 150.8C255.398 151.227 255.798 151.44 256.358 151.44C256.865 151.44 257.598 151.24 258.558 150.84H258.638ZM252.998 150.16V150.04V145.68L248.758 147.28C247.985 147.6 247.451 147.947 247.158 148.32C246.865 148.693 246.718 149.133 246.718 149.64C246.718 150.28 246.918 150.827 247.318 151.28C247.718 151.733 248.278 151.96 248.998 151.96C249.585 151.96 250.278 151.733 251.078 151.28L252.998 150.16ZM271.596 123.96C272.929 123.96 274.036 124.173 274.916 124.6C275.796 125 276.236 125.467 276.236 126C276.236 126.347 276.116 126.627 275.876 126.84C275.636 127.027 275.343 127.12 274.996 127.12C274.729 127.12 274.489 127.067 274.276 126.96C274.063 126.827 273.823 126.587 273.556 126.24C273.103 125.68 272.609 125.267 272.076 125C271.569 124.733 270.956 124.6 270.236 124.6C268.609 124.6 267.316 125.507 266.356 127.32C265.396 129.107 264.916 131.813 264.916 135.44V138.04C266.169 138.013 267.943 137.88 270.236 137.64C270.316 137.64 270.383 137.733 270.436 137.92C270.489 138.08 270.516 138.293 270.516 138.56C270.516 138.773 270.476 138.987 270.396 139.2C270.316 139.413 270.223 139.507 270.116 139.48C268.649 139.133 266.916 138.933 264.916 138.88V149.76C264.916 150.587 265.009 151.187 265.196 151.56C265.383 151.933 265.743 152.187 266.276 152.32C266.836 152.453 267.729 152.52 268.956 152.52C269.009 152.52 269.036 152.6 269.036 152.76C269.036 152.92 269.009 153 268.956 153L266.396 152.96C265.863 152.933 265.036 152.92 263.916 152.92L261.716 152.96C261.343 152.987 260.823 153 260.156 153C260.076 153 260.036 152.92 260.036 152.76C260.036 152.6 260.076 152.52 260.156 152.52C260.983 152.52 261.583 152.453 261.956 152.32C262.356 152.16 262.623 151.893 262.756 151.52C262.916 151.147 262.996 150.56 262.996 149.76V140.76C262.996 140.04 262.929 139.547 262.796 139.28C262.689 138.987 262.436 138.8 262.036 138.72C261.663 138.613 260.983 138.56 259.996 138.56C259.916 138.56 259.876 138.48 259.876 138.32C259.876 138.16 259.916 138.08 259.996 138.08C261.143 138.08 261.916 137.96 262.316 137.72C262.716 137.453 262.929 136.973 262.956 136.28C263.089 131.96 263.863 128.827 265.276 126.88C266.716 124.933 268.823 123.96 271.596 123.96ZM287.583 150.84C287.69 150.84 287.757 150.907 287.783 151.04C287.81 151.147 287.77 151.227 287.663 151.28L283.543 153.24C283.437 153.293 283.33 153.32 283.223 153.32C282.93 153.32 282.663 153.093 282.423 152.64C282.183 152.16 282.037 151.52 281.983 150.72L279.783 152.08C279.117 152.507 278.53 152.813 278.023 153C277.517 153.187 276.997 153.28 276.463 153.28C275.53 153.28 274.783 153.013 274.223 152.48C273.69 151.947 273.423 151.307 273.423 150.56C273.423 149.813 273.717 149.147 274.303 148.56C274.89 147.947 275.903 147.373 277.343 146.84L281.943 145.12V142.32C281.943 139.387 281.037 137.92 279.223 137.92C278.317 137.92 277.61 138.213 277.103 138.8C276.597 139.36 276.25 140.027 276.063 140.8C275.957 141.28 275.823 141.653 275.663 141.92C275.53 142.16 275.237 142.28 274.783 142.28C274.41 142.28 274.117 142.173 273.903 141.96C273.69 141.72 273.583 141.453 273.583 141.16C273.583 140.573 273.97 139.973 274.743 139.36C275.543 138.72 276.503 138.2 277.623 137.8C278.743 137.373 279.743 137.16 280.623 137.16C281.69 137.16 282.477 137.507 282.983 138.2C283.517 138.893 283.783 139.867 283.783 141.12V148.68C283.783 149.667 283.89 150.373 284.103 150.8C284.343 151.227 284.743 151.44 285.303 151.44C285.81 151.44 286.543 151.24 287.503 150.84H287.583ZM281.943 150.16V150.04V145.68L277.703 147.28C276.93 147.6 276.397 147.947 276.103 148.32C275.81 148.693 275.663 149.133 275.663 149.64C275.663 150.28 275.863 150.827 276.263 151.28C276.663 151.733 277.223 151.96 277.943 151.96C278.53 151.96 279.223 151.733 280.023 151.28L281.943 150.16ZM298.541 137.2C299.128 137.2 299.675 137.36 300.181 137.68C300.715 137.973 300.981 138.32 300.981 138.72C300.981 138.987 300.875 139.227 300.661 139.44C300.475 139.653 300.195 139.76 299.821 139.76C299.555 139.76 299.315 139.693 299.101 139.56C298.888 139.4 298.755 139.307 298.701 139.28C298.195 138.88 297.688 138.68 297.181 138.68C296.808 138.68 296.408 138.84 295.981 139.16C295.581 139.48 294.955 140.16 294.101 141.2V149.76C294.101 150.56 294.195 151.16 294.381 151.56C294.568 151.933 294.928 152.187 295.461 152.32C296.021 152.453 296.901 152.52 298.101 152.52C298.181 152.52 298.221 152.6 298.221 152.76C298.221 152.92 298.181 153 298.101 153C297.248 153 296.568 152.987 296.061 152.96L293.181 152.92L291.061 152.96C290.715 152.987 290.235 153 289.621 153C289.541 153 289.501 152.92 289.501 152.76C289.501 152.6 289.541 152.52 289.621 152.52C290.395 152.52 290.955 152.453 291.301 152.32C291.648 152.187 291.888 151.933 292.021 151.56C292.155 151.16 292.221 150.56 292.221 149.76V141.76C292.221 140.827 292.115 140.16 291.901 139.76C291.688 139.36 291.315 139.16 290.781 139.16C290.355 139.16 289.608 139.36 288.541 139.76H288.461C288.355 139.76 288.275 139.707 288.221 139.6C288.195 139.467 288.235 139.373 288.341 139.32L292.781 137.24C292.835 137.213 292.901 137.2 292.981 137.2C293.195 137.2 293.435 137.507 293.701 138.12C293.968 138.707 294.101 139.467 294.101 140.4V140.64C295.195 139.307 296.061 138.4 296.701 137.92C297.341 137.44 297.955 137.2 298.541 137.2ZM307.715 132.36C307.209 132.36 306.809 132.227 306.515 131.96C306.249 131.693 306.115 131.32 306.115 130.84C306.115 130.36 306.249 129.987 306.515 129.72C306.809 129.453 307.209 129.32 307.715 129.32C308.195 129.32 308.569 129.453 308.835 129.72C309.102 129.987 309.235 130.36 309.235 130.84C309.235 131.32 309.102 131.693 308.835 131.96C308.569 132.227 308.195 132.36 307.715 132.36ZM304.475 153C304.422 153 304.395 152.92 304.395 152.76C304.395 152.6 304.422 152.52 304.475 152.52C305.249 152.52 305.809 152.453 306.155 152.32C306.529 152.187 306.782 151.933 306.915 151.56C307.049 151.16 307.115 150.56 307.115 149.76V142.2C307.115 141.213 307.009 140.507 306.795 140.08C306.609 139.653 306.275 139.44 305.795 139.44C305.289 139.44 304.649 139.64 303.875 140.04H303.835C303.729 140.04 303.649 139.973 303.595 139.84C303.542 139.707 303.569 139.613 303.675 139.56L308.635 137.24L308.795 137.2C308.849 137.2 308.902 137.227 308.955 137.28C309.035 137.333 309.075 137.4 309.075 137.48C309.075 137.64 309.062 138.173 309.035 139.08C309.009 139.96 308.995 140.987 308.995 142.16V149.76C308.995 150.56 309.049 151.16 309.155 151.56C309.289 151.933 309.529 152.187 309.875 152.32C310.249 152.453 310.822 152.52 311.595 152.52C311.675 152.52 311.715 152.6 311.715 152.76C311.715 152.92 311.675 153 311.595 153C310.982 153 310.502 152.987 310.155 152.96L308.035 152.92L305.955 152.96C305.582 152.987 305.089 153 304.475 153ZM328.106 132.84C328.106 133.907 328.359 134.827 328.866 135.6C329.373 136.373 329.986 137.027 330.706 137.56C331.453 138.067 332.479 138.707 333.786 139.48C335.173 140.307 336.239 141 336.986 141.56C337.759 142.093 338.413 142.787 338.946 143.64C339.506 144.493 339.786 145.52 339.786 146.72C339.786 147.973 339.479 149.12 338.866 150.16C338.253 151.173 337.333 151.987 336.106 152.6C334.906 153.187 333.426 153.48 331.666 153.48C330.733 153.48 329.839 153.373 328.986 153.16C328.159 152.973 327.239 152.627 326.226 152.12C326.093 152.04 325.999 151.947 325.946 151.84C325.919 151.733 325.893 151.573 325.866 151.36L325.266 146.16V146.12C325.266 146.013 325.333 145.96 325.466 145.96C325.599 145.933 325.679 145.973 325.706 146.08C325.973 147.92 326.679 149.52 327.826 150.88C328.973 152.24 330.546 152.92 332.546 152.92C333.959 152.92 335.146 152.533 336.106 151.76C337.093 150.987 337.586 149.773 337.586 148.12C337.586 146.92 337.319 145.893 336.786 145.04C336.253 144.16 335.599 143.44 334.826 142.88C334.079 142.293 333.053 141.613 331.746 140.84C330.466 140.093 329.453 139.44 328.706 138.88C327.986 138.32 327.359 137.627 326.826 136.8C326.319 135.947 326.066 134.933 326.066 133.76C326.066 132.427 326.399 131.293 327.066 130.36C327.759 129.427 328.653 128.733 329.746 128.28C330.839 127.8 332.013 127.56 333.266 127.56C334.733 127.56 336.253 127.88 337.826 128.52C338.226 128.68 338.426 128.907 338.426 129.2L338.786 133.44C338.786 133.547 338.706 133.6 338.546 133.6C338.413 133.6 338.333 133.547 338.306 133.44C338.199 132.053 337.679 130.813 336.746 129.72C335.813 128.627 334.479 128.08 332.746 128.08C331.146 128.08 329.973 128.547 329.226 129.48C328.479 130.413 328.106 131.533 328.106 132.84ZM356.08 150.84C356.16 150.84 356.227 150.893 356.28 151C356.36 151.08 356.373 151.16 356.32 151.24C354.56 152.733 352.653 153.48 350.6 153.48C349.08 153.48 347.787 153.12 346.72 152.4C345.653 151.68 344.84 150.747 344.28 149.6C343.747 148.427 343.48 147.16 343.48 145.8C343.48 144.227 343.853 142.787 344.6 141.48C345.347 140.147 346.347 139.107 347.6 138.36C348.88 137.587 350.267 137.2 351.76 137.2C353.253 137.2 354.373 137.613 355.12 138.44C355.893 139.24 356.28 140.347 356.28 141.76C356.28 142.133 356.24 142.4 356.16 142.56C356.107 142.693 355.987 142.76 355.8 142.76L345.84 142.8C345.787 143.44 345.76 143.96 345.76 144.36C345.76 146.68 346.307 148.573 347.4 150.04C348.493 151.48 350.027 152.2 352 152.2C352.827 152.2 353.533 152.093 354.12 151.88C354.707 151.64 355.347 151.293 356.04 150.84H356.08ZM350.48 138C349.28 138 348.28 138.387 347.48 139.16C346.707 139.907 346.187 140.96 345.92 142.32L353.96 142.16C353.987 140.773 353.68 139.733 353.04 139.04C352.427 138.347 351.573 138 350.48 138ZM368.971 137.2C369.558 137.2 370.104 137.36 370.611 137.68C371.144 137.973 371.411 138.32 371.411 138.72C371.411 138.987 371.304 139.227 371.091 139.44C370.904 139.653 370.624 139.76 370.251 139.76C369.984 139.76 369.744 139.693 369.531 139.56C369.318 139.4 369.184 139.307 369.131 139.28C368.624 138.88 368.118 138.68 367.611 138.68C367.238 138.68 366.838 138.84 366.411 139.16C366.011 139.48 365.384 140.16 364.531 141.2V149.76C364.531 150.56 364.624 151.16 364.811 151.56C364.998 151.933 365.358 152.187 365.891 152.32C366.451 152.453 367.331 152.52 368.531 152.52C368.611 152.52 368.651 152.6 368.651 152.76C368.651 152.92 368.611 153 368.531 153C367.678 153 366.998 152.987 366.491 152.96L363.611 152.92L361.491 152.96C361.144 152.987 360.664 153 360.051 153C359.971 153 359.931 152.92 359.931 152.76C359.931 152.6 359.971 152.52 360.051 152.52C360.824 152.52 361.384 152.453 361.731 152.32C362.078 152.187 362.318 151.933 362.451 151.56C362.584 151.16 362.651 150.56 362.651 149.76V141.76C362.651 140.827 362.544 140.16 362.331 139.76C362.118 139.36 361.744 139.16 361.211 139.16C360.784 139.16 360.038 139.36 358.971 139.76H358.891C358.784 139.76 358.704 139.707 358.651 139.6C358.624 139.467 358.664 139.373 358.771 139.32L363.211 137.24C363.264 137.213 363.331 137.2 363.411 137.2C363.624 137.2 363.864 137.507 364.131 138.12C364.398 138.707 364.531 139.467 364.531 140.4V140.64C365.624 139.307 366.491 138.4 367.131 137.92C367.771 137.44 368.384 137.2 368.971 137.2ZM389.625 137.56C389.678 137.56 389.705 137.64 389.705 137.8C389.705 137.96 389.678 138.04 389.625 138.04C388.958 138.04 388.412 138.24 387.985 138.64C387.558 139.013 387.132 139.733 386.705 140.8L381.705 152.96C381.678 153.067 381.532 153.12 381.265 153.12C380.998 153.12 380.852 153.067 380.825 152.96L375.345 140.88C374.812 139.707 374.372 138.947 374.025 138.6C373.705 138.227 373.292 138.04 372.785 138.04C372.705 138.04 372.665 137.96 372.665 137.8C372.665 137.64 372.705 137.56 372.785 137.56C373.318 137.56 373.732 137.573 374.025 137.6L375.225 137.64L377.745 137.6C378.118 137.573 378.625 137.56 379.265 137.56C379.345 137.56 379.385 137.64 379.385 137.8C379.385 137.96 379.345 138.04 379.265 138.04C377.638 138.04 376.825 138.36 376.825 139C376.825 139.187 376.878 139.387 376.985 139.6L381.945 150.44L386.025 140.56C386.185 140.107 386.265 139.747 386.265 139.48C386.265 138.973 385.998 138.613 385.465 138.4C384.958 138.16 384.118 138.04 382.945 138.04C382.892 138.04 382.865 137.96 382.865 137.8C382.865 137.64 382.892 137.56 382.945 137.56C383.665 137.56 384.212 137.573 384.585 137.6L386.985 137.64L388.385 137.6C388.652 137.573 389.065 137.56 389.625 137.56ZM395.45 132.36C394.943 132.36 394.543 132.227 394.25 131.96C393.983 131.693 393.85 131.32 393.85 130.84C393.85 130.36 393.983 129.987 394.25 129.72C394.543 129.453 394.943 129.32 395.45 129.32C395.93 129.32 396.303 129.453 396.57 129.72C396.836 129.987 396.97 130.36 396.97 130.84C396.97 131.32 396.836 131.693 396.57 131.96C396.303 132.227 395.93 132.36 395.45 132.36ZM392.21 153C392.156 153 392.13 152.92 392.13 152.76C392.13 152.6 392.156 152.52 392.21 152.52C392.983 152.52 393.543 152.453 393.89 152.32C394.263 152.187 394.516 151.933 394.65 151.56C394.783 151.16 394.85 150.56 394.85 149.76V142.2C394.85 141.213 394.743 140.507 394.53 140.08C394.343 139.653 394.01 139.44 393.53 139.44C393.023 139.44 392.383 139.64 391.61 140.04H391.57C391.463 140.04 391.383 139.973 391.33 139.84C391.276 139.707 391.303 139.613 391.41 139.56L396.37 137.24L396.53 137.2C396.583 137.2 396.636 137.227 396.69 137.28C396.77 137.333 396.81 137.4 396.81 137.48C396.81 137.64 396.796 138.173 396.77 139.08C396.743 139.96 396.73 140.987 396.73 142.16V149.76C396.73 150.56 396.783 151.16 396.89 151.56C397.023 151.933 397.263 152.187 397.61 152.32C397.983 152.453 398.556 152.52 399.33 152.52C399.41 152.52 399.45 152.6 399.45 152.76C399.45 152.92 399.41 153 399.33 153C398.716 153 398.236 152.987 397.89 152.96L395.77 152.92L393.69 152.96C393.316 152.987 392.823 153 392.21 153ZM410.145 153.48C408.439 153.48 406.999 153.107 405.825 152.36C404.679 151.587 403.825 150.6 403.265 149.4C402.705 148.2 402.425 146.933 402.425 145.6C402.425 143.893 402.839 142.413 403.665 141.16C404.519 139.88 405.599 138.907 406.905 138.24C408.239 137.547 409.599 137.2 410.985 137.2C412.132 137.2 413.172 137.427 414.105 137.88C415.065 138.333 415.545 138.867 415.545 139.48C415.545 139.8 415.439 140.08 415.225 140.32C415.012 140.533 414.732 140.64 414.385 140.64C413.772 140.64 413.239 140.267 412.785 139.52C412.439 139.013 412.025 138.64 411.545 138.4C411.092 138.133 410.479 138 409.705 138C408.105 138 406.865 138.587 405.985 139.76C405.132 140.907 404.705 142.467 404.705 144.44C404.705 146.68 405.279 148.547 406.425 150.04C407.572 151.507 409.279 152.24 411.545 152.24C413.252 152.24 414.625 151.773 415.665 150.84H415.745C415.825 150.84 415.892 150.88 415.945 150.96C416.025 151.04 416.025 151.107 415.945 151.16C415.039 151.96 414.119 152.547 413.185 152.92C412.252 153.293 411.239 153.48 410.145 153.48ZM431.08 150.84C431.16 150.84 431.227 150.893 431.28 151C431.36 151.08 431.373 151.16 431.32 151.24C429.56 152.733 427.653 153.48 425.6 153.48C424.08 153.48 422.787 153.12 421.72 152.4C420.653 151.68 419.84 150.747 419.28 149.6C418.747 148.427 418.48 147.16 418.48 145.8C418.48 144.227 418.853 142.787 419.6 141.48C420.347 140.147 421.347 139.107 422.6 138.36C423.88 137.587 425.267 137.2 426.76 137.2C428.253 137.2 429.373 137.613 430.12 138.44C430.893 139.24 431.28 140.347 431.28 141.76C431.28 142.133 431.24 142.4 431.16 142.56C431.107 142.693 430.987 142.76 430.8 142.76L420.84 142.8C420.787 143.44 420.76 143.96 420.76 144.36C420.76 146.68 421.307 148.573 422.4 150.04C423.493 151.48 425.027 152.2 427 152.2C427.827 152.2 428.533 152.093 429.12 151.88C429.707 151.64 430.347 151.293 431.04 150.84H431.08ZM425.48 138C424.28 138 423.28 138.387 422.48 139.16C421.707 139.907 421.187 140.96 420.92 142.32L428.96 142.16C428.987 140.773 428.68 139.733 428.04 139.04C427.427 138.347 426.573 138 425.48 138ZM437.051 140.12C437.051 141.107 437.358 141.88 437.971 142.44C438.584 142.973 439.518 143.547 440.771 144.16C441.678 144.613 442.398 145.013 442.931 145.36C443.464 145.707 443.918 146.16 444.291 146.72C444.664 147.253 444.851 147.907 444.851 148.68C444.851 150.013 444.344 151.147 443.331 152.08C442.344 152.987 440.984 153.44 439.251 153.44C437.838 153.44 436.584 153.027 435.491 152.2C435.331 152.093 435.251 151.933 435.251 151.72L435.171 148.84C435.171 148.76 435.238 148.72 435.371 148.72C435.531 148.693 435.624 148.72 435.651 148.8C436.158 150.133 436.798 151.12 437.571 151.76C438.371 152.373 439.318 152.68 440.411 152.68C441.318 152.68 442.011 152.48 442.491 152.08C442.971 151.68 443.211 151.093 443.211 150.32C443.211 149.547 443.038 148.907 442.691 148.4C442.371 147.867 441.958 147.44 441.451 147.12C440.971 146.8 440.304 146.44 439.451 146.04C438.571 145.613 437.864 145.24 437.331 144.92C436.824 144.573 436.384 144.12 436.011 143.56C435.664 143 435.491 142.307 435.491 141.48C435.491 140.067 436.024 138.973 437.091 138.2C438.158 137.427 439.411 137.04 440.851 137.04C441.838 137.04 442.784 137.24 443.691 137.64C443.851 137.72 443.944 137.787 443.971 137.84C444.024 137.893 444.051 137.973 444.051 138.08C444.051 138.587 444.038 138.987 444.011 139.28L443.971 140.84C443.971 140.893 443.891 140.92 443.731 140.92C443.571 140.92 443.491 140.893 443.491 140.84C443.491 139.987 443.051 139.28 442.171 138.72C441.291 138.133 440.358 137.84 439.371 137.84C438.651 137.84 438.078 138.04 437.651 138.44C437.251 138.813 437.051 139.373 437.051 140.12Z" fill="#A69B75"/>
<g filter="url(#filter0_f)">
<line x1="326" y1="101.5" x2="386" y2="101.5" stroke="#A69B75"/>
</g>
<g filter="url(#filter1_f)">
<line x1="237" y1="101.5" x2="297" y2="101.5" stroke="#A69B75"/>
</g>
<path d="M303.488 100.92L301.545 92" stroke="#A69B75" stroke-linecap="round" stroke-linejoin="round"/>
<line x1="0.5" y1="-0.5" x2="9.61473" y2="-0.49999" transform="matrix(0.202119 -0.979361 -0.999977 -0.00675164 319.045 101.406)" stroke="#A69B75" stroke-linecap="round" stroke-linejoin="round"/>
<path d="M315.045 95L311.545 88.5001" stroke="#A69B75" stroke-linecap="round" stroke-linejoin="round"/>
<path d="M315.045 95L321.438 91.8944" stroke="#A69B75" stroke-linecap="round" stroke-linejoin="round"/>
<path d="M307.958 95L311.458 88.5001" stroke="#A69B75" stroke-linecap="round" stroke-linejoin="round"/>
<path d="M307.958 95L301.564 91.8944" stroke="#A69B75" stroke-linecap="round" stroke-linejoin="round"/>
<line x1="319.545" y1="101" x2="303.545" y2="101" stroke="#A69B75" stroke-linecap="round" stroke-linejoin="round"/>
<defs>
<filter id="filter0_f" x="325.75" y="100.75" width="60.5" height="1.5" filterUnits="userSpaceOnUse" color-interpolation-filters="sRGB">
<feFlood flood-opacity="0" result="BackgroundImageFix"/>
<feBlend mode="normal" in="SourceGraphic" in2="BackgroundImageFix" result="shape"/>
<feGaussianBlur stdDeviation="0.125" result="effect1_foregroundBlur"/>
</filter>
<filter id="filter1_f" x="236.75" y="100.75" width="60.5" height="1.5" filterUnits="userSpaceOnUse" color-interpolation-filters="sRGB">
<feFlood flood-opacity="0" result="BackgroundImageFix"/>
<feBlend mode="normal" in="SourceGraphic" in2="BackgroundImageFix" result="shape"/>
<feGaussianBlur stdDeviation="0.125" result="effect1_foregroundBlur"/>
</filter>
</defs>
</svg>
